<?xml version="1.0" encoding="utf-8"?>
<!-- Generator: Adobe Illustrator 19.0.1, SVG Export Plug-In . SVG Version: 6.00 Build 0)  -->
<svg version="1.1" id="Layer_1" xmlns="http://www.w3.org/2000/svg" xmlns:xlink="http://www.w3.org/1999/xlink" x="0px" y="0px"
	 viewBox="0 0 464.8 420.7" style="enable-background:new 0 0 464.8 420.7;" xml:space="preserve">
<style type="text/css">
	.st0{fill:#FF9A94;}
	.st1{fill:#E8EAEC;}
</style>
<g id="menu-icon-bars">
	<rect x="-587.3" y="305.6" class="st0" width="216.3" height="24.6"/>
	<path class="st0" d="M-608.9,421.7H-371v-24.6h-220.2C-594.2,406.4-599.6,416.6-608.9,421.7z"/>
	<rect x="-587.3" y="352.5" class="st0" width="216.3" height="24.6"/>
</g>
<g id="menu-icon-close">
	<g>
		<g>
			<path class="st1" d="M-548,269.4c-14.4-1.8-28.5-7.6-39.6-16l13.1-19.1c9.1,6.9,17.5,11.6,27.4,13.6v-26.7
				c-24.2-6.5-36.1-15.6-36.1-35.6v-0.3c0-18.5,14.1-30.7,35.3-32.9v-9.7h17.5v10.2c11.9,1.5,22,5.9,31.2,12.3l-11.3,19.6
				c-6.7-4.5-13.9-8.1-20.8-9.9v25.5c25.5,6.9,36.4,17.1,36.4,35.9v0.3c0,18.8-14.4,30.9-35.6,33.1v16.6H-548V269.4z M-547.2,196.2
				v-22.8c-8.2,1-11.6,5-11.6,10.4v0.3C-558.8,189.5-556.4,192.9-547.2,196.2z M-531.4,225.3v23.5c7.9-1.2,11.9-4.7,11.9-10.7v-0.3
				C-519.5,232.1-522.3,228.6-531.4,225.3z"/>
		</g>
	</g>
	<g>
		<g>
			<path class="st1" d="M-459.4,152.4h88.7v23h-63v23.8h55.4v23h-55.4v24.7h63.8v23h-89.5V152.4z"/>
		</g>
	</g>
	<g>
		<path class="st1" d="M-705.7,62.5v-0.3c0-33.4,25.2-60.8,61.3-60.8c22.2,0,35.4,7.4,46.3,18.1l-16.5,19
			c-9.1-8.2-18.3-13.3-30.1-13.3c-19.8,0-34.1,16.5-34.1,36.6v0.3c0,20.1,13.9,36.9,34.1,36.9c13.4,0,21.7-5.4,30.9-13.8l16.5,16.6
			c-12.1,12.9-25.5,21-48.2,21C-680,123-705.7,96.3-705.7,62.5z"/>
	</g>
	<g>
		<path class="st1" d="M-856.9,154.9h25.9v94h58.6v23.5h-84.5V154.9z"/>
	</g>
	<g>
		<path class="st1" d="M-751.5,211.5v-0.3c0-33.4,26.4-60.8,62.6-60.8c36.3,0,62.3,27,62.3,60.4v0.3c0,33.4-26.4,60.8-62.6,60.8
			C-725.5,271.9-751.5,244.9-751.5,211.5z M-653.6,211.5v-0.3c0-20.1-14.8-36.9-35.6-36.9s-35.3,16.5-35.3,36.6v0.3
			c0,20.1,14.8,36.9,35.6,36.9S-653.6,231.6-653.6,211.5z"/>
	</g>
	<polygon class="st1" points="-569.7,48 -582.6,61 -582.8,61 -569.7,76 -491.3,76 -491.3,48 	"/>
</g>
<g id="menu-icon-menu">
	<g>
		<path d="M-856.9,3.4h27.9l30.9,49.7l30.9-49.7h27.9V121H-765V44.2l-33.1,50.2h-0.7l-32.7-49.7V121h-25.4V3.4z"/>
	</g>
	<g>
		<path d="M-459.4,3.4h88.7v23h-63v23.8h55.4v23h-55.4V98h63.8v23h-89.5V3.4z"/>
	</g>
	<g>
		<path d="M-856.9,304.2h23.8l55.1,72.4v-72.4h25.5v117.5h-22l-56.9-74.7v74.7h-25.5V304.2z"/>
	</g>
	<g>
		<path d="M-719.6,371.4v-67.2h25.9v66.5c0,19.1,9.6,29,25.4,29c15.8,0,25.4-9.6,25.4-28.2v-67.3h25.9v66.3
			c0,35.6-20,53.1-51.5,53.1S-719.6,406-719.6,371.4z"/>
	</g>
</g>
<g id="menu-icon-bars_1_">
	<rect x="269.9" y="305.6" class="st0" width="190.6" height="23"/>
	<path class="st0" d="M249.7,414.3h210.8v-23H266.4C263.5,399.9,258.5,409.5,249.7,414.3z"/>
	<rect x="269.9" y="349.4" class="st0" width="190.6" height="23"/>
</g>
<g id="menu-icon-close_1_">
	<g>
		<g>
			<path class="st1" d="M292.6,260.8c-13.5-1.7-26.7-7.1-37.1-14.9l12.3-17.9c8.5,6.4,16.3,10.8,25.6,12.7v-25
				c-22.6-6.1-33.8-14.6-33.8-33.3V182c0-17.3,13.2-28.8,33-30.8v-16.7H309v17.2c11.2,1.4,20.6,5.5,29.2,11.5l-10.5,18.4
				c-6.3-4.2-13-7.5-19.5-9.3v23.9c23.9,6.4,34.1,16,34.1,33.6v0.3c0,17.6-13.5,28.9-33.3,31v15.6h-16.3V260.8z M293.4,192.3v-21.4
				c-7.7,0.9-10.8,4.7-10.8,9.7v0.3C282.6,186,284.8,189.1,293.4,192.3z M308.2,219.4v22c7.4-1.1,11.2-4.4,11.2-10.1v-0.3
				C319.4,225.9,316.7,222.6,308.2,219.4z"/>
		</g>
	</g>
	<g>
		<g>
			<path class="st1" d="M381,151.2h83v21.5h-59v22.3h51.9v21.5h-51.9v23.1h59.7v21.5H381V151.2z"/>
		</g>
	</g>
	<g>
		<path class="st1" d="M146.1,56.3v-0.3c0-31.3,23.6-56.9,57.4-56.9c20.8,0,33.2,6.9,43.4,17l-15.4,17.8
			c-8.5-7.7-17.1-12.4-28.1-12.4c-18.5,0-31.9,15.4-31.9,34.3v0.3c0,18.9,13,34.6,31.9,34.6c12.6,0,20.3-5,28.9-12.9l15.4,15.6
			c-11.3,12.1-23.9,19.7-45.1,19.7C170.2,112.8,146.1,87.9,146.1,56.3z"/>
	</g>
	<g>
		<path class="st1" d="M2.4,153.6h24.2v88h54.9v22H2.4V153.6z"/>
	</g>
	<g>
		<path class="st1" d="M106.5,206.6v-0.3c0-31.3,24.7-56.9,58.6-56.9c34,0,58.3,25.3,58.3,56.6v0.3c0,31.3-24.7,56.9-58.6,56.9
			C130.8,263.2,106.5,237.8,106.5,206.6z M198.1,206.6v-0.3c0-18.9-13.8-34.6-33.3-34.6s-33,15.4-33,34.3v0.3
			c0,18.9,13.8,34.6,33.3,34.6S198.1,225.4,198.1,206.6z"/>
	</g>
	<polygon class="st1" points="277.7,43 265.7,55 265.5,55 277.7,70 348.7,70 348.7,43 	"/>
</g>
<g id="menu-icon-menu_1_">
	<g>
		<path d="M2.4,0.9h26.1l28.9,46.5L86.3,0.9h26.1v110H88.4V39.1l-31,47h-0.6L26.1,39.6V111H2.4V0.9z"/>
	</g>
	<g>
		<path d="M381,0.9h83v21.5h-59v22.3h51.9v21.5h-51.9v23.1h59.7V111H381V0.9z"/>
	</g>
	<g>
		<path d="M2.4,304.2h22.3L76.3,372v-67.8h23.9v110H79.6l-53.3-70v70H2.4V304.2z"/>
	</g>
	<g>
		<path d="M138.5,367.1v-62.9h24.2v62.3c0,17.9,9,27.2,23.7,27.2s23.7-9,23.7-26.4v-63h24.2v62.1c0,33.3-18.7,49.7-48.3,49.7
			S138.5,399.5,138.5,367.1z"/>
	</g>
</g>
</svg>
