<?xml version="1.0" encoding="utf-8"?>
<!-- Generator: Adobe Illustrator 19.0.1, SVG Export Plug-In . SVG Version: 6.00 Build 0)  -->
<svg version="1.1" id="Layer_1" xmlns="http://www.w3.org/2000/svg" xmlns:xlink="http://www.w3.org/1999/xlink" x="0px" y="0px"
	 viewBox="0 0 495.7 426" style="enable-background:new 0 0 495.7 426;" xml:space="preserve">
<style type="text/css">
	.st0{fill:#E8EAEC;}
	.st1{fill:#FF9A94;}
</style>
<g>
	<path d="M4.1,3.4H32l30.9,49.7L93.8,3.4h27.9V121H96V44.2L62.9,94.4h-0.7L29.5,44.7V121H4.1V3.4z"/>
</g>
<g>
	<path d="M401.6,3.4h88.7v23h-63v23.8h55.4v23h-55.4V98h63.8v23h-89.5V3.4z"/>
</g>
<g>
	<path d="M4.1,304.2H28L83,376.6v-72.4h25.5v117.5h-22L29.6,347v74.7H4.1V304.2z"/>
</g>
<g>
	<g>
		<g>
			<g>
				<path class="st0" d="M313,269.4c-14.4-1.8-28.5-7.6-39.6-16l13.1-19.1c9.1,6.9,17.5,11.6,27.4,13.6v-26.7
					c-24.2-6.5-36.1-15.6-36.1-35.6v-0.3c0-18.5,14.1-30.7,35.3-32.9v-9.7h17.5v10.2c11.9,1.5,22,5.9,31.2,12.3l-11.3,19.6
					c-6.7-4.5-13.9-8.1-20.8-9.9v25.5c25.5,6.9,36.4,17.1,36.4,35.9v0.3c0,18.8-14.4,30.9-35.6,33.1v16.6H313V269.4z M313.8,196.2
					v-22.8c-8.2,1-11.6,5-11.6,10.4v0.3C302.2,189.5,304.6,192.9,313.8,196.2z M329.6,225.3v23.5c7.9-1.2,11.9-4.7,11.9-10.7v-0.3
					C341.5,232.1,338.7,228.6,329.6,225.3z"/>
			</g>
		</g>
		<g>
			<g>
				<path class="st0" d="M401.6,152.4h88.7v23h-63v23.8h55.4v23h-55.4v24.7h63.8v23h-89.5V152.4z"/>
			</g>
		</g>
		<g>
			<path class="st0" d="M155.3,62.5v-0.3c0-33.4,25.2-60.8,61.3-60.8c22.2,0,35.4,7.4,46.3,18.1l-16.5,19
				c-9.1-8.2-18.3-13.3-30.1-13.3c-19.8,0-34.1,16.5-34.1,36.6v0.3c0,20.1,13.9,36.9,34.1,36.9c13.4,0,21.7-5.4,30.9-13.8l16.5,16.6
				c-12.1,12.9-25.5,21-48.2,21C181,123,155.3,96.3,155.3,62.5z"/>
		</g>
		<g>
			<path class="st0" d="M4.1,154.9H30v94h58.6v23.5H4.1V154.9z"/>
		</g>
		<g>
			<path class="st0" d="M109.5,211.5v-0.3c0-33.4,26.4-60.8,62.6-60.8c36.3,0,62.3,27,62.3,60.4v0.3c0,33.4-26.4,60.8-62.6,60.8
				C135.5,271.9,109.5,244.9,109.5,211.5z M207.4,211.5v-0.3c0-20.1-14.8-36.9-35.6-36.9s-35.3,16.5-35.3,36.6v0.3
				c0,20.1,14.8,36.9,35.6,36.9S207.4,231.6,207.4,211.5z"/>
		</g>
	</g>
</g>
<g>
	<rect x="273.7" y="305.6" class="st1" width="216.3" height="24.6"/>
	<path class="st1" d="M252.1,421.7H490v-24.6H269.8C266.8,406.4,261.4,416.6,252.1,421.7z"/>
	<rect x="273.7" y="352.5" class="st1" width="216.3" height="24.6"/>
	<polygon class="st0" points="291.3,48 278.4,61 278.2,61 291.3,76 370,76 370,48 	"/>
</g>
<g>
	<path d="M141.4,371.4v-67.2h25.9v66.5c0,19.1,9.6,29,25.4,29s25.4-9.6,25.4-28.2v-67.3h25.9v66.3c0,35.6-20,53.1-51.5,53.1
		S141.4,406,141.4,371.4z"/>
</g>
<path d="M243.3,372.1"/>
</svg>
