<?xml version="1.0" encoding="utf-8"?>
<!-- Generator: Adobe Illustrator 19.0.1, SVG Export Plug-In . SVG Version: 6.00 Build 0)  -->
<svg version="1.1" id="Layer_1" xmlns="http://www.w3.org/2000/svg" xmlns:xlink="http://www.w3.org/1999/xlink" x="0px" y="0px"
	 viewBox="0 0 2198 1185.5" style="enable-background:new 0 0 2198 1185.5;" xml:space="preserve">
<style type="text/css">
	.st0{fill:#1A1A1A;}
	.st1{fill:none;stroke:#FFFFFF;stroke-width:5;stroke-miterlimit:10;}
	.st2{fill:#FFFFFF;}
	.st3{fill:none;stroke:#FFFFFF;stroke-width:8;stroke-linecap:round;stroke-miterlimit:10;}
	.st4{fill:none;stroke:#FFFFFF;stroke-width:8;stroke-miterlimit:10;}
	.st5{fill:none;stroke:#1A1A1A;stroke-width:8;stroke-linecap:round;stroke-miterlimit:10;}
	.st6{fill:none;stroke:#1A1A1A;stroke-width:6.5;stroke-linecap:round;stroke-miterlimit:10;}
	.st7{fill:#1A1A1A;stroke:#1A1A1A;stroke-width:7;stroke-miterlimit:10;}
	.st8{fill:none;stroke:#1A1A1A;stroke-width:7;stroke-linecap:round;stroke-miterlimit:10;}
	.st9{fill:none;stroke:#1A1A1A;stroke-width:6;stroke-linecap:round;stroke-miterlimit:10;}
	.st10{fill:none;stroke:#1A1A1A;stroke-linecap:round;stroke-miterlimit:10;}
	.st11{opacity:0.2;fill:#FFFFFF;}
	.st12{font-family:'NexaBold';}
	.st13{font-size:36.7721px;}
</style>
<rect y="0" class="st0" width="2198" height="1185.5"/>
<circle class="st1" cx="1025.5" cy="398.8" r="80"/>
<circle class="st1" cx="1025.5" cy="398.8" r="67"/>
<circle class="st1" cx="1025.5" cy="398.8" r="54.5"/>
<circle class="st1" cx="1025.5" cy="398.8" r="42.2"/>
<polygon class="st2" points="1096.7,357.7 1055,372.2 1046.8,362.4 1025.5,356.6 1005.2,361.8 992,372.3 983.8,392.8 985,410.5 
	993.2,425.9 999.4,431.9 975.3,461 955.7,439.2 944,408.8 944,386.8 955.6,359 976.1,335.7 999.9,322.9 1023.7,318.8 1047.9,322 
	1065.6,329.6 1080,340.2 "/>
<rect x="1040.7" y="360.4" transform="matrix(0.9759 -0.2181 0.2181 0.9759 -57.0703 246.6308)" class="st0" width="95.8" height="42.9"/>
<g>
	<path class="st3" d="M1342.8,333.5c-13.1-9.3-29-14.8-46.3-14.8c-44.2,0-80,35.8-80,80c0,44.2,35.8,80,80,80s80-35.8,80-80
		c0-8.5-1.3-16.7-3.8-24.4"/>
	<path class="st4" d="M1360,382.7c1.3,5.2,2,10.6,2,16.1c0,36.2-29.3,65.5-65.5,65.5s-65.5-29.3-65.5-65.5
		c0-36.2,29.3-65.5,65.5-65.5c13.9,0,26.8,4.4,37.4,11.8"/>
	<path class="st3" d="M1333.9,345c-10.6-7.4-23.5-11.8-37.4-11.8c-36.2,0-65.5,29.3-65.5,65.5c0,36.2,29.3,65.5,65.5,65.5
		s65.5-29.3,65.5-65.5c0-5.6-0.7-11-2-16.1"/>
	<path class="st4" d="M1346.7,391.4c0.4,2.4,0.5,4.9,0.5,7.4c0,28-22.7,50.8-50.8,50.8s-50.8-22.7-50.8-50.8s22.7-50.8,50.8-50.8
		c10.6,0,20.4,3.2,28.5,8.7"/>
	<path class="st3" d="M1325,356.8c-8.1-5.5-17.9-8.7-28.5-8.7c-28,0-50.8,22.7-50.8,50.8s22.7,50.8,50.8,50.8s50.8-22.7,50.8-50.8
		c0-2.5-0.2-5-0.5-7.4"/>
	<path class="st3" d="M1333.5,400.1c-0.7,19.8-17,35.7-37,35.7c-20.4,0-37-16.6-37-37c0-20.4,16.6-37,37-37c7.4,0,14.3,2.2,20.1,5.9
		"/>
</g>
<polygon class="st0" points="1317.2,396.1 1201.7,397.7 1219.4,301.2 1358.6,309.8 "/>
<path class="st2" d="M1263.5,396.9c0,0,5.3-27.8,28.3-27.8c17.1,0,19.1,1.3,28.2,6.5s9.5-14.8,32.1-22.7
	c10.1-3.5-12.9-22.4-22.6-27.1c-9.7-4.7-45.3-17.4-72.1-3.6c-10.2,5.2-19.3,12.1-24.9,21.8c-2.3,4-1.4,9.7-3.8,14
	c-2.8,5.2-8.1,10.4-11,15.8c-4.3,8-5.9,16.3-5.4,23.9c0.8,12.7,17.1,48.7,35.1,64.3c20.7,18.1,43.5,15,43.5,15s-9.3-38.9-20.4-51.8
	C1259.5,412.3,1263.5,396.9,1263.5,396.9z"/>
<circle class="st0" cx="1296.5" cy="398.8" r="33"/>
<path class="st0" d="M1296.5,365.8c0,0-44.8-4-46.7,43.5c0,0,4.7-23.2,20.3-30C1278.3,375.8,1296.5,365.8,1296.5,365.8z"/>
<path class="st3" d="M1642.9,327.9c-15.4-4.4-32.3-4.3-48.5,1.5c-41.7,14.7-63.5,60.4-48.8,102.1c14.7,41.7,60.4,63.5,102.1,48.8
	c41.7-14.7,63.5-60.4,48.8-102.1c-2.8-8-6.8-15.3-11.7-21.8"/>
<path class="st4" d="M1675.5,368.5c2.9,4.4,5.4,9.3,7.3,14.5c12,34.1-5.8,71.5-40,83.6c-34.1,12-71.5-5.8-83.6-40
	c-12-34.1,5.8-71.5,40-83.6c13.1-4.6,26.8-4.8,39.2-1.4"/>
<path class="st4" d="M1665.9,381.1c1.1,2.2,2.1,4.4,3,6.8c9.3,26.4-4.5,55.4-31,64.8s-55.4-4.5-64.8-31c-9.3-26.4,4.5-55.4,31-64.8
	c10-3.5,20.3-3.7,29.8-1.2"/>
<path class="st3" d="M1656.3,393.8c5.9,18.9-4.1,39.3-23,45.9c-19.3,6.8-40.4-3.3-47.2-22.6c-6.8-19.3,3.3-40.4,22.6-47.2
	c7-2.5,14.2-2.7,20.9-1.1"/>
<polygon class="st0" points="1639.7,395.4 1531.3,435.3 1515.8,338.5 1649.9,300.2 "/>
<path class="st2" d="M1589.3,414c0,0-4.3-27.9,17.5-35.6c16.1-5.7,18.4-5.1,28.7-3.2s4-17.1,22.7-32c8.3-6.7-19.6-16.8-30.3-18
	s-48.5-1.3-69.2,20.6c-7.9,8.3-14.2,17.8-16.2,28.8c-0.8,4.5,1.9,9.6,1.1,14.4c-0.9,5.8-4.2,12.5-5.1,18.5c-1.4,9-0.1,17.4,2.9,24.3
	c5,11.7,32.3,40.2,54.5,49c25.6,10.1,46-0.3,46-0.3s-21.8-33.6-36.5-42.1S1589.3,414,1589.3,414z"/>
<circle class="st0" cx="1621" cy="404.8" r="33"/>
<path class="st3" d="M1638.4,341.7c-12.5-3.5-26.1-3.3-39.2,1.4c-34.1,12-52,49.5-40,83.6c12,34.1,49.5,52,83.6,40
	c34.1-12,52-49.5,40-83.6c-1.9-5.2-4.3-10.1-7.3-14.5"/>
<path class="st3" d="M1633.9,355.7c-9.5-2.5-19.8-2.3-29.8,1.2c-26.4,9.3-40.3,38.3-31,64.8c9.3,26.4,38.3,40.3,64.8,31
	s40.3-38.3,31-64.8c-0.8-2.4-1.8-4.6-3-6.8"/>
<path class="st5" d="M1554.1,433.4c3,7.1,7.1,13.5,11.9,19.1"/>
<path class="st5" d="M1567.3,427.8c1.9,4.6,4.4,8.7,7.3,12.5"/>
<path class="st5" d="M1578.7,422.9c0.9,2.1,1.9,4.1,3.1,6"/>
<path class="st3" d="M1962.9,327.9c-15.4-4.4-32.3-4.3-48.5,1.5c-41.7,14.7-63.5,60.4-48.8,102.1c14.7,41.7,60.4,63.5,102.1,48.8
	c41.7-14.7,63.5-60.4,48.8-102.1c-2.8-8-6.8-15.3-11.7-21.8"/>
<path class="st4" d="M1995.5,368.5c2.9,4.4,5.4,9.3,7.3,14.5c12,34.1-5.8,71.5-40,83.6c-34.1,12-71.5-5.8-83.6-40
	c-12-34.1,5.8-71.5,40-83.6c13.1-4.6,26.8-4.8,39.2-1.4"/>
<path class="st4" d="M1985.9,381.1c1.1,2.2,2.1,4.4,3,6.8c9.3,26.4-4.5,55.4-31,64.8s-55.4-4.5-64.8-31c-9.3-26.4,4.5-55.4,31-64.8
	c10-3.5,20.3-3.7,29.8-1.2"/>
<path class="st3" d="M1976.3,393.8c5.9,18.9-4.1,39.3-23,45.9c-19.3,6.8-40.4-3.3-47.2-22.6c-6.8-19.3,3.3-40.4,22.6-47.2
	c7-2.5,14.2-2.7,20.9-1.1"/>
<polygon class="st0" points="1959.7,395.4 1851.3,435.3 1835.8,338.5 1969.9,300.2 "/>
<path class="st2" d="M1909.3,414c0,0-4.3-27.9,17.5-35.6c16.1-5.7,18.4-5.1,28.7-3.2s4-17.1,22.7-32c8.3-6.7-19.6-16.8-30.3-18
	s-48.5-1.3-69.2,20.6c-7.9,8.3-14.2,17.8-16.2,28.8c-0.8,4.5,1.9,9.6,1.1,14.4c-0.9,5.8-4.2,12.5-5.1,18.5c-1.4,9-0.1,17.4,2.9,24.3
	c5,11.7,32.3,40.2,54.5,49c25.6,10.1,46-0.3,46-0.3s-21.8-33.6-36.5-42.1S1909.3,414,1909.3,414z"/>
<circle class="st0" cx="1941" cy="404.8" r="33"/>
<path class="st0" d="M1930,373.7c0,0-47.4,4.8-33.4,50.2c0,0,2.7-30.2,15-32.8C1920.3,389.2,1930,373.7,1930,373.7z"/>
<path class="st3" d="M1958.4,341.7c-12.5-3.5-26.1-3.3-39.2,1.4c-34.1,12-52,49.5-40,83.6c12,34.1,49.5,52,83.6,40
	c34.1-12,52-49.5,40-83.6c-1.9-5.2-4.3-10.1-7.3-14.5"/>
<path class="st3" d="M1953.9,355.7c-9.5-2.5-19.8-2.3-29.8,1.2c-26.4,9.3-40.3,38.3-31,64.8c9.3,26.4,38.3,40.3,64.8,31
	s40.3-38.3,31-64.8c-0.8-2.4-1.8-4.6-3-6.8"/>
<path class="st6" d="M1925.6,475.9c14.2,3.1,29.5,2,43.9-4.2c36.9-15.8,54.1-58.5,38.3-95.5"/>
<path class="st6" d="M1929.1,462c11.3,2.4,23.4,1.4,34.8-3.5c29.7-12.7,43.5-47,30.8-76.7"/>
<path class="st6" d="M1932.5,448.4c8.3,1.6,17.2,0.9,25.6-2.7c22.3-9.5,32.6-35.3,23.1-57.6"/>
<path class="st3" d="M585.9,590.9c-15.4-4.4-32.3-4.3-48.5,1.5c-41.7,14.7-63.5,60.4-48.8,102.1c14.7,41.7,60.4,63.5,102.1,48.8
	c41.7-14.7,63.5-60.4,48.8-102.1c-2.8-8-6.8-15.3-11.7-21.8"/>
<path class="st4" d="M618.5,631.5c2.9,4.4,5.4,9.3,7.3,14.5c12,34.1-5.8,71.5-40,83.6c-34.1,12-71.5-5.8-83.6-40
	c-12-34.1,5.8-71.5,40-83.6c13.1-4.6,26.8-4.8,39.2-1.4"/>
<path class="st4" d="M608.9,644.1c1.1,2.2,2.1,4.4,3,6.8c9.3,26.4-4.5,55.4-31,64.8c-26.4,9.3-55.4-4.5-64.8-31
	c-9.3-26.4,4.5-55.4,31-64.8c10-3.5,20.3-3.7,29.8-1.2"/>
<path class="st3" d="M599.3,656.8c5.9,18.9-4.1,39.3-23,45.9c-19.3,6.8-40.4-3.3-47.2-22.6c-6.8-19.3,3.3-40.4,22.6-47.2
	c7-2.5,14.2-2.7,20.9-1.1"/>
<polygon class="st0" points="582.7,658.4 474.3,698.3 458.8,601.5 592.9,563.2 "/>
<path class="st2" d="M532.3,677c0,0-4.3-27.9,17.5-35.6c16.1-5.7,18.4-5.1,28.7-3.2c10.3,1.9,4-17.1,22.7-32
	c8.3-6.7-19.6-16.8-30.3-18c-10.7-1.2-48.5-1.3-69.2,20.6c-7.9,8.3-14.2,17.8-16.2,28.8c-0.8,4.5,1.9,9.6,1.1,14.4
	c-0.9,5.8-4.2,12.5-5.1,18.5c-1.4,9-0.1,17.4,2.9,24.3c5,11.7,32.3,40.2,54.5,49c25.6,10.1,46-0.3,46-0.3s-21.8-33.6-36.5-42.1
	S532.3,677,532.3,677z"/>
<circle class="st0" cx="564" cy="667.8" r="33"/>
<path class="st3" d="M581.4,604.7c-12.5-3.5-26.1-3.3-39.2,1.4c-34.1,12-52,49.5-40,83.6c12,34.1,49.5,52,83.6,40
	c34.1-12,52-49.5,40-83.6c-1.9-5.2-4.3-10.1-7.3-14.5"/>
<path class="st3" d="M576.9,618.7c-9.5-2.5-19.8-2.3-29.8,1.2c-26.4,9.3-40.3,38.3-31,64.8c9.3,26.4,38.3,40.3,64.8,31
	c26.4-9.3,40.3-38.3,31-64.8c-0.8-2.4-1.8-4.6-3-6.8"/>
<path class="st6" d="M548.6,738.9c14.2,3.1,29.5,2,43.9-4.2c36.9-15.8,54.1-58.5,38.3-95.5"/>
<path class="st6" d="M552.1,725c11.3,2.4,23.4,1.4,34.8-3.5c29.7-12.7,43.5-47,30.8-76.7"/>
<path class="st6" d="M555.5,711.4c8.3,1.6,17.2,0.9,25.6-2.7c22.3-9.5,32.6-35.3,23.1-57.6"/>
<circle class="st2" cx="1557" cy="626.8" r="81"/>
<circle class="st7" cx="1537" cy="606.8" r="23.5"/>
<path class="st8" d="M1573.3,593.1"/>
<path class="st8" d="M1558.3,601"/>
<path class="st8" d="M1537,645.5c21.4,0,38.8-17.3,38.8-38.8c0-4.8-0.9-9.4-2.5-13.7"/>
<path class="st8" d="M1506.9,631.1c3.1,3.9,7,7.1,11.3,9.5"/>
<path class="st8" d="M1586.8,585.9"/>
<path class="st8" d="M1573.3,593.1"/>
<path class="st8" d="M1518.2,640.7c-4.4-2.4-8.2-5.7-11.3-9.5"/>
<path class="st8" d="M1573.3,593.1c1.6,4.3,2.5,8.9,2.5,13.7c0,21.4-17.3,38.8-38.8,38.8"/>
<path class="st8" d="M1537,660.8c29.8,0,54-24.2,54-54c0-7.4-1.5-14.4-4.2-20.9"/>
<path class="st8" d="M1493.6,638.9c4.8,6.4,11,11.8,18.1,15.6"/>
<path class="st8" d="M1511.7,654.5c-7.1-3.8-13.3-9.1-18.1-15.6"/>
<path class="st8" d="M1586.8,585.9c2.7,6.4,4.2,13.5,4.2,20.9c0,29.8-24.2,54-54,54"/>
<path class="st8" d="M1537,676.1c38.3,0,69.3-31,69.3-69.3c0-10-2.1-19.5-5.9-28"/>
<path class="st8" d="M1480.4,646.8c6.4,9.1,14.9,16.5,24.9,21.6"/>
<path class="st8" d="M1600.4,578.7"/>
<path class="st8" d="M1586.8,585.9"/>
<path class="st7" d="M1535.5,687.8"/>
<rect x="1534.8" y="566.3" transform="matrix(0.8652 -0.5015 0.5015 0.8652 -79.7197 870.2704)" class="st0" width="87.3" height="34.2"/>
<path class="st9" d="M497.1,696.4c3,7.1,7.1,13.5,11.9,19.1"/>
<path class="st9" d="M510.3,690.8c1.9,4.6,4.4,8.7,7.3,12.5"/>
<path class="st9" d="M521.7,685.9c0.9,2.1,1.9,4.1,3.1,6"/>
<path class="st0" d="M595.6,676.4c0,0,0.1-5.4,4.2-5.3c4.1,0.1,3.4,3.4,3.4,6.2c0,2.9,2.5-8.2,2.5-8.2l-3.2-19.6l-11.2,3.8
	L595.6,676.4z"/>
<path class="st0" d="M610,658.8c0,0-1.2-5.3,2.8-6.1c4-0.9,4.1,2.5,4.8,5.3c0.7,2.8,0.5-8.5,0.5-8.5l-7.7-12.3l-9.1,5.8L610,658.8z"
	/>
<path class="st0" d="M620.8,643.7c0,0-2.1-5,1.7-6.5c3.8-1.5,4.4,1.7,5.6,4.3c1.2,2.6-1-8.5-1-8.5l-9.7-10.7l-7.9,7.3L620.8,643.7z"
	/>
<path class="st0" d="M629.8,629.5c0,0-2.7-4.9,1-6.9c3.7-2,4.7,1.3,6.3,3.8c1.5,2.6-2-8.6-2-8.6l-11.1-10l-7.4,8.3L629.8,629.5z"/>
<path class="st3" d="M796.8,589.8c-14.7,6.4-27.6,17.2-36.5,32c-22.8,37.8-10.6,87,27.2,109.8c37.8,22.8,87,10.6,109.8-27.2
	s10.6-87-27.2-109.8c-7.3-4.4-15-7.5-22.9-9.3"/>
<path class="st4" d="M847.8,600.4c5.1,1.5,10.1,3.7,14.8,6.6c31,18.7,41,58.9,22.3,89.9c-18.7,31-58.9,41-89.9,22.3
	c-31-18.7-41-58.9-22.3-89.9c7.2-11.9,17.6-20.7,29.4-26"/>
<path class="st4" d="M848.4,616.2c2.2,0.9,4.5,2.1,6.6,3.3c24,14.5,31.7,45.7,17.3,69.7c-14.5,24-45.7,31.7-69.7,17.3
	c-24-14.5-31.7-45.7-17.3-69.7c5.4-9,13.3-15.8,22.2-19.9"/>
<path class="st3" d="M849.1,632.1c16.6,10.8,21.8,33,11.5,50.1c-10.5,17.5-33.3,23.1-50.8,12.6c-17.5-10.5-23.1-33.3-12.6-50.8
	c3.8-6.4,9.3-11.1,15.5-14.2"/>
<polygon class="st0" points="837.3,643.9 779,743.7 705.5,678.7 784.7,563.9 "/>
<path class="st2" d="M810.2,690.3c0,0-21.1-18.8-9.1-38.6c8.8-14.6,10.9-15.7,20.1-20.8c9.2-5.1-7.8-15.8-2.8-39.2
	c2.2-10.4-25.8-0.5-34.8,5.4c-9,5.9-38.3,29.8-40.3,59.9c-0.8,11.4,0.4,22.8,5.8,32.6c2.2,4,7.6,6.2,10.1,10.4
	c3,5.1,4.7,12.3,7.8,17.6c4.6,7.9,11,13.5,17.7,16.9c11.3,5.8,50.5,10.5,73.2,3.1c26.2-8.4,35.3-29.5,35.3-29.5s-38.2-12.1-54.9-9.3
	S810.2,690.3,810.2,690.3z"/>
<circle class="st0" cx="828.8" cy="663.1" r="33"/>
<path class="st0" d="M800.6,646c0,0-33.5,33.8,6.2,60c0,0-17.1-25-9.3-34.9C803,664.2,800.6,646,800.6,646z"/>
<path class="st3" d="M802.2,603.2c-11.8,5.3-22.2,14.1-29.4,26c-18.7,31-8.7,71.2,22.3,89.9c31,18.7,71.2,8.7,89.9-22.3
	c18.7-31,8.7-71.2-22.3-89.9c-4.8-2.9-9.7-5.1-14.8-6.6"/>
<path class="st3" d="M807.6,617c-8.9,4.1-16.7,10.8-22.2,19.9c-14.5,24-6.7,55.2,17.3,69.7c24,14.5,55.2,6.7,69.7-17.3
	c14.5-24,6.7-55.2-17.3-69.7c-2.1-1.3-4.4-2.4-6.6-3.3"/>
<path class="st6" d="M862.2,727.7c13-6.7,24-17.3,31.3-31.2c18.5-35.7,4.5-79.6-31.1-98"/>
<path class="st6" d="M856,714.8c10.2-5.4,19-13.8,24.7-24.8c14.8-28.7,3.6-63.9-25-78.8"/>
<path class="st6" d="M850,702.1c7.5-4,13.8-10.3,18-18.4c11.1-21.5,2.7-48-18.8-59.1"/>
<path class="st3" d="M593.9,854.9c-15.4-4.4-32.3-4.3-48.5,1.5c-41.7,14.7-63.5,60.4-48.8,102.1c14.7,41.7,60.4,63.5,102.1,48.8
	c41.7-14.7,63.5-60.4,48.8-102.1c-2.8-8-6.8-15.3-11.7-21.8"/>
<path class="st4" d="M626.5,895.5c2.9,4.4,5.4,9.3,7.3,14.5c12,34.1-5.8,71.5-40,83.6c-34.1,12-71.5-5.8-83.6-40
	c-12-34.1,5.8-71.5,40-83.6c13.1-4.6,26.8-4.8,39.2-1.4"/>
<path class="st4" d="M616.9,908.1c1.1,2.2,2.1,4.4,3,6.8c9.3,26.4-4.5,55.4-31,64.8c-26.4,9.3-55.4-4.5-64.8-31
	c-9.3-26.4,4.5-55.4,31-64.8c10-3.5,20.3-3.7,29.8-1.2"/>
<path class="st3" d="M607.3,920.8c5.9,18.9-4.1,39.3-23,45.9c-19.3,6.8-40.4-3.3-47.2-22.6c-6.8-19.3,3.3-40.4,22.6-47.2
	c7-2.5,14.2-2.7,20.9-1.1"/>
<polygon class="st0" points="590.7,922.4 482.3,962.3 466.8,865.5 600.9,827.2 "/>
<path class="st2" d="M540.3,941c0,0-4.3-27.9,17.5-35.6c16.1-5.7,18.4-5.1,28.7-3.2c10.3,1.9,4-17.1,22.7-32
	c8.3-6.7-19.6-16.8-30.3-18c-10.7-1.2-48.5-1.3-69.2,20.6c-7.9,8.3-14.2,17.8-16.2,28.8c-0.8,4.5,1.9,9.6,1.1,14.4
	c-0.9,5.8-4.2,12.5-5.1,18.5c-1.4,9-0.1,17.4,2.9,24.3c5,11.7,32.3,40.2,54.5,49c25.6,10.1,46-0.3,46-0.3s-21.8-33.6-36.5-42.1
	S540.3,941,540.3,941z"/>
<circle class="st0" cx="572" cy="931.8" r="33"/>
<path class="st3" d="M589.4,868.7c-12.5-3.5-26.1-3.3-39.2,1.4c-34.1,12-52,49.5-40,83.6c12,34.1,49.5,52,83.6,40
	c34.1-12,52-49.5,40-83.6c-1.9-5.2-4.3-10.1-7.3-14.5"/>
<path class="st3" d="M584.9,882.7c-9.5-2.5-19.8-2.3-29.8,1.2c-26.4,9.3-40.3,38.3-31,64.8c9.3,26.4,38.3,40.3,64.8,31
	c26.4-9.3,40.3-38.3,31-64.8c-0.8-2.4-1.8-4.6-3-6.8"/>
<path class="st6" d="M556.6,1002.9c14.2,3.1,29.5,2,43.9-4.2c36.9-15.8,54.1-58.5,38.3-95.5"/>
<path class="st6" d="M560.1,989c11.3,2.4,23.4,1.4,34.8-3.5c29.7-12.7,43.5-47,30.8-76.7"/>
<path class="st6" d="M563.5,975.4c8.3,1.6,17.2,0.9,25.6-2.7c22.3-9.5,32.6-35.3,23.1-57.6"/>
<path class="st0" d="M603.6,940.4c0,0,0.1-5.4,4.2-5.3c4.1,0.1,3.4,3.4,3.4,6.2c0,2.9,2.5-8.2,2.5-8.2l-3.2-19.6l-11.2,3.8
	L603.6,940.4z"/>
<path class="st0" d="M618,922.8c0,0-1.2-5.3,2.8-6.1c4-0.9,4.1,2.5,4.8,5.3c0.7,2.8,0.5-8.5,0.5-8.5l-7.7-12.3l-9.1,5.8L618,922.8z"
	/>
<path class="st0" d="M628.8,907.7c0,0-2.1-5,1.7-6.5c3.8-1.5,4.4,1.7,5.6,4.3c1.2,2.6-1-8.5-1-8.5l-9.7-10.7l-7.9,7.3L628.8,907.7z"
	/>
<path class="st0" d="M637.8,893.5c0,0-2.7-4.9,1-6.9c3.7-2,4.7,1.3,6.3,3.8c1.5,2.6-2-8.6-2-8.6l-11.1-10l-7.4,8.3L637.8,893.5z"/>
<ellipse class="st0" cx="1477" cy="906.8" rx="111.5" ry="108.4"/>
<path class="st3" d="M1498.9,836.9c-15.4-4.4-32.3-4.3-48.5,1.5c-41.7,14.7-63.5,60.4-48.8,102.1s60.4,63.5,102.1,48.8
	c41.7-14.7,63.5-60.4,48.8-102.1c-2.8-8-6.8-15.3-11.7-21.8"/>
<path class="st4" d="M1531.5,877.5c2.9,4.4,5.4,9.3,7.3,14.5c12,34.1-5.8,71.5-40,83.6s-71.5-5.8-83.6-40c-12-34.1,5.8-71.5,40-83.6
	c13.1-4.6,26.8-4.8,39.2-1.4"/>
<path class="st4" d="M1521.9,890.1c1.1,2.2,2.1,4.4,3,6.8c9.3,26.4-4.5,55.4-31,64.8c-26.4,9.3-55.4-4.5-64.8-31
	c-9.3-26.4,4.5-55.4,31-64.8c10-3.5,20.3-3.7,29.8-1.2"/>
<path class="st3" d="M1512.3,902.8c5.9,18.9-4.1,39.3-23,45.9c-19.3,6.8-40.4-3.3-47.2-22.6c-6.8-19.3,3.3-40.4,22.6-47.2
	c7-2.5,14.2-2.7,20.9-1.1"/>
<polygon class="st0" points="1495.7,904.4 1387.3,944.3 1371.8,847.5 1505.9,809.2 "/>
<path class="st3" d="M1494.4,850.7c-12.5-3.5-26.1-3.3-39.2,1.4c-34.1,12-52,49.5-40,83.6c12,34.1,49.5,52,83.6,40s52-49.5,40-83.6
	c-1.9-5.2-4.3-10.1-7.3-14.5"/>
<path class="st3" d="M1489.9,864.7c-9.5-2.5-19.8-2.3-29.8,1.2c-26.4,9.3-40.3,38.3-31,64.8c9.3,26.4,38.3,40.3,64.8,31
	c26.4-9.3,40.3-38.3,31-64.8c-0.8-2.4-1.8-4.6-3-6.8"/>
<path class="st0" d="M1508.6,922.4c0,0,0.1-5.4,4.2-5.3c4.1,0.1,3.9,3.5,4,6.4c0,2.9,3.9-8.3,3.9-8.3l-5.2-19.6l-11.2,3.8
	L1508.6,922.4z"/>
<path class="st0" d="M1522.8,904.8c0,0-1-5.3,3-6.1c4-0.9,4.4,2.5,5.1,5.3c0.7,2.8,0.1-8.6,0.1-8.6l-7.7-12.3l-9.1,5.8L1522.8,904.8
	z"/>
<path class="st0" d="M1533.5,889.7c0,0-1.8-5,2-6.5s4.6,1.7,5.8,4.3c1.2,2.6-1.2-8.5-1.2-8.5l-9.7-10.7l-7.9,7.3L1533.5,889.7z"/>
<path class="st0" d="M1542.5,875.5c0,0-2.5-4.9,1.3-6.9s4.7,1.3,6.3,3.8c1.5,2.6-2-8.6-2-8.6l-11.1-10l-7.4,8.3L1542.5,875.5z"/>
<path class="st2" d="M1447.2,927.6"/>
<path class="st10" d="M1388.2,842.8"/>
<path class="st10" d="M1507.8,1004.3"/>
<path class="st2" d="M1456.5,939.6c0,0-25.5-20.9,10.5-46.7c1.9-1.4,6.1-3.1,19.8-0.1c3.3,0.7,4.9,3,10.9,2.7
	c6.1-0.3,20.2-7.4,26.1-16.5c8.3-12.7,2.1-21.9-3.2-28c-6.9-8.1-26.1-15.6-36.8-16.8s-48.5-1.3-69.2,20.6
	c-7.9,8.3-12.5,14.1-14.5,25.1c-0.8,4.5,0.4,12.8,0.1,15.9c-0.9,9.1-5.4,17.9-6.4,24c-1.4,9,0.5,14.2,3.5,21.2
	c5,11.7,30.8,46.1,54.5,49c12.2,1.5,19.1,4,23.3,3.5c8.7-1.2,4.2-6.5-1.3-10.8c-4.1-3.2,3.1-4.1,3.1-4.1l0.3-2.3l1.6-0.4l0.6-14.7
	l-1.3-8C1452.4,950.9,1456.5,939.6,1456.5,939.6z"/>
<path class="st0" d="M1480.1,989.7c-26.7,0-45.6-17.4-46.8-24.5c0,0,23,25.4,59.1,16.2"/>
<path class="st0" d="M1479.7,975.2c-26.7,0-43.2-17.9-44.5-25c0,0,21,25.4,57.1,16.2"/>
<path class="st0" d="M1479.6,960.4c-26.7,0-38.1-18-39.3-25.1c0,0,16,27,52.1,17.9"/>
<path class="st3" d="M1175.9,876.9c-15.4-4.4-32.3-4.3-48.5,1.5c-41.7,14.7-63.5,60.4-48.8,102.1s60.4,63.5,102.1,48.8
	c41.7-14.7,63.5-60.4,48.8-102.1c-2.8-8-6.8-15.3-11.7-21.8"/>
<path class="st4" d="M1208.5,917.5c2.9,4.4,5.4,9.3,7.3,14.5c12,34.1-5.8,71.5-40,83.6c-34.1,12-71.5-5.8-83.6-40
	c-12-34.1,5.8-71.5,40-83.6c13.1-4.6,26.8-4.8,39.2-1.4"/>
<path class="st4" d="M1198.9,930.1c1.1,2.2,2.1,4.4,3,6.8c9.3,26.4-4.5,55.4-31,64.8c-26.4,9.3-55.4-4.5-64.8-31
	c-9.3-26.4,4.5-55.4,31-64.8c10-3.5,20.3-3.7,29.8-1.2"/>
<path class="st3" d="M1189.3,942.8c5.9,18.9-4.1,39.3-23,45.9c-19.3,6.8-40.4-3.3-47.2-22.6c-6.8-19.3,3.3-40.4,22.6-47.2
	c7-2.5,14.2-2.7,20.9-1.1"/>
<polygon class="st0" points="1172.7,944.4 1064.3,984.3 1048.8,887.5 1182.9,849.2 "/>
<path class="st3" d="M1171.4,890.7c-12.5-3.5-26.1-3.3-39.2,1.4c-34.1,12-52,49.5-40,83.6c12,34.1,49.5,52,83.6,40
	c34.1-12,52-49.5,40-83.6c-1.9-5.2-4.3-10.1-7.3-14.5"/>
<path class="st3" d="M1166.9,904.7c-9.5-2.5-19.8-2.3-29.8,1.2c-26.4,9.3-40.3,38.3-31,64.8c9.3,26.4,38.3,40.3,64.8,31
	c26.4-9.3,40.3-38.3,31-64.8c-0.8-2.4-1.8-4.6-3-6.8"/>
<path class="st0" d="M1185.6,962.4c0,0,0.1-5.4,4.2-5.3c4.1,0.1,3.4,3.4,3.4,6.2c0,2.9,2.5-8.2,2.5-8.2l-3.2-19.6l-11.2,3.8
	L1185.6,962.4z"/>
<path class="st0" d="M1200,944.8c0,0-1.2-5.3,2.8-6.1c4-0.9,4.1,2.5,4.8,5.3c0.7,2.8,0.5-8.5,0.5-8.5l-7.7-12.3l-9.1,5.8L1200,944.8
	z"/>
<path class="st0" d="M1210.8,929.7c0,0-2.1-5,1.7-6.5s4.4,1.7,5.6,4.3c1.2,2.6-1-8.5-1-8.5l-9.7-10.7l-7.9,7.3L1210.8,929.7z"/>
<path class="st0" d="M1219.8,915.5c0,0-2.7-4.9,1-6.9s4.7,1.3,6.3,3.8c1.5,2.6-2-8.6-2-8.6l-11.1-10l-7.4,8.3L1219.8,915.5z"/>
<path class="st2" d="M1124.2,967.6"/>
<path class="st10" d="M1065.2,882.8"/>
<path class="st10" d="M1184.8,1044.3"/>
<path class="st6" d="M1138.6,1024.9c14.2,3.1,29.5,2,43.9-4.2c36.9-15.8,54.1-58.5,38.3-95.5"/>
<path class="st6" d="M1142.1,1011c11.3,2.4,23.4,1.4,34.8-3.5c29.7-12.7,43.5-47,30.8-76.7"/>
<path class="st6" d="M1145.5,997.4c8.3,1.6,17.2,0.9,25.6-2.7c22.3-9.5,32.6-35.3,23.1-57.6"/>
<path class="st2" d="M1133.5,979.6c0,0-25.2-19.9,10.7-45.7c1.9-1.4,17-1.8,19.6-1.2c6.5,1.6,21.7,8.4,33.5-9.7
	c8.3-12.7,4.7-23.9,2.2-29.3c-4.4-9.7-28-18.5-38.6-19.7s-48.5-1.3-69.2,20.6c-7.9,8.3-14.2,17.8-16.2,28.8
	c-0.8,4.5,2.2,9.1,1.8,12.2c-0.6,5.9-4.9,14.7-5.8,20.8c-1.4,9-0.1,17.4,2.9,24.3c5,11.7,30.8,46.1,54.5,49
	c12.2,1.5,19.1,4,23.3,3.5c8.7-1.2,4.2-6.5-1.3-10.8c-4.1-3.2,3.1-4.1,3.1-4.1l0.3-2.3l1.6-0.4l0.6-14.7l-1.3-8
	C1129.4,990.9,1133.5,979.6,1133.5,979.6z"/>
<path class="st0" d="M1166.2,933.4c0,0-11.6-6.8-31.9-5.4s-27.2,21.5-27.8,27.6c0,0,10-27.7,37.8-21.7c27.8,6,18.8,8.5,18.8,8.5
	L1166.2,933.4z"/>
<path class="st0" d="M1156.7,1029.7c-26.7,0-37.2-23.4-38.4-30.5c0,0,15,31.4,51.1,22.2"/>
<path class="st0" d="M1156.7,1015.4c-26.7,0-37.2-24.1-38.4-31.2c0,0,15,31.4,51.1,22.2"/>
<path class="st0" d="M1156.5,1001.4c-26.7,0-37-23-38.3-30.1c0,0,15,31,51.1,21.9"/>
<rect x="1184.2" y="953.8" class="st0" width="11.5" height="10.1"/>
<rect x="1197.8" y="937.1" class="st0" width="11.5" height="10.1"/>
<rect x="1209" y="922.1" class="st0" width="11.5" height="10.1"/>
<rect x="1217" y="907.4" class="st0" width="15.6" height="10.1"/>
<path class="st0" d="M1486.8,892.8c0,0-18.2-8.8-35.9-3.1c-17.7,5.7-18.6,29.2-18.6,29.2l9.8-10.3c0,0-1.9-12.9,14.4-16.8
	c3.7-0.9,8.2-1.1,12.1-0.5c2.4,0.3,4.5,2.6,7.8,3.4C1480.8,895.8,1483.1,892.5,1486.8,892.8z"/>
<ellipse class="st0" cx="1740" cy="906.8" rx="111.5" ry="108.4"/>
<path class="st3" d="M1761.9,836.9c-15.4-4.4-32.3-4.3-48.5,1.5c-41.7,14.7-63.5,60.4-48.8,102.1s60.4,63.5,102.1,48.8
	c41.7-14.7,63.5-60.4,48.8-102.1c-2.8-8-6.8-15.3-11.7-21.8"/>
<path class="st4" d="M1794.5,877.5c2.9,4.4,5.4,9.3,7.3,14.5c12,34.1-5.8,71.5-40,83.6s-71.5-5.8-83.6-40c-12-34.1,5.8-71.5,40-83.6
	c13.1-4.6,26.8-4.8,39.2-1.4"/>
<path class="st4" d="M1784.9,890.1c1.1,2.2,2.1,4.4,3,6.8c9.3,26.4-4.5,55.4-31,64.8c-26.4,9.3-55.4-4.5-64.8-31
	c-9.3-26.4,4.5-55.4,31-64.8c10-3.5,20.3-3.7,29.8-1.2"/>
<path class="st3" d="M1775.3,902.8c5.9,18.9-4.1,39.3-23,45.9c-19.3,6.8-40.4-3.3-47.2-22.6c-6.8-19.3,3.3-40.4,22.6-47.2
	c7-2.5,14.2-2.7,20.9-1.1"/>
<polygon class="st0" points="1758.7,904.4 1650.3,944.3 1634.8,847.5 1768.9,809.2 "/>
<path class="st3" d="M1757.4,850.7c-12.5-3.5-26.1-3.3-39.2,1.4c-34.1,12-52,49.5-40,83.6c12,34.1,49.5,52,83.6,40s52-49.5,40-83.6
	c-1.9-5.2-4.3-10.1-7.3-14.5"/>
<path class="st3" d="M1752.9,864.7c-9.5-2.5-19.8-2.3-29.8,1.2c-26.4,9.3-40.3,38.3-31,64.8c9.3,26.4,38.3,40.3,64.8,31
	c26.4-9.3,40.3-38.3,31-64.8c-0.8-2.4-1.8-4.6-3-6.8"/>
<path class="st0" d="M1775.8,917.2"/>
<polyline class="st0" points="1783.7,915.2 1778.5,895.6 1767.3,899.4 1772.4,916.3 "/>
<path class="st0" d="M1785.8,904.8c0,0-1-5.3,3-6.1c4-0.9,4.4,2.5,5.1,5.3c0.7,2.8,0.1-8.6,0.1-8.6l-7.7-12.3l-9.1,5.8L1785.8,904.8
	z"/>
<path class="st0" d="M1796.5,889.7c0,0-1.8-5,2-6.5s4.6,1.7,5.8,4.3c1.2,2.6-1.2-8.5-1.2-8.5l-9.7-10.7l-7.9,7.3L1796.5,889.7z"/>
<path class="st0" d="M1805.5,875.5c0,0-2.5-4.9,1.3-6.9s4.7,1.3,6.3,3.8c1.5,2.6-2-8.6-2-8.6l-11.1-10l-7.4,8.3L1805.5,875.5z"/>
<path class="st2" d="M1710.2,927.6"/>
<path class="st10" d="M1651.2,842.8"/>
<rect x="1781" y="864.6" class="st0" width="49.7" height="54.2"/>
<path class="st10" d="M1770.8,1004.3"/>
<path class="st2" d="M1719.5,939.6c0,0-25.5-20.9,10.5-46.7c1.9-1.4,6.1-3.1,19.8-0.1c3.3,0.7,4.9,3,10.9,2.7
	c6.1-0.3,20.2-7.4,26.1-16.5c8.3-12.7,2.1-21.9-3.2-28c-6.9-8.1-26.1-15.6-36.8-16.8s-48.5-1.3-69.2,20.6
	c-7.9,8.3-12.5,14.1-14.5,25.1c-0.8,4.5,0.4,12.8,0.1,15.9c-0.9,9.1-5.4,17.9-6.4,24c-1.4,9,0.5,14.2,3.5,21.2
	c5,11.7,30.8,46.1,54.5,49c12.2,1.5,19.1,4,23.3,3.5c8.7-1.2,4.2-6.5-1.3-10.8c-4.1-3.2,3.1-4.1,3.1-4.1l0.3-2.3l1.6-0.4l0.6-14.7
	l-1.3-8C1715.4,950.9,1719.5,939.6,1719.5,939.6z"/>
<path class="st0" d="M1743.1,989.7c-26.7,0-45.6-17.4-46.8-24.5c0,0,23,25.4,59.1,16.2"/>
<path class="st0" d="M1742.7,975.2c-26.7,0-43.2-17.9-44.5-25c0,0,21,25.4,57.1,16.2"/>
<path class="st0" d="M1742.6,960.4c-26.7,0-38.1-18-39.3-25.1c0,0,16,27,52.1,17.9"/>
<path class="st0" d="M1718.9,895.6c2.4,0.3,17.2-1.7,20.5-0.9c4.4,1.1,6.7-2.2,10.4-1.9c0,0-14.2-8.8-31.9-3.1
	c-17.7,5.7-18.6,29.2-18.6,29.2l10.5-16.5"/>
<rect x="1815.8" y="869.4" class="st2" width="8" height="49.4"/>
<rect x="1801.3" y="885.1" class="st2" width="8" height="33.7"/>
<rect x="1786.5" y="900.1" class="st2" width="8" height="18.7"/>
<rect x="1772.9" y="913.5" class="st2" width="8" height="2.8"/>
<ellipse class="st0" cx="2013" cy="714.8" rx="111.5" ry="108.4"/>
<path class="st3" d="M2034.9,644.9c-15.4-4.4-32.3-4.3-48.5,1.5c-41.7,14.7-63.5,60.4-48.8,102.1s60.4,63.5,102.1,48.8
	c41.7-14.7,63.5-60.4,48.8-102.1c-2.8-8-6.8-15.3-11.7-21.8"/>
<path class="st4" d="M2067.5,685.5c2.9,4.4,5.4,9.3,7.3,14.5c12,34.1-5.8,71.5-40,83.6s-71.5-5.8-83.6-40c-12-34.1,5.8-71.5,40-83.6
	c13.1-4.6,26.8-4.8,39.2-1.4"/>
<path class="st4" d="M2057.9,698.1c1.1,2.2,2.1,4.4,3,6.8c9.3,26.4-4.5,55.4-31,64.8c-26.4,9.3-55.4-4.5-64.8-31
	c-9.3-26.4,4.5-55.4,31-64.8c10-3.5,20.3-3.7,29.8-1.2"/>
<path class="st3" d="M2048.3,710.8c5.9,18.9-4.1,39.3-23,45.9c-19.3,6.8-40.4-3.3-47.2-22.6c-6.8-19.3,3.3-40.4,22.6-47.2
	c7-2.5,14.2-2.7,20.9-1.1"/>
<polygon class="st0" points="2031.7,712.4 1923.3,752.3 1907.8,655.5 2041.9,617.2 "/>
<path class="st3" d="M2030.4,658.7c-12.5-3.5-26.1-3.3-39.2,1.4c-34.1,12-52,49.5-40,83.6c12,34.1,49.5,52,83.6,40s52-49.5,40-83.6
	c-1.9-5.2-4.3-10.1-7.3-14.5"/>
<path class="st3" d="M2025.9,672.7c-9.5-2.5-19.8-2.3-29.8,1.2c-26.4,9.3-40.3,38.3-31,64.8c9.3,26.4,38.3,40.3,64.8,31
	c26.4-9.3,40.3-38.3,31-64.8c-0.8-2.4-1.8-4.6-3-6.8"/>
<path class="st0" d="M2048.8,725.2"/>
<polyline class="st0" points="2056.7,723.2 2051.5,703.6 2040.3,707.4 2045.4,724.3 "/>
<path class="st0" d="M2058.8,712.8c0,0-1-5.3,3-6.1c4-0.9,4.4,2.5,5.1,5.3c0.7,2.8,0.1-8.6,0.1-8.6l-7.7-12.3l-9.1,5.8L2058.8,712.8
	z"/>
<path class="st0" d="M2069.5,697.7c0,0-1.8-5,2-6.5c3.8-1.5,4.6,1.7,5.8,4.3c1.2,2.6-1.2-8.5-1.2-8.5l-9.7-10.7l-7.9,7.3
	L2069.5,697.7z"/>
<path class="st0" d="M2078.5,683.5c0,0-2.5-4.9,1.3-6.9s4.7,1.3,6.3,3.8c1.5,2.6-2-8.6-2-8.6l-11.1-10l-7.4,8.3L2078.5,683.5z"/>
<path class="st2" d="M1983.2,735.6"/>
<path class="st10" d="M1924.2,650.8"/>
<rect x="2054" y="672.6" class="st0" width="49.7" height="54.2"/>
<path class="st10" d="M2043.8,812.3"/>
<path class="st2" d="M1992.5,747.6c0,0-23.3-18.3,2.6-37.6c1.9-1.4,7.9-6.7,20.1,0.3c6.3,3.6,16.6,0.5,24-2.3
	c6-2.3,11.5-9.5,17.4-18.5c8.3-12.7,2.5-25.8-2.8-31.9c-6.9-8.1-23.4-14.3-34-15.5s-48.5-1.3-69.2,20.6
	c-7.9,8.3-12.5,14.1-14.5,25.1c-0.8,4.5,0.4,12.8,0.1,15.9c-0.9,9.1-1.1,5.5-4.1,18.2c-2.1,8.9-3.7,19.6,4.1,36.4
	c5.3,11.5,27.9,36.6,51.6,39.5c12.2,1.5,19.1,4,23.3,3.5c8.7-1.2,4.2-6.5-1.3-10.8c-4.1-3.2,3.1-4.1,3.1-4.1l0.3-2.3l1.6-0.4
	l0.6-14.7l-1.3-8C1988.4,758.9,1992.5,747.6,1992.5,747.6z"/>
<path class="st0" d="M2016.1,797.7c-26.7,0-45.6-17.4-46.8-24.5c0,0,23,25.4,59.1,16.2"/>
<path class="st0" d="M2015.7,783.2c-26.7,0-43.2-17.9-44.5-25c0,0,21,25.4,57.1,16.2"/>
<path class="st0" d="M2015.6,768.4c-26.7,0-38.1-18-39.3-25.1c0,0,16,27,52.1,17.9"/>
<rect x="2088.8" y="667.1" class="st2" width="8" height="59.7"/>
<rect x="2074.3" y="684.8" class="st2" width="8" height="42.1"/>
<rect x="2059.5" y="702.8" class="st2" width="8" height="24.1"/>
<rect x="2045.9" y="721.5" class="st2" width="8" height="2.8"/>
<ellipse class="st0" cx="2013" cy="971.8" rx="111.5" ry="108.4"/>
<path class="st3" d="M2034.9,901.9c-15.4-4.4-32.3-4.3-48.5,1.5c-41.7,14.7-63.5,60.4-48.8,102.1c14.7,41.7,60.4,63.5,102.1,48.8
	c41.7-14.7,63.5-60.4,48.8-102.1c-2.8-8-6.8-15.3-11.7-21.8"/>
<path class="st4" d="M2067.5,942.5c2.9,4.4,5.4,9.3,7.3,14.5c12,34.1-5.8,71.5-40,83.6c-34.1,12-71.5-5.8-83.6-40
	c-12-34.1,5.8-71.5,40-83.6c13.1-4.6,26.8-4.8,39.2-1.4"/>
<path class="st4" d="M2057.9,955.1c1.1,2.2,2.1,4.4,3,6.8c9.3,26.4-4.5,55.4-31,64.8s-55.4-4.5-64.8-31c-9.3-26.4,4.5-55.4,31-64.8
	c10-3.5,20.3-3.7,29.8-1.2"/>
<path class="st3" d="M2048.3,967.8c5.9,18.9-4.1,39.3-23,45.9c-19.3,6.8-40.4-3.3-47.2-22.6c-6.8-19.3,3.3-40.4,22.6-47.2
	c7-2.5,14.2-2.7,20.9-1.1"/>
<polygon class="st0" points="2031.7,969.4 1923.3,1009.3 1907.8,912.5 2041.9,874.2 "/>
<path class="st3" d="M2030.4,915.7c-12.5-3.5-26.1-3.3-39.2,1.4c-34.1,12-52,49.5-40,83.6c12,34.1,49.5,52,83.6,40
	c34.1-12,52-49.5,40-83.6c-1.9-5.2-4.3-10.1-7.3-14.5"/>
<path class="st3" d="M2025.9,929.7c-9.5-2.5-19.8-2.3-29.8,1.2c-26.4,9.3-40.3,38.3-31,64.8c9.3,26.4,38.3,40.3,64.8,31
	s40.3-38.3,31-64.8c-0.8-2.4-1.8-4.6-3-6.8"/>
<path class="st0" d="M2048.8,982.2"/>
<polyline class="st0" points="2056.7,980.2 2051.5,960.6 2040.3,964.4 2045.4,981.3 "/>
<path class="st0" d="M2058.8,969.8c0,0-1-5.3,3-6.1c4-0.9,4.4,2.5,5.1,5.3c0.7,2.8,0.1-8.6,0.1-8.6l-7.7-12.3l-9.1,5.8L2058.8,969.8
	z"/>
<path class="st0" d="M2069.5,954.7c0,0-1.8-5,2-6.5c3.8-1.5,4.6,1.7,5.8,4.3c1.2,2.6-1.2-8.5-1.2-8.5l-9.7-10.7l-7.9,7.3
	L2069.5,954.7z"/>
<path class="st0" d="M2078.5,940.5c0,0-2.5-4.9,1.3-6.9s4.7,1.3,6.3,3.8c1.5,2.6-2-8.6-2-8.6l-11.1-10l-7.4,8.3L2078.5,940.5z"/>
<path class="st2" d="M1983.2,992.6"/>
<path class="st10" d="M1924.2,907.8"/>
<rect x="2054" y="929.6" class="st0" width="49.7" height="54.2"/>
<path class="st10" d="M2043.8,1069.3"/>
<path class="st2" d="M1992.5,1004.6c0,0-23.3-18.3,2.6-37.6c1.9-1.4,7.9-6.7,20.1,0.3c6.3,3.6,16.6,0.5,24-2.3
	c6-2.3,11.5-9.5,17.4-18.5c8.3-12.7,2.5-25.8-2.8-31.9c-6.9-8.1-23.4-14.3-34-15.5s-48.5-1.3-69.2,20.6
	c-7.9,8.3-12.5,14.1-14.5,25.1c-0.8,4.5,0.4,12.8,0.1,15.9c-0.9,9.1-5.4,17.9-6.4,24c-1.4,9,0.5,14.2,3.5,21.2
	c5,11.7,30.8,46.1,54.5,49c12.2,1.5,19.1,4,23.3,3.5c8.7-1.2,4.2-6.5-1.3-10.8c-4.1-3.2,3.1-4.1,3.1-4.1l0.3-2.3l1.6-0.4l0.6-14.7
	l-1.3-8C1988.4,1015.9,1992.5,1004.6,1992.5,1004.6z"/>
<path class="st0" d="M2016.1,1054.7c-26.7,0-45.6-17.4-46.8-24.5c0,0,23,25.4,59.1,16.2"/>
<path class="st0" d="M2015.7,1040.2c-26.7,0-43.2-17.9-44.5-25c0,0,21,25.4,57.1,16.2"/>
<path class="st0" d="M2015.6,1025.4c-26.7,0-38.1-18-39.3-25.1c0,0,16,27,52.1,17.9"/>
<rect x="2088.8" y="924.1" class="st2" width="8" height="59.7"/>
<rect x="2074.3" y="941.8" class="st2" width="8" height="42.1"/>
<rect x="2059.5" y="959.8" class="st2" width="8" height="24.1"/>
<rect x="2045.9" y="978.5" class="st2" width="8" height="2.8"/>
<polygon class="st2" points="1999.8,756.4 2048.8,795 1999.8,801.3 1965,783.2 1957.3,761.4 1972.7,738.4 1983.2,743.2 "/>
<text transform="matrix(1 0 0 1 1400.2421 812.8441)" class="st11 st12 st13">1</text>
<text transform="matrix(1 0 0 1 1729.2634 792.8441)" class="st11 st12 st13">2</text>
<text transform="matrix(1 0 0 1 1917.2634 606.7728)" class="st11 st12 st13">3</text>
<text transform="matrix(1 0 0 1 2082.3435 1094.7728)" class="st11 st12 st13">4</text>
<rect x="1415.5" y="503.8" class="st0" width="257.5" height="206"/>
</svg>
