<?xml version="1.0" encoding="utf-8"?>
<!-- Generator: Adobe Illustrator 19.0.1, SVG Export Plug-In . SVG Version: 6.00 Build 0)  -->
<svg version="1.1" id="Layer_1" xmlns="http://www.w3.org/2000/svg" xmlns:xlink="http://www.w3.org/1999/xlink" x="0px" y="0px"
	 viewBox="0 0 4733.1 5316.2" style="enable-background:new 0 0 4733.1 5316.2;" xml:space="preserve">
<style type="text/css">
	.st0{fill:#FF8282;}
	.st1{fill:none;stroke:#FFFFFF;stroke-width:2;stroke-miterlimit:10;}
	.st2{fill:none;}
	.st3{fill:#E6E6E6;}
	.st4{fill:none;stroke:#FF8282;stroke-width:3;stroke-miterlimit:10;}
	.st5{fill:none;stroke:#FF8CA0;stroke-miterlimit:10;}
	.st6{fill:#FFFFFF;}
	.st7{fill:#1A1A1A;}
	.st8{fill:none;stroke:#1A1A1A;stroke-linecap:round;stroke-miterlimit:10;}
	.st9{fill:#00242E;}
	.st10{font-family:'Gotham-Book';}
	.st11{font-size:50px;}
	.st12{letter-spacing:4;}
	.st13{fill:none;stroke:#00FFFF;stroke-width:3;stroke-miterlimit:10;}
	.st14{fill:none;stroke:#00FFFF;stroke-width:2;stroke-miterlimit:10;}
	.st15{fill:#FFFFFF;stroke:#29ABE2;stroke-width:3;stroke-miterlimit:10;}
	.st16{fill:#FFFFFF;stroke:#0071BC;stroke-width:3;stroke-miterlimit:10;}
</style>
<rect width="4733.1" height="5316.2"/>
<rect x="856" y="585.3" class="st0" width="35.8" height="17.5"/>
<rect x="900.7" y="567.8" class="st0" width="35.8" height="35.1"/>
<rect x="945.4" y="532.7" class="st0" width="35.8" height="70.2"/>
<rect x="990.2" y="480.2" class="st0" width="35.8" height="122.7"/>
<rect x="676.6" y="585.3" class="st0" width="35.8" height="17.5"/>
<rect x="721.4" y="567.8" class="st0" width="35.8" height="35.1"/>
<rect x="766.1" y="532.7" class="st0" width="35.8" height="70.2"/>
<rect x="810.8" y="480.2" class="st0" width="35.8" height="122.7"/>
<rect x="497.6" y="585.3" class="st0" width="35.8" height="17.5"/>
<rect x="542.4" y="567.8" class="st0" width="35.8" height="35.1"/>
<rect x="587.1" y="532.7" class="st0" width="35.8" height="70.2"/>
<rect x="631.8" y="480.2" class="st0" width="35.8" height="122.7"/>
<rect x="3995.4" y="158.4" width="35.8" height="17.5"/>
<rect x="4040.2" y="140.9" width="35.8" height="35.1"/>
<rect x="4084.9" y="105.8" width="35.8" height="70.2"/>
<rect x="4129.6" y="53.3" width="35.8" height="122.7"/>
<circle class="st1" cx="761.8" cy="602.9" r="264.1"/>
<circle class="st1" cx="761.8" cy="602.9" r="228.4"/>
<circle class="st1" cx="761.8" cy="602.9" r="219.4"/>
<circle class="st1" cx="761.8" cy="602.9" r="183.6"/>
<circle class="st1" cx="761.8" cy="602.9" r="174.7"/>
<circle class="st1" cx="761.8" cy="602.9" r="138.9"/>
<circle class="st1" cx="761.8" cy="602.9" r="129.9"/>
<circle class="st1" cx="761.8" cy="602.9" r="94.1"/>
<path class="st2" d="M1430.1,602.9c0,76.7,62.1,139,138.8,139s138.8-62.7,138.8-138.7h-8.9c0,71-58.2,129.8-129.9,129.8
	s-129.7-58.2-129.7-130c0-71.8,58.1-130,130.1-130V464C1492.2,464,1430.1,526.2,1430.1,602.9z"/>
<path class="st2" d="M1385.4,602.9c0,101.4,82.1,183.8,183.5,183.8c101.4,0,183.5-82.5,183.5-183.5h-8.9
	c0,96-78.2,174.5-174.7,174.5s-174.5-78.3-174.5-174.7c0-96.5,77.9-174.7,174.9-174.7v-8.9C1467.2,419.3,1385.4,501.5,1385.4,602.9z
	"/>
<path class="st2" d="M1340.7,602.9c0,126.1,102.1,228.5,228.3,228.5s228.3-102.2,228.3-228.2h-8.9c0,121-98.2,219.3-219.4,219.3
	s-219.2-98.3-219.2-219.5s97.6-219.5,219.6-219.5v-8.9C1443.2,374.5,1340.7,476.8,1340.7,602.9z"/>
<path class="st3" d="M1797.2,480.2v123l0,0c0,126-102.2,228.2-228.4,228.2S1340.2,729.1,1340.2,603s102-228.4,228-228.4v-35.8
	c-146,0-263.8,118.3-263.8,264.1s118.5,264.3,264.4,264.3s264.4-118,264.4-264v-123H1797.2z"/>
<path class="st3" d="M1752.2,533.2v70l0,0c0,102-82.1,183.5-183.5,183.5c-101.4,0-183.9-82.3-183.9-183.7s82.4-183.7,183.4-183.7
	v-35.8c-121,0-219.1,98.2-219.1,219.4s98.4,219.6,219.5,219.6s219.5-98.3,219.5-219.3v-70H1752.2z"/>
<path class="st3" d="M1743.2,603.2v-35h-35v35c0,77-62.4,138.7-139.1,138.7s-139.3-62.3-139.3-139s61.4-139,138.4-139v-35.8
	c-96,0-174.4,78.2-174.4,174.7c0,96.5,78.2,174.8,174.7,174.8S1743.2,700.2,1743.2,603.2L1743.2,603.2z"/>
<path class="st3" d="M1699.2,603.2v-18h-36v18c0,52-42.3,94-94.3,94s-94.5-42.2-94.5-94.2s41.8-94.2,93.8-94.2V473
	c-72,0-129.6,58.2-129.6,129.9c0,71.8,58.5,130.1,130.3,130.1S1699.2,675.2,1699.2,603.2L1699.2,603.2z"/>
<g>
	<rect x="1663.2" y="585.4" class="st0" width="35.8" height="17.5"/>
	<rect x="1707.9" y="567.9" class="st0" width="35.8" height="35.1"/>
	<rect x="1752.7" y="532.8" class="st0" width="35.8" height="70.2"/>
	<rect x="1797.4" y="480.3" class="st0" width="35.8" height="122.7"/>
</g>
<g>
	<rect x="1797.4" y="338.7" class="st0" width="35.8" height="17.5"/>
	<rect x="1752.7" y="338.7" class="st0" width="35.8" height="35.1"/>
	<rect x="1707.9" y="338.7" class="st0" width="35.8" height="70.2"/>
	<rect x="1663.2" y="338.7" class="st0" width="35.8" height="122.7"/>
</g>
<line class="st4" x1="1797.4" y1="480.3" x2="1242.2" y2="916.2"/>
<line class="st4" x1="1864.2" y1="332.2" x2="1242.2" y2="821.2"/>
<path class="st2" d="M2245.1,602.9c0,76.7,62.1,139,138.8,139s138.8-62.7,138.8-138.7h-8.9c0,71-58.2,129.8-129.9,129.8
	s-129.7-58.2-129.7-130c0-71.8,58.1-130,130.1-130V464C2307.2,464,2245.1,526.2,2245.1,602.9z"/>
<path class="st2" d="M2200.4,602.9c0,101.4,82.1,183.8,183.5,183.8c101.4,0,183.5-82.5,183.5-183.5h-8.9
	c0,96-78.2,174.5-174.7,174.5s-174.5-78.3-174.5-174.7c0-96.5,77.9-174.7,174.9-174.7v-8.9C2282.2,419.3,2200.4,501.5,2200.4,602.9z
	"/>
<path class="st2" d="M2155.7,602.9c0,126.1,102.1,228.5,228.3,228.5s228.3-102.2,228.3-228.2h-8.9c0,121-98.2,219.3-219.4,219.3
	s-219.2-98.3-219.2-219.5s97.6-219.5,219.6-219.5v-8.9C2258.2,374.5,2155.7,476.8,2155.7,602.9z"/>
<path class="st3" d="M2612.2,480.2v123l0,0c0,126-102.2,228.2-228.4,228.2S2155.2,729.1,2155.2,603s102-228.4,228-228.4v-35.8
	c-146,0-263.8,118.3-263.8,264.1s118.5,264.3,264.4,264.3s264.4-118,264.4-264v-123H2612.2z"/>
<path class="st3" d="M2567.2,533.2v70l0,0c0,102-82.1,183.5-183.5,183.5c-101.4,0-183.9-82.3-183.9-183.7s82.4-183.7,183.4-183.7
	v-35.8c-121,0-219.1,98.2-219.1,219.4s98.4,219.6,219.5,219.6s219.5-98.3,219.5-219.3v-70H2567.2z"/>
<path class="st3" d="M2558.2,603.2v-35h-35v35c0,77-62.4,138.7-139.1,138.7s-139.3-62.3-139.3-139s61.4-139,138.4-139v-35.8
	c-96,0-174.4,78.2-174.4,174.7c0,96.5,78.2,174.8,174.7,174.8S2558.2,700.2,2558.2,603.2L2558.2,603.2z"/>
<path class="st3" d="M2514.2,603.2v-18h-36v18c0,52-42.3,94-94.3,94s-94.5-42.2-94.5-94.2s41.8-94.2,93.8-94.2V473
	c-72,0-129.6,58.2-129.6,129.9c0,71.8,58.5,130.1,130.3,130.1S2514.2,675.2,2514.2,603.2L2514.2,603.2z"/>
<g>
	<rect x="2478.2" y="585.4" class="st0" width="35.8" height="17.5"/>
	<rect x="2522.9" y="567.9" class="st0" width="35.8" height="35.1"/>
	<rect x="2567.7" y="532.8" class="st0" width="35.8" height="70.2"/>
	<rect x="2612.4" y="480.3" class="st0" width="35.8" height="122.7"/>
</g>
<line class="st4" x1="2792.2" y1="338.7" x2="2056.2" y2="916.2"/>
<circle class="st5" cx="2383.5" cy="593.7" r="139.2"/>
<circle class="st5" cx="2383.5" cy="594.2" r="183.7"/>
<circle class="st5" cx="2383.5" cy="593.5" r="228.3"/>
<path class="st3" d="M3429.2,480.2v123l0,0c0,126-102.2,228.2-228.4,228.2S2972.2,729.1,2972.2,603s102-228.4,228-228.4v-35.8
	c-146,0-263.8,118.3-263.8,264.1s118.5,264.3,264.4,264.3s264.4-118,264.4-264v-123H3429.2z"/>
<path class="st3" d="M3384.2,533.2v70l0,0c0,102-82.1,183.5-183.5,183.5c-101.4,0-183.9-82.3-183.9-183.7s82.4-183.7,183.4-183.7
	v-35.8c-121,0-219.1,98.2-219.1,219.4s98.4,219.6,219.5,219.6s219.5-98.3,219.5-219.3v-70H3384.2z"/>
<path class="st3" d="M3375.2,603.2v-35h-35v35c0,77-62.4,138.7-139.1,138.7s-139.3-62.3-139.3-139s61.4-139,138.4-139v-35.8
	c-96,0-174.4,78.2-174.4,174.7c0,96.5,78.2,174.8,174.7,174.8S3375.2,700.2,3375.2,603.2L3375.2,603.2z"/>
<path class="st3" d="M3331.2,603.2v-18h-36v18c0,52-42.3,94-94.3,94s-94.5-42.2-94.5-94.2s41.8-94.2,93.8-94.2V473
	c-72,0-129.6,58.2-129.6,129.9c0,71.8,58.5,130.1,130.3,130.1S3331.2,675.2,3331.2,603.2L3331.2,603.2z"/>
<g>
	<path class="st2" d="M3099.4,699.8c7.4,7.4,15.7,14,24.7,19.6l0,0C3115.1,713.8,3106.8,707.2,3099.4,699.8z"/>
	<path class="st2" d="M3195.3,739.5c-26.1,0-50.5-7.4-71.3-20.2l0,0c20.7,12.8,45.2,20.3,71.4,20.3"/>
	<path class="st2" d="M3195.4,784.3c-40.6,0-78-13.4-108.2-36l-0.1,0.1c30.2,22.6,67.6,36.1,108.2,36.1"/>
	<path class="st3" d="M3051.2,776.3c39,32.6,89.3,52.4,144.1,52.4c124.2,0,224.9-99.5,224.9-224.5h-15l-13,95.9l-74.5,77.8
		l-101.5,37.4l-119.1-26.5l-45.9-31V776.3z"/>
	<path class="st3" d="M3086.2,748.1c30,22.6,68.1,36.2,108.7,36.2c99.7,0,180.3-80.1,180.3-180.1h-20l-10,77.9l-67.3,69.2
		l-115.1,8.3l-76.6-26.6V748.1z"/>
	<path class="st3" d="M3124.1,719.2c20.7,12.8,45.1,20.4,71.3,20.4c75,0,135.8-60.4,135.8-135.4h-12.9l-52.3,103.2l-67.3,12
		l-71.7-18.9L3124.1,719.2z"/>
</g>
<path class="st3" d="M2936.4,602.9c0-145.9,117.8-264.1,263.8-264.1v170c-52,0-93.8,42.2-93.8,94.2L2936.4,602.9z"/>
<path class="st3" d="M3161.8,688.8c-32.7-14.8-55.7-47.7-55.7-85.8l-170.1-0.1c0,77.3,33.4,146.9,86.4,195.2L3161.8,688.8z"/>
<line class="st4" x1="3607.2" y1="338.7" x2="2871.2" y2="916.2"/>
<rect x="3199.2" y="602.9" class="st4" width="31.5" height="31.5"/>
<rect x="3167.8" y="571.5" class="st4" width="31.5" height="31.5"/>
<g>
	<path class="st3" d="M3003.9,427l126.3,113.8c27.6-30.7,72-39.1,106.6-23.9c10.4,4.6,48.8-42.8,63.8-54.8s89.3-44.7,77.2-55.8
		C3265.3,303.7,3101.5,318.6,3003.9,427z"/>
</g>
<line class="st4" x1="3544.2" y1="275.7" x2="2808.2" y2="853.2"/>
<g>
	<rect x="2485.2" y="1392.2" class="st0" width="35.8" height="22.5"/>
	<rect x="2530" y="1369.8" class="st0" width="35.8" height="44.9"/>
	<rect x="2574.7" y="1324.9" class="st0" width="35.8" height="89.9"/>
	<rect x="2619.4" y="1257.7" class="st0" width="35.8" height="157.1"/>
</g>
<path class="st6" d="M2623.2,1291.2v123l0,0c0,126-109.2,228.2-235.4,228.2s-228.7-102.3-228.7-228.4s102-228.4,228-228.4v-35.8
	c-146,0-263.8,118.3-263.8,264.1s118.5,264.3,264.4,264.3s264.4-118,264.4-264v-123H2623.2z"/>
<path class="st6" d="M2577.2,1344.2v70l0,0c0,102-88.1,183.5-189.5,183.5c-101.4,0-183.9-82.3-183.9-183.7s82.4-183.7,183.4-183.7
	v-35.8c-121,0-219.1,98.2-219.1,219.4s98.4,217.6,219.5,217.6s218.5-96.3,218.5-217.3v-70H2577.2z"/>
<path class="st6" d="M2561.2,1414.2v-35h-28v35c0,77-68.4,138.7-145.1,138.7s-139.3-62.3-139.3-139s61.4-139,138.4-139v-35.8
	c-96,0-174.4,78.2-174.4,174.7c0,96.5,78.2,172.8,174.7,172.8S2561.2,1511.2,2561.2,1414.2L2561.2,1414.2z"/>
<path class="st6" d="M2517.2,1414.2v-18h-30v18c0,52-47.3,94-99.3,94s-94.5-42.2-94.5-94.2s41.8-94.2,93.8-94.2V1284
	c-72,0-129.6,58.2-129.6,129.9c0,71.8,58.5,128.1,130.3,128.1S2517.2,1486.2,2517.2,1414.2L2517.2,1414.2z"/>
<g>
	<path class="st2" d="M2286.4,1510.8c7.4,7.4,15.7,14,24.7,19.6l0,0C2302.1,1524.8,2293.8,1518.2,2286.4,1510.8z"/>
	<path class="st2" d="M2382.3,1550.5c-26.1,0-50.5-7.4-71.3-20.2l0,0c20.7,12.8,45.2,20.3,71.4,20.3"/>
	<path class="st2" d="M2382.4,1595.3c-40.6,0-78-13.4-108.2-36l-0.1,0.1c30.2,22.6,67.6,36.1,108.2,36.1"/>
	<path class="st6" d="M2239.2,1586.3c39,32.6,88.3,45.4,143.1,45.4c124.2,0,223.9-91.5,223.9-216.5h-12l-13,95.9l-76.5,77.8
		l-101.5,37.4l-119.1-26.5l-45.9-31L2239.2,1586.3z"/>
	<path class="st6" d="M2274.2,1557.1c30,22.6,67.1,30.2,107.7,30.2c99.7,0,179.3-72.1,179.3-172.1h-17l-10,77.9l-69.3,69.2
		l-115.1,8.3l-76.6-26.6L2274.2,1557.1z"/>
	<path class="st6" d="M2312.1,1529.2c20.7,12.8,44.1,13.4,70.3,13.4c75,0,133.8-52.4,133.8-127.4h-6.9l-52.3,103.2l-71.3,12
		l-71.7-18.9L2312.1,1529.2z"/>
</g>
<path class="st6" d="M2123.4,1413.9c0-145.9,117.8-264.1,263.8-264.1v170c-52,0-93.8,42.2-93.8,94.2L2123.4,1413.9z"/>
<path class="st6" d="M2348.8,1499.8c-32.7-14.8-55.7-47.7-55.7-85.8l-170.1-0.1c0,77.3,33.4,146.9,86.4,195.2L2348.8,1499.8z"/>
<g>
	<path class="st6" d="M2190.9,1238l125.3,113.8c27.6-30.7,73-39.1,107.6-23.9c10.4,4.6,37.8-39.3,64.4-59.3
		c25-18.8,88.7-40.2,76.5-51.3C2452.3,1114.7,2288.5,1129.6,2190.9,1238z"/>
</g>
<path class="st6" d="M3434.2,1269.2v143l0,0c0,126-109.2,228.2-235.4,228.2s-228.7-102.3-228.7-228.4s102-228.4,228-228.4v-35.8
	c-146,0-263.8,118.3-263.8,264.1s118.5,264.3,264.4,264.3s264.4-118,264.4-264v-143H3434.2z"/>
<path class="st6" d="M3388.2,1322.2v90l0,0c0,102-88.1,183.5-189.5,183.5c-101.4,0-183.9-82.3-183.9-183.7s82.4-183.7,183.4-183.7
	v-35.8c-121,0-219.1,98.2-219.1,219.4s98.4,217.6,219.5,217.6s218.5-96.3,218.5-217.3v-90H3388.2z"/>
<path class="st6" d="M3372.2,1412.2v-55h-28v55c0,77-68.4,138.7-145.1,138.7s-139.3-62.3-139.3-139s61.4-139,138.4-139v-35.8
	c-96,0-174.4,78.2-174.4,174.7c0,96.5,78.2,172.8,174.7,172.8S3372.2,1509.2,3372.2,1412.2L3372.2,1412.2z"/>
<path class="st6" d="M3328.2,1412.2v-38h-30v38c0,52-47.3,94-99.3,94s-94.5-42.2-94.5-94.2s41.8-94.2,93.8-94.2V1282
	c-72,0-129.6,58.2-129.6,129.9c0,71.8,58.5,128.1,130.3,128.1S3328.2,1484.2,3328.2,1412.2L3328.2,1412.2z"/>
<g>
	<path class="st2" d="M3097.4,1508.8c7.4,7.4,15.7,14,24.7,19.6l0,0C3113.1,1522.8,3104.8,1516.2,3097.4,1508.8z"/>
	<path class="st2" d="M3193.3,1548.5c-26.1,0-50.5-7.4-71.3-20.2l0,0c20.7,12.8,45.2,20.3,71.4,20.3"/>
	<path class="st2" d="M3193.4,1593.3c-40.6,0-78-13.4-108.2-36l-0.1,0.1c30.2,22.6,67.6,36.1,108.2,36.1"/>
	<path class="st6" d="M3050.2,1584.3c39,32.6,88.3,45.4,143.1,45.4c124.2,0,223.9-91.5,223.9-216.5h-12l-13,95.9l-76.5,77.8
		l-101.5,37.4l-119.1-26.5l-45.9-31L3050.2,1584.3z"/>
	<path class="st6" d="M3085.2,1555.1c30,22.6,67.1,30.2,107.7,30.2c99.7,0,179.3-72.1,179.3-172.1h-17l-10,77.9l-69.3,69.2
		l-115.1,8.3l-76.6-26.6L3085.2,1555.1z"/>
	<path class="st6" d="M3123.1,1527.2c20.7,12.8,44.1,13.4,70.3,13.4c75,0,133.8-52.4,133.8-127.4h-6.9l-52.3,103.2l-71.3,12
		l-71.7-18.9L3123.1,1527.2z"/>
</g>
<path class="st6" d="M2934.4,1411.9c0-145.9,117.8-264.1,263.8-264.1v170c-52,0-93.8,42.2-93.8,94.2L2934.4,1411.9z"/>
<path class="st6" d="M3159.8,1497.8c-32.7-14.8-55.7-47.7-55.7-85.8l-170.1-0.1c0,77.3,33.4,146.9,86.4,195.2L3159.8,1497.8z"/>
<g>
	<path class="st6" d="M3001.9,1236l125.3,113.8c27.6-30.7,73-39.1,107.6-23.9c10.4,4.6,37.8-39.3,64.4-59.3
		c25-18.8,88.7-40.2,76.5-51.3C3263.3,1112.7,3099.5,1127.6,3001.9,1236z"/>
</g>
<path class="st3" d="M985.2,1291.2v123l0,0c0,126-102.2,228.2-228.4,228.2S528.2,1540.1,528.2,1414s102-228.4,228-228.4v-35.8
	c-146,0-263.8,118.3-263.8,264.1s118.5,264.3,264.4,264.3s264.4-118,264.4-264v-123H985.2z"/>
<path class="st3" d="M940.2,1344.2v70l0,0c0,102-82.1,183.5-183.5,183.5c-101.4,0-183.9-82.3-183.9-183.7s82.4-183.7,183.4-183.7
	v-35.8c-121,0-219.1,98.2-219.1,219.4s98.4,219.6,219.5,219.6s219.5-98.3,219.5-219.3v-70H940.2z"/>
<path class="st3" d="M931.2,1414.2v-35h-35v35c0,77-62.4,138.7-139.1,138.7s-139.3-62.3-139.3-139s61.4-139,138.4-139v-35.8
	c-96,0-174.4,78.2-174.4,174.7c0,96.5,78.2,174.8,174.7,174.8S931.2,1511.2,931.2,1414.2L931.2,1414.2z"/>
<path class="st3" d="M887.2,1414.2v-18h-36v18c0,52-42.3,94-94.3,94s-94.5-42.2-94.5-94.2s41.8-94.2,93.8-94.2V1284
	c-72,0-129.6,58.2-129.6,129.9c0,71.8,58.5,130.1,130.3,130.1S887.2,1486.2,887.2,1414.2L887.2,1414.2z"/>
<g>
	<path class="st2" d="M655.4,1510.8c7.4,7.4,15.7,14,24.7,19.6l0,0C671.1,1524.8,662.8,1518.2,655.4,1510.8z"/>
	<path class="st2" d="M751.3,1550.5c-26.1,0-50.5-7.4-71.3-20.2l0,0c20.7,12.8,45.2,20.3,71.4,20.3"/>
	<path class="st2" d="M751.4,1595.3c-40.6,0-78-13.4-108.2-36l-0.1,0.1c30.2,22.6,67.6,36.1,108.2,36.1"/>
	<path class="st3" d="M607.2,1587.3c39,32.6,89.3,52.4,144.1,52.4c124.2,0,224.9-99.5,224.9-224.5h-15l-13,95.9l-74.5,77.8
		l-101.5,37.4l-119.1-26.5l-45.9-31V1587.3z"/>
	<path class="st3" d="M642.2,1559.1c30,22.6,68.1,36.2,108.7,36.2c99.7,0,180.3-80.1,180.3-180.1h-20l-10,77.9l-67.3,69.2
		l-115.1,8.3l-76.6-26.6V1559.1z"/>
	<path class="st3" d="M680.1,1530.2c20.7,12.8,45.1,20.4,71.3,20.4c75,0,135.8-60.4,135.8-135.4h-12.9l-52.3,103.2l-67.3,12
		l-71.7-18.9L680.1,1530.2z"/>
</g>
<path class="st3" d="M492.4,1413.9c0-145.9,117.8-264.1,263.8-264.1v170c-52,0-93.8,42.2-93.8,94.2L492.4,1413.9z"/>
<path class="st3" d="M717.8,1499.8c-32.7-14.8-55.7-47.7-55.7-85.8l-170.1-0.1c0,77.3,33.4,146.9,86.4,195.2L717.8,1499.8z"/>
<g>
	<path class="st3" d="M559.9,1238l125.3,113.8c27.6-30.7,73-39.1,107.6-23.9c10.4,4.6,37.8-39.3,64.4-59.3
		c25-18.8,88.7-40.2,76.5-51.3C821.3,1114.7,657.5,1129.6,559.9,1238z"/>
</g>
<g>
	<g>
		<path class="st6" d="M1569.3,1679.4c-39,0-77.8-8.9-114-26.6c-63.8-31.1-111.9-85.7-135.4-153.8c-23.5-68-19.7-141.4,10.8-206.5
			c30.5-65.1,84-114.2,150.7-138.2c52.1-18.8,107.6-20.5,160.6-5c6.7,2,10.6,9.1,8.7,15.9c-1.9,6.8-8.9,10.8-15.6,8.8
			c-48-14-98.2-12.4-145.3,4.6c-124.5,44.9-190.1,184.8-146.1,311.8c21.3,61.6,64.8,111,122.5,139.1c57.7,28.2,122.7,31.7,183.1,10
			c60.3-21.7,108.8-66.1,136.4-125c27.6-58.9,31.1-125.2,9.8-186.8c-8.3-24-20.1-46.4-35.2-66.6c-4.2-5.7-3.1-13.7,2.4-18
			c5.5-4.3,13.5-3.2,17.7,2.5c16.6,22.3,29.7,47.1,38.9,73.5c23.5,68,19.7,141.4-10.8,206.5c-30.5,65.1-84,114.2-150.7,138.2
			C1628.8,1674.3,1599,1679.4,1569.3,1679.4z"/>
	</g>
	<g>
		<path class="st6" d="M1569.3,1632.8c-32.3,0-64.4-7.4-94.3-22c-52.8-25.8-92.6-70.9-112.1-127.2
			c-40.2-116.2,19.7-244.1,133.6-285.2c42.5-15.3,87.9-16.9,131.2-4.7l-6.7,24.8c-38.4-10.8-78.5-9.4-116.1,4.1
			c-100.8,36.3-153.8,149.5-118.2,252.3c17.2,49.8,52.5,89.8,99.2,112.6c46.7,22.8,99.3,25.7,148.1,8.1
			c48.8-17.6,88-53.5,110.3-101.2c22.3-47.7,25.1-101.3,7.9-151.2c-5.4-15.5-12.6-30.3-21.5-43.9l21-14.3
			c10,15.4,18.2,32.1,24.3,49.6c19.5,56.3,16.3,117-8.9,170.8c-25.2,53.9-69.5,94.5-124.7,114.3
			C1618.5,1628.5,1593.9,1632.8,1569.3,1632.8z"/>
	</g>
	<g>
		<path class="st6" d="M1569.6,1585.2c-71.1,0-137.9-45.2-162.9-117.5c-31.7-91.6,15.5-192.3,105.3-224.7
			c32.8-11.8,67.8-13.3,101.2-4.3l-6.4,24.9c-28.6-7.7-58.5-6.4-86.4,3.7c-76.6,27.6-116.9,113.7-89.9,191.8
			c21.3,61.7,78.3,100.3,139.1,100.3c16.2,0,32.7-2.8,48.9-8.6c37.1-13.4,66.9-40.7,83.9-76.9c17-36.2,19.1-77,6-114.9
			c-2.4-6.8-5.3-13.6-8.6-20.1l22.3-12c3.9,7.6,7.3,15.5,10.1,23.5c31.7,91.6-15.5,192.3-105.3,224.7
			C1608,1582,1588.6,1585.2,1569.6,1585.2z"/>
	</g>
	<g>
		<path class="st6" d="M1569.4,1541.1c-19,0-38-4.3-55.6-13c-31.1-15.2-54.6-41.9-66.1-75.1c-23.7-68.6,11.6-144,78.8-168.2
			c23.6-8.5,48.9-9.8,73.1-3.9c6.8,1.7,10.9,8.6,9.3,15.5c-1.6,6.9-8.4,11.2-15.2,9.5c-19.5-4.8-39.9-3.7-58.8,3.1
			c-54.1,19.5-82.5,80.2-63.5,135.4c9.2,26.7,28.1,48.2,53.2,60.4c25.1,12.2,53.3,13.8,79.5,4.3c53.1-19.1,81.5-77,64.6-131.8
			c-2.1-6.8,1.6-14,8.3-16.1c6.6-2.1,13.7,1.6,15.8,8.4c20.9,68.1-14.3,140-80.3,163.8C1598.4,1538.5,1583.9,1541.1,1569.4,1541.1z"
			/>
	</g>
	<g>
		<polygon points="1628.3,1378.9 1286.7,1507.3 1238,1195.7 1660.6,1072.8 		"/>
	</g>
	<g>
		<path class="st6" d="M1569.3,1632.8c-32.3,0-64.4-7.4-94.3-22c-52.8-25.8-92.6-70.9-112.1-127.2
			c-40.2-116.2,19.7-244.1,133.6-285.2c42.5-15.3,87.9-16.9,131.2-4.7c6.7,1.9,10.6,9,8.8,15.8c-1.9,6.8-8.8,10.9-15.5,9
			c-38.4-10.8-78.5-9.4-116.1,4.1c-100.8,36.3-153.8,149.5-118.2,252.3c17.2,49.8,52.5,89.8,99.2,112.6
			c46.7,22.8,99.3,25.7,148.1,8.1c48.8-17.6,88-53.5,110.3-101.2c22.3-47.7,25.1-101.3,7.9-151.2c-5.4-15.5-12.6-30.3-21.5-43.9
			c-3.9-5.9-2.3-13.9,3.5-17.8c5.8-3.9,13.6-2.3,17.5,3.6c10,15.4,18.2,32.1,24.3,49.6c19.5,56.3,16.3,117-8.9,170.8
			c-25.2,53.9-69.5,94.5-124.7,114.3C1618.5,1628.5,1593.9,1632.8,1569.3,1632.8z"/>
	</g>
	<g>
		<path class="st6" d="M1569.6,1585.2c-71.1,0-137.9-45.2-162.9-117.5c-31.7-91.6,15.5-192.3,105.3-224.7
			c32.8-11.8,67.8-13.3,101.2-4.3c6.7,1.8,10.8,8.8,9,15.7c-1.8,6.9-8.7,11-15.4,9.2c-28.6-7.7-58.5-6.4-86.4,3.7
			c-76.6,27.6-116.9,113.7-89.9,191.8c27.1,78.2,111.4,119.3,188,91.7c37.1-13.4,66.9-40.7,83.9-76.9c17-36.2,19.1-77,6-114.9
			c-2.4-6.8-5.3-13.6-8.6-20.1c-3.2-6.3-0.9-14.1,5.3-17.4c6.2-3.3,13.8-0.9,17,5.4c3.9,7.6,7.3,15.5,10.1,23.5
			c31.7,91.6-15.5,192.3-105.3,224.7C1608,1582,1588.6,1585.2,1569.6,1585.2z"/>
	</g>
	<g>
		<path class="st7" d="M1682.2,1420"/>
	</g>
	<g>
		<polyline points="1707.1,1413.7 1690.8,1350.7 1655.6,1362.9 1671.5,1417.2 		"/>
	</g>
	<g>
		<path class="st7" d="M1713.9,1380.1c0,0-3.3-16.9,9.4-19.6c12.6-2.7,14,8,16.2,17c2.3,9,0.4-27.5,0.4-27.5l-24.1-39.6l-28.6,18.5
			L1713.9,1380.1z"/>
	</g>
	<g>
		<path class="st7" d="M1747.6,1331.5c0,0-5.7-15.9,6.2-20.9s14.6,5.4,18.4,13.8c3.8,8.4-3.9-27.2-3.9-27.2l-30.6-34.6l-24.9,23.4
			L1747.6,1331.5z"/>
	</g>
	<g>
		<path d="M1776,1285.8c0,0-7.7-15.7,4-22.1c11.8-6.4,15,4.1,19.7,12.4c4.8,8.2-6.2-27.7-6.2-27.7l-35-32.3l-23.2,26.7L1776,1285.8z
			"/>
	</g>
	<g>
		<path class="st6" d="M1475.4,1453.5"/>
	</g>
	<g>
		<path class="st8" d="M1289.4,1180.8"/>
	</g>
	<g>
		<rect x="1698.7" y="1251" width="156.5" height="174.4"/>
	</g>
	<g>
		<path class="st8" d="M1666.4,1700.1"/>
	</g>
	<g>
		<path class="st6" d="M1504.8,1492.1c0,0-80.2-67.3,33-150.2c6-4.4,19.2-9.9,62.5-0.5c10.4,2.3,15.3,9.6,34.5,8.5
			c19.2-1.1,63.7-23.9,82.3-52.9c26.3-41,6.6-70.4-10-90.1c-21.9-26.1-82.4-50.3-116-54.1c-33.6-3.8-152.9-4.3-218.1,66.2
			c-24.8,26.8-39.3,45.3-45.7,80.7c-2.6,14.5,1.2,41.1,0.3,51.1c-2.9,29.4-17.1,57.6-20.2,77.1c-4.9,31.8-2.4,45.7,8.5,74.2
			c27.6,72.5,99.7,142,174.2,151.4c38.5,4.8,60.1,13,73.6,11.1c27.6-3.9,13.2-20.9-4.2-34.7c-13-10.4,9.9-13.1,9.9-13.1l1.1-7.4
			l5.1-1.3l2-47.4l-4.2-25.7C1492,1528.3,1504.8,1492.1,1504.8,1492.1z"/>
	</g>
	<g>
		<path class="st7" d="M1579.1,1653.3c-84.3,0-143.6-55.9-147.6-78.8c0,0,72.6,81.7,186.1,52.2"/>
	</g>
	<g>
		<path class="st7" d="M1578,1606.7c-84.3,0-136.2-57.5-140.2-80.4c0,0,66.3,81.7,179.8,52.2"/>
	</g>
	<g>
		<path class="st7" d="M1577.6,1558.8c-84.3,0-120.1-57.9-124-80.8c0,0,50.6,86.9,164.1,57.4"/>
	</g>
	<g>
		<path class="st7" d="M1503,1350.7c7.6,1.1,54.3-5.6,64.5-3c13.9,3.5,21.3-7.1,32.9-6.3c0,0-44.8-28.2-100.6-9.9
			s-58.7,93.8-58.7,93.8l33.1-53.1"/>
	</g>
	<g>
		<rect x="1808.5" y="1266.4" class="st6" width="25.2" height="159"/>
	</g>
	<g>
		<rect x="1762.8" y="1316.9" class="st6" width="25.2" height="108.5"/>
	</g>
	<g>
		<rect x="1716" y="1365.1" class="st6" width="25.2" height="60.3"/>
	</g>
	<g>
		<rect x="1673.1" y="1408.1" class="st6" width="25.2" height="9.1"/>
	</g>
</g>
<path class="st6" d="M1330.4,1285.8c0,0-33.5,73.2-24.6,173.9l79.1-73.2L1330.4,1285.8z"/>
<g>
	<g>
		<path class="st6" d="M760.6,2479.4c-38.9,0-77.7-8.7-113.9-26c-63.7-30.5-111.8-83.9-135.3-150.5
			c-23.5-66.6-19.7-138.4,10.8-202.1c30.5-63.7,83.9-111.8,150.5-135.3c52-18.4,107.5-20.1,160.4-4.9c6.7,1.9,10.6,8.9,8.6,15.6
			c-1.9,6.7-8.9,10.5-15.6,8.6c-47.9-13.7-98.1-12.1-145.1,4.5c-124.4,43.9-189.8,180.8-145.9,305.2
			c21.3,60.3,64.7,108.6,122.4,136.2c57.7,27.6,122.6,31,182.8,9.8c60.3-21.3,108.6-64.7,136.2-122.4c27.6-57.6,31-122.6,9.8-182.8
			c-8.3-23.5-20.1-45.4-35.1-65.1c-4.2-5.5-3.1-13.4,2.4-17.6c5.5-4.2,13.4-3.1,17.6,2.4c16.6,21.8,29.6,46.1,38.8,72
			c23.5,66.6,19.7,138.4-10.8,202.1c-30.5,63.7-83.9,111.8-150.5,135.3C820,2474.3,790.2,2479.4,760.6,2479.4z"/>
	</g>
	<g>
		<path class="st6" d="M760.6,2433.7c-32.2,0-64.3-7.2-94.2-21.5c-52.7-25.2-92.5-69.4-111.9-124.5
			c-40.2-113.7,19.7-239,133.4-279.1c42.4-15,87.7-16.6,131-4.6l-6.7,24.3c-38.3-10.6-78.4-9.2-115.9,4
			c-100.7,35.5-153.6,146.3-118.1,247c17.2,48.8,52.4,87.9,99,110.2c46.6,22.3,99.2,25.1,147.9,7.9c48.8-17.2,87.9-52.4,110.2-99
			c22.3-46.6,25.1-99.2,7.9-147.9c-5.4-15.2-12.6-29.6-21.4-42.9l21-13.9c10,15.1,18.2,31.4,24.2,48.5
			c19.5,55.1,16.3,114.5-8.9,167.2s-69.4,92.5-124.5,111.9C809.8,2429.5,785.1,2433.7,760.6,2433.7z"/>
	</g>
	<g>
		<path class="st6" d="M760.9,2387.2c-71,0-137.7-44.3-162.7-115c-31.6-89.6,15.5-188.2,105.1-219.9c32.7-11.5,67.7-13,101.1-4.2
			l-6.4,24.4c-28.5-7.5-58.4-6.3-86.3,3.6c-76.5,27-116.8,111.2-89.8,187.7c21.3,60.4,78.2,98.2,138.9,98.2
			c16.2,0,32.7-2.7,48.9-8.4c37.1-13.1,66.8-39.8,83.8-75.3c17-35.5,19.1-75.4,6-112.5c-2.4-6.7-5.3-13.3-8.6-19.7l22.3-11.7
			c3.9,7.5,7.3,15.2,10.1,23c31.6,89.6-15.5,188.2-105.1,219.9C799.2,2384,779.9,2387.2,760.9,2387.2z"/>
	</g>
	<g>
		<path class="st6" d="M760.7,2344c-19,0-37.9-4.3-55.6-12.7c-31.1-14.9-54.5-41-66-73.5c-23.7-67.1,11.6-141,78.7-164.7
			c23.5-8.3,48.8-9.6,73-3.8c6.8,1.6,10.9,8.4,9.3,15.2c-1.6,6.8-8.4,10.9-15.2,9.3c-19.5-4.7-39.8-3.6-58.8,3.1
			c-54,19.1-82.4,78.5-63.4,132.5c9.2,26.2,28.1,47.2,53.1,59.1c25,12,53.2,13.5,79.4,4.2c53-18.7,81.3-75.4,64.5-129
			c-2.1-6.6,1.6-13.7,8.2-15.8c6.6-2.1,13.7,1.6,15.8,8.2c20.9,66.6-14.3,137-80.2,160.3C789.7,2341.5,775.1,2344,760.7,2344z"/>
	</g>
	<g>
		<polyline points="851.8,1885.6 819.5,2185.3 478.4,2310.9 429.7,2006 		"/>
	</g>
	<g>
		<path class="st6" d="M760.6,2433.7c-32.2,0-64.3-7.2-94.2-21.5c-52.7-25.2-92.5-69.4-111.9-124.5
			c-40.2-113.7,19.7-239,133.4-279.1c42.4-15,87.7-16.6,131-4.6c6.7,1.9,10.6,8.8,8.8,15.5c-1.9,6.7-8.8,10.6-15.5,8.8
			c-38.3-10.6-78.4-9.2-115.9,4c-100.7,35.5-153.6,146.3-118.1,247c17.2,48.8,52.4,87.9,99,110.2c46.6,22.3,99.2,25.1,147.9,7.9
			c48.8-17.2,87.9-52.4,110.2-99c22.3-46.6,25.1-99.2,7.9-147.9c-5.4-15.2-12.6-29.6-21.4-42.9c-3.9-5.8-2.3-13.6,3.5-17.5
			c5.8-3.9,13.6-2.3,17.5,3.5c10,15.1,18.2,31.4,24.2,48.5c19.5,55.1,16.3,114.5-8.9,167.2s-69.4,92.5-124.5,111.9
			C809.8,2429.5,785.1,2433.7,760.6,2433.7z"/>
	</g>
	<g>
		<path class="st6" d="M760.9,2387.2c-71,0-137.7-44.3-162.7-115c-31.6-89.6,15.5-188.2,105.1-219.9c32.7-11.5,67.7-13,101.1-4.2
			c6.7,1.8,10.7,8.7,9,15.4c-1.8,6.7-8.7,10.7-15.4,9c-28.5-7.5-58.4-6.3-86.3,3.6c-76.5,27-116.8,111.2-89.8,187.7
			c27,76.5,111.2,116.8,187.7,89.8c37.1-13.1,66.8-39.8,83.8-75.3c17-35.5,19.1-75.4,6-112.5c-2.4-6.7-5.3-13.3-8.6-19.7
			c-3.2-6.2-0.9-13.8,5.3-17c6.2-3.2,13.8-0.9,17,5.3c3.9,7.5,7.3,15.2,10.1,23c31.6,89.6-15.5,188.2-105.1,219.9
			C799.2,2384,779.9,2387.2,760.9,2387.2z"/>
	</g>
	<g>
		<path class="st7" d="M873.3,2225.4"/>
	</g>
	<g>
		<polyline points="898.2,2219.3 881.9,2157.7 846.8,2169.6 862.6,2222.7 		"/>
	</g>
	<g>
		<path class="st7" d="M905.1,2186.5c0,0-3.3-16.5,9.4-19.2s13.9,7.9,16.2,16.6c2.3,8.8,0.4-27,0.4-27l-24.1-38.7l-28.6,18.1
			L905.1,2186.5z"/>
	</g>
	<g>
		<path class="st7" d="M938.7,2138.9c0,0-5.7-15.6,6.2-20.5s14.6,5.3,18.4,13.5c3.8,8.2-3.9-26.6-3.9-26.6l-30.6-33.8l-24.9,22.9
			L938.7,2138.9z"/>
	</g>
	<g>
		<path d="M967,2094.1c0,0-7.7-15.3,4-21.6c11.8-6.3,14.9,4.1,19.7,12.1c4.8,8.1-6.2-27.1-6.2-27.1l-35-31.6l-23.2,26.2L967,2094.1z
			"/>
	</g>
	<g>
		<path class="st6" d="M666.8,2258.3"/>
	</g>
	<g>
		<path class="st8" d="M481.1,1991.3"/>
	</g>
	<g>
		<rect x="889.8" y="2060" width="156.3" height="170.7"/>
	</g>
	<g>
		<path class="st8" d="M857.5,2499.6"/>
	</g>
	<g>
		<path class="st6" d="M696.2,2296c0,0-80.1-65.8,32.9-147c6-4.3,19.2-9.7,62.4-0.5c10.4,2.2,15.3,9.4,34.4,8.4s63.6-23.4,82.2-51.8
			c26.2-40.1,6.6-68.9-9.9-88.2c-21.9-25.5-82.3-49.2-115.9-53c-33.6-3.7-152.7-4.2-217.8,64.8c-24.7,26.2-39.3,44.4-45.6,79
			c-2.6,14.2,1.2,40.2,0.3,50c-2.9,28.8-17.1,56.3-20.1,75.4c-4.9,31.2-2.3,44.7,8.5,72.7c27.6,71,99.5,139,174,148.1
			c38.5,4.7,60,12.7,73.5,10.9c27.5-3.8,13.2-20.4-4.2-34c-12.9-10.1,9.9-12.8,9.9-12.8l1.1-7.2l5.1-1.3l2-46.4l-4.2-25.2
			C683.4,2331.5,696.2,2296,696.2,2296z"/>
	</g>
	<g>
		<path class="st7" d="M770.4,2453.8c-84.2,0-143.4-54.7-147.4-77.1c0,0,72.5,79.9,185.9,51.1"/>
	</g>
	<g>
		<path class="st7" d="M769.3,2408.2c-84.2,0-136-56.3-140-78.7c0,0,66.2,79.9,179.6,51.1"/>
	</g>
	<g>
		<path class="st7" d="M768.9,2361.3c-84.2,0-119.9-56.7-123.8-79c0,0,50.5,85.1,163.8,56.2"/>
	</g>
	<g>
		<path class="st7" d="M694.4,2157.7c7.6,1.1,54.2-5.5,64.4-3c13.9,3.4,21.2-7,32.8-6.1c0,0-44.7-27.6-100.5-9.7
			c-55.7,17.9-58.6,91.9-58.6,91.9l33.1-51.9"/>
	</g>
	<g>
		<rect x="999.5" y="2075.1" class="st6" width="25.2" height="155.6"/>
	</g>
	<g>
		<rect x="953.8" y="2124.6" class="st6" width="25.2" height="106.2"/>
	</g>
	<g>
		<rect x="907.1" y="2171.7" class="st6" width="25.2" height="59"/>
	</g>
	<g>
		<rect x="864.3" y="2213.8" class="st6" width="25.2" height="8.9"/>
	</g>
</g>
<path class="st6" d="M522,2094.1c0,0-33.5,71.6-24.5,170.2l79-71.7L522,2094.1z"/>
<g>
	<g>
		<path class="st6" d="M760.4,4890.6c-39.1,0-78-8.7-114.4-26.1c-64-30.6-112.3-84.3-135.9-151.2s-19.8-139,10.8-203
			c30.6-64,84.3-112.3,151.2-135.9c52.2-18.4,107.9-20.1,161.1-5c6.7,1.9,10.6,8.9,8.7,15.6c-1.9,6.7-8.9,10.6-15.6,8.7
			c-48.1-13.8-98.5-12.2-145.8,4.5C555.6,4442.4,489.9,4580,534,4704.9c21.4,60.5,65,109.1,122.9,136.8
			c57.9,27.7,123.1,31.2,183.7,9.8c60.5-21.4,109.1-65,136.8-122.9c27.7-57.9,31.2-123.1,9.8-183.7c-8.3-23.6-20.2-45.6-35.3-65.4
			c-4.2-5.6-3.1-13.5,2.4-17.7c5.6-4.2,13.5-3.1,17.7,2.4c16.7,21.9,29.8,46.3,39,72.3c23.6,66.9,19.8,139-10.8,203
			c-30.6,64-84.3,112.3-151.2,135.9C820.1,4885.6,790.2,4890.6,760.4,4890.6z"/>
	</g>
	<g>
		<path class="st6" d="M760.4,4844.8c-32.4,0-64.6-7.2-94.6-21.6c-53-25.3-92.9-69.7-112.4-125.1c-40.3-114.3,19.8-240,134.1-280.4
			c42.6-15,88.1-16.6,131.6-4.6l-6.8,24.4c-38.5-10.7-78.8-9.3-116.5,4.1c-101.1,35.7-154.3,147-118.6,248.1
			c17.3,49,52.6,88.3,99.5,110.7c46.9,22.4,99.6,25.2,148.6,7.9c49-17.3,88.3-52.6,110.7-99.5c22.4-46.9,25.2-99.6,7.9-148.6
			c-5.4-15.2-12.6-29.7-21.5-43.1l21.1-14c10.1,15.1,18.3,31.5,24.3,48.7c19.5,55.4,16.4,115-9,168c-25.3,53-69.7,92.9-125.1,112.4
			C809.8,4840.6,785.1,4844.8,760.4,4844.8z"/>
	</g>
	<g>
		<path class="st6" d="M760.8,4798c-71.4,0-138.3-44.5-163.4-115.5c-31.8-90,15.6-189.1,105.6-220.9c32.9-11.6,68-13.1,101.6-4.2
			l-6.4,24.5c-28.7-7.5-58.6-6.3-86.7,3.6c-76.9,27.1-117.3,111.7-90.2,188.6c21.4,60.6,78.6,98.6,139.5,98.6
			c16.3,0,32.9-2.7,49.1-8.4c37.2-13.1,67.1-40,84.2-75.6c17-35.6,19.2-75.7,6-113c-2.4-6.7-5.3-13.3-8.6-19.8l22.4-11.8
			c3.9,7.5,7.3,15.3,10.1,23.1c31.8,90-15.6,189.1-105.6,220.9C799.2,4794.8,779.8,4798,760.8,4798z"/>
	</g>
	<g>
		<path class="st6" d="M760.5,4754.6c-19.1,0-38.1-4.3-55.8-12.7c-31.2-14.9-54.8-41.1-66.3-73.8c-23.8-67.4,11.7-141.6,79.1-165.4
			c23.7-8.4,49-9.7,73.4-3.8c6.8,1.6,11,8.5,9.3,15.3c-1.6,6.8-8.5,11-15.3,9.3c-19.6-4.7-40-3.7-59,3.1
			c-54.3,19.2-82.8,78.9-63.7,133.1c9.3,26.3,28.2,47.4,53.4,59.4c25.1,12,53.5,13.5,79.7,4.3c53.3-18.8,81.7-75.7,64.8-129.6
			c-2.1-6.7,1.6-13.8,8.3-15.9c6.7-2.1,13.8,1.6,15.9,8.3c21,66.9-14.4,137.6-80.5,161C789.6,4752.1,775,4754.6,760.5,4754.6z"/>
	</g>
	<g>
		<polygon points="819.6,4595.2 476.9,4721.5 428,4415.1 852,4294.2 		"/>
	</g>
	<g>
		<path class="st6" d="M760.4,4844.8c-32.4,0-64.6-7.2-94.6-21.6c-53-25.3-92.9-69.7-112.4-125.1c-40.3-114.3,19.8-240,134.1-280.4
			c42.6-15,88.1-16.6,131.6-4.6c6.7,1.9,10.7,8.8,8.8,15.6c-1.9,6.7-8.8,10.7-15.6,8.8c-38.5-10.7-78.8-9.3-116.5,4.1
			c-101.1,35.7-154.3,147-118.6,248.1c17.3,49,52.6,88.3,99.5,110.7c46.9,22.4,99.6,25.2,148.6,7.9c49-17.3,88.3-52.6,110.7-99.5
			c22.4-46.9,25.2-99.6,7.9-148.6c-5.4-15.2-12.6-29.7-21.5-43.1c-3.9-5.8-2.3-13.7,3.5-17.5c5.8-3.9,13.7-2.3,17.5,3.5
			c10.1,15.1,18.3,31.5,24.3,48.7c19.5,55.4,16.4,115-9,168c-25.3,53-69.7,92.9-125.1,112.4C809.8,4840.6,785.1,4844.8,760.4,4844.8
			z"/>
	</g>
	<g>
		<path class="st6" d="M760.8,4798c-71.4,0-138.3-44.5-163.4-115.5c-31.8-90,15.6-189.1,105.6-220.9c32.9-11.6,68-13.1,101.6-4.2
			c6.8,1.8,10.8,8.7,9,15.5c-1.8,6.8-8.7,10.8-15.5,9c-28.7-7.5-58.6-6.3-86.7,3.6c-76.9,27.1-117.3,111.7-90.2,188.6
			c27.1,76.9,111.8,117.3,188.6,90.2c37.2-13.1,67.1-40,84.2-75.6c17-35.6,19.2-75.7,6-113c-2.4-6.7-5.3-13.3-8.6-19.8
			c-3.3-6.2-0.9-13.8,5.3-17.1c6.2-3.3,13.8-0.9,17.1,5.3c3.9,7.5,7.3,15.3,10.1,23.1c31.8,90-15.6,189.1-105.6,220.9
			C799.2,4794.8,779.8,4798,760.8,4798z"/>
	</g>
	<g>
		<path class="st7" d="M873.7,4635.6"/>
	</g>
	<g>
		<polyline class="st7" points="898.7,4629.4 882.3,4567.5 847,4579.5 862.9,4632.8 		"/>
	</g>
	<g>
		<path class="st7" d="M905.5,4596.4c0,0-3.3-16.6,9.4-19.3c12.7-2.7,14,7.9,16.3,16.7c2.3,8.8,0.4-27.1,0.4-27.1l-24.2-38.9
			l-28.7,18.2L905.5,4596.4z"/>
	</g>
	<g>
		<path class="st7" d="M939.3,4548.6c0,0-5.7-15.7,6.3-20.6c12-4.9,14.6,5.3,18.4,13.6c3.8,8.3-3.9-26.7-3.9-26.7l-30.7-34l-25,23
			L939.3,4548.6z"/>
	</g>
	<g>
		<path class="st7" d="M967.8,4503.6c0,0-7.8-15.4,4-21.7c11.8-6.3,15,4.1,19.8,12.2s-6.2-27.2-6.2-27.2l-35.1-31.7l-23.3,26.3
			L967.8,4503.6z"/>
	</g>
	<g>
		<path class="st6" d="M666.2,4668.5"/>
	</g>
	<g>
		<path class="st8" d="M479.6,4400.4"/>
	</g>
	<g>
		<rect x="890.2" y="4469.4" width="157" height="171.5"/>
	</g>
	<g>
		<path class="st8" d="M857.8,4910.9"/>
	</g>
	<g>
		<path class="st6" d="M695.8,4706.5c0,0-80.5-66.1,33.1-147.7c6-4.3,19.3-9.7,62.7-0.5c10.4,2.2,15.3,9.5,34.6,8.4
			c19.2-1.1,63.9-23.5,82.5-52c26.4-40.3,6.6-69.2-10-88.6c-21.9-25.6-82.6-49.5-116.4-53.2s-153.4-4.3-218.8,65.1
			c-24.8,26.3-39.5,44.6-45.8,79.3c-2.6,14.3,1.2,40.4,0.3,50.2c-2.9,28.9-17.2,56.6-20.2,75.8c-4.9,31.3-2.4,44.9,8.6,73
			c27.7,71.3,100,139.7,174.8,148.8c38.7,4.7,60.3,12.8,73.8,10.9c27.6-3.8,13.2-20.5-4.2-34.1c-13-10.2,9.9-12.9,9.9-12.9l1.1-7.2
			l5.1-1.3l2-46.6l-4.2-25.3C682.8,4742.1,695.8,4706.5,695.8,4706.5z"/>
	</g>
	<g>
		<path class="st7" d="M770.2,4865c-84.6,0-144.1-55-148.1-77.4c0,0,72.9,80.3,186.7,51.3"/>
	</g>
	<g>
		<path class="st7" d="M769.1,4819.1c-84.6,0-136.7-56.6-140.6-79c0,0,66.5,80.3,180.4,51.3"/>
	</g>
	<g>
		<path class="st7" d="M768.7,4772.1c-84.6,0-120.5-57-124.4-79.4c0,0,50.7,85.5,164.6,56.5"/>
	</g>
	<g>
		<path class="st7" d="M693.9,4567.5c7.6,1.1,54.5-5.5,64.7-3c13.9,3.4,21.3-7,33-6.2c0,0-44.9-27.7-100.9-9.8
			c-56,18-58.9,92.3-58.9,92.3l33.2-52.2"/>
	</g>
	<g>
		<rect x="1000.4" y="4484.6" class="st6" width="25.3" height="156.3"/>
	</g>
	<g>
		<rect x="954.5" y="4534.2" class="st6" width="25.3" height="106.6"/>
	</g>
	<g>
		<rect x="907.6" y="4581.6" class="st6" width="25.3" height="59.3"/>
	</g>
	<g>
		<rect x="864.6" y="4623.9" class="st6" width="25.3" height="8.9"/>
	</g>
</g>
<g>
	<g>
		<path class="st6" d="M1823.8,2140.1c23.6,66.8,19.7,138.8-10.8,202.7c-30.6,63.9-84.2,112.1-151,135.7
			c-28.9,10.2-58.7,15.3-88.5,15.3c-39.1,0-77.6-9.4-114.2-26.1c-67.6-30.7-112.1-84.2-135.7-151c-23.6-66.8-19.7-138.8,10.8-202.7
			c30.6-63.9,84.2-112.1,151-135.7c52.1-18.4,107.8-20.1,160.9-4.9c6.7,1.9,10.6,8.9,8.7,15.6c-1.9,6.7-8.9,10.6-15.6,8.7
			c-48.1-13.7-98.4-12.2-145.6,4.5c-124.8,44-190.4,181.4-146.4,306.2c21.3,60.4,64.9,109,122.8,136.6c54.4,26,126.4,27.8,183.4,7.7
			c60.4-21.3,107.9-62.8,135.5-120.6c26-54.4,29.9-126.4,9.8-183.4"/>
	</g>
	<g>
		<path class="st6" d="M1780.6,2155.4c21.9,62.1,19.6,110.1-8.9,169.8c-25.3,52.9-68.6,91.7-123.9,111.2
			c-23.9,8.4-49.7,13.7-74.3,13.7c-32.3,0-64.5-9.4-94.5-23.7c-52.9-25.3-92.7-69.6-112.3-124.9c-40.3-114.1,19.8-239.7,133.9-280
			c42.5-15,88-16.6,131.4-4.6l-6.7,24.3c-38.4-10.6-78.6-9.2-116.3,4c-101,35.6-154.1,146.8-118.5,247.7
			c17.3,48.9,52.5,88.2,99.3,110.5c46.8,22.4,99.2,24.8,148.4,7.9c49.1-16.8,88.2-52.5,110.5-99.3c22.4-46.8,25.2-99.5,7.9-148.4"/>
	</g>
	<g>
		<path class="st6" d="M1573.8,2403.4c-71.3,0-138.1-46.5-163.2-117.5c-31.7-89.9,15.6-188.8,105.5-220.6
			c32.8-11.6,67.9-13,101.4-4.2l-6.4,24.4c-28.6-7.5-58.6-6.3-86.6,3.6c-76.8,27.1-117.1,111.6-90,188.3
			c21.4,60.6,78.5,98.5,139.3,98.5c16.3,0,32.8-2.7,49-8.4c37.2-13.1,67-39.9,84-75.5c17-35.6,19.1-75.6,6-112.8
			c-2.4-6.7-5.3-13.3-8.6-19.7l22.4-11.8c3.9,7.5,7.3,15.3,10.1,23.1c33,93.4-5.5,187.4-105.4,222.7
			C1612.3,2400.2,1592.9,2403.4,1573.8,2403.4z"/>
	</g>
	<g>
		<path class="st6" d="M1573.6,2360.1c-19.1,0-38-6.4-55.7-14.9c-31.2-14.9-54.7-41.1-66.2-73.7c-23.8-67.3,11.7-141.4,79-165.2
			c23.6-8.3,48.9-9.7,73.3-3.8c6.8,1.6,11,8.5,9.3,15.2c-1.6,6.8-8.5,11-15.2,9.3c-19.6-4.7-39.9-3.6-58.9,3.1
			c-54.2,19.1-82.7,78.8-63.6,132.9c9.3,26.2,28.2,47.3,53.3,59.3c25.1,12,53.4,13.5,79.6,4.2c53.2-18.8,81.6-75.6,64.7-129.4
			c-2.1-6.7,1.6-13.7,8.3-15.8c6.7-2.1,15.9,1.6,18,8.3c21,66.8-16.5,139.6-82.5,162.9C1602.7,2357.6,1588.1,2360.1,1573.6,2360.1z"
			/>
	</g>
	<g>
		<polygon points="1632.6,2198.8 1290.4,2324.8 1241.6,2018.9 1665,1898.2 		"/>
	</g>
	<g>
		<path class="st6" d="M1573.8,2403.4c-71.3,0-138.1-46.5-163.2-117.5c-31.7-89.9,15.6-188.8,105.5-220.6
			c32.8-11.6,67.9-13,101.4-4.2c6.7,1.8,10.8,8.7,9,15.4c-1.8,6.7-8.7,10.8-15.4,9c-28.6-7.5-58.6-6.3-86.6,3.6
			c-76.8,27.1-117.1,111.6-90,188.3c27.1,76.8,111.4,116,188.3,90c37.4-12.6,67-39.9,84-75.5c17-35.6,19.1-75.6,6-112.8
			c-2.4-6.7-5.3-13.3-8.6-19.7c-3.2-6.2-0.9-13.8,5.3-17.1c6.2-3.2,13.8-0.9,17.1,5.3c3.9,7.5,7.3,15.3,10.1,23.1
			c33,93.4-5.5,187.4-105.4,222.7C1612.3,2400.2,1592.9,2403.4,1573.8,2403.4z"/>
	</g>
	<g>
		<path class="st7" d="M1686.6,2239.1"/>
	</g>
	<g>
		<polyline points="1713.7,2232.9 1697.3,2171.1 1660,2183 1675.9,2236.3 		"/>
	</g>
	<g>
		<path class="st9" d="M1718.4,2199.9c0,0-3.3-16.6,9.4-19.3c18-3.8,14.3,9,16.3,16.7c2.3,8.8,2.5-27,2.5-27l-26.3-38.8l-28.6,18.2
			L1718.4,2199.9z"/>
	</g>
	<g>
		<path class="st7" d="M1717.3,2107.6"/>
		<path class="st7" d="M1776.8,2145.2"/>
		<path class="st7" d="M1752.1,2152.2"/>
	</g>
	<g>
		<path class="st6" d="M1479.5,2272"/>
	</g>
	<g>
		<path class="st8" d="M1293.1,2004.2"/>
	</g>
	<g>
		<rect x="1703.1" y="2073.1" width="156.8" height="171.2"/>
	</g>
	<g>
		<path class="st8" d="M1670.7,2514"/>
	</g>
	<g>
		<path class="st6" d="M1508.9,2309.9c0,0-80.4-66,33-147.4c6-4.3,19.3-9.7,62.6-0.5c10.4,2.2,15.3,9.4,34.5,8.4
			c19.2-1.1,63.8-23.5,82.4-51.9c26.3-40.2,6.6-69.1-10-88.5c-21.9-25.6-77.2-65.2-110.9-68.9c-33.7-3.8-137-5.4-221.7,80.7
			c-25.5,25.9-49.7,63.7-47.9,79.2c1.7,14.4,1.2,40.3,0.3,50.1c-2.9,28.9-17.2,56.5-20.2,75.6c-4.9,31.3,2.3,45.9,12.1,74.3
			c26.2,75.9,96.3,138,171,147.2c38.6,4.7,60.2,11.7,73.7,9.8c27.6-3.8,13.2-17.3-4.2-30.9c-13-10.2,9.9-12.9,9.9-12.9l1.1-9.4
			l5.1,0.8l2-46.5l-4.2-25.3C1496,2347.6,1508.9,2309.9,1508.9,2309.9z"/>
	</g>
	<g>
		<path class="st9" d="M1583.3,2466c-84.4,0-143.9-52.8-147.8-75.2c0,0,72.8,82.3,186.4,53.4"/>
	</g>
	<g>
		<path class="st9" d="M1582.2,2422.3c-84.4,0-136.5-56.5-140.4-78.9c0,0,66.4,82.3,180.1,53.4"/>
	</g>
	<g>
		<path class="st9" d="M1581.8,2375.4c-84.4,0-120.3-56.9-124.2-79.3c0,0,50,86.9,163.7,58"/>
	</g>
	<g>
		<rect x="1811" y="2088.3" class="st6" width="27.4" height="156.1"/>
	</g>
	<g>
		<rect x="1767.3" y="2137.9" class="st6" width="27.4" height="106.5"/>
	</g>
	<g>
		<rect x="1720.5" y="2185.1" class="st6" width="27.4" height="59.2"/>
	</g>
	<g>
		<polygon class="st6" points="1677.5,2227.4 1704.9,2227.4 1704.1,2244.3 1677.5,2247.2 		"/>
	</g>
</g>
<path class="st6" d="M1340.6,2092.3c0,0-54,85.8-28.1,195.1l76.3-81.2L1340.6,2092.3z"/>
<path class="st6" d="M1704.1,2244.3c0,0-11.2,130.5-160.9,126.6l-42.4,2.9l-50.6-77.8l7.4-6.3l26.3,19.9l38.1,19.1l37.5,10.3
	l34.4,0.4l47.1-5.7l56.7-84.4L1704.1,2244.3z"/>
<path class="st6" d="M1747.7,2244.2c0,0-13.3,202-238.9,162.7l-74.2-20.6v-53.9l58.2,36.2l104.4,22.3l84.6-28.1l52.3-84
	L1747.7,2244.2z"/>
<path class="st6" d="M1741.9,2371.6c0,0-100.1,131.4-261.5,66s-42.2-54.7-42.2-54.7l54.3,42l101.3,13.3l97.8-30.9L1741.9,2371.6z"/>
<g>
	<g>
		<path class="st6" d="M2633.9,2137.1c23.3,66,19.5,137.2-10.7,200.4c-30.2,63.2-83.2,110.8-149.2,134.1
			c-28.6,10.1-58.1,15.1-87.5,15.1c-38.6,0-76.7-9.3-112.9-25.8c-66.8-30.4-110.8-83.2-134.1-149.2c-23.3-66-19.5-137.2,10.7-200.4
			c30.2-63.2,83.2-110.8,149.2-134.1c51.5-18.2,106.5-19.9,159.1-4.9c6.6,1.9,10.5,8.8,8.6,15.4c-1.9,6.6-8.8,10.5-15.4,8.6
			c-47.5-13.6-97.3-12-143.9,4.4c-123.3,43.5-188.3,179.3-144.7,302.6c21.1,59.7,64.2,107.7,121.4,135
			c53.8,25.7,124.9,27.5,181.3,7.6c59.7-21.1,106.7-62.1,134-119.3c25.7-53.8,28.5-124.9,8.6-181.3"/>
	</g>
	<g>
		<path class="st6" d="M2591.2,2152.2c20.5,58,17.8,112.2-8.8,167.9c-25,52.3-67.8,90.6-122.4,109.9c-23.6,8.3-49.1,14.6-73.4,14.6
			c-31.9,0-63.7-10.3-93.4-24.5c-52.3-25-91.7-68.8-111-123.5c-39.8-112.8,19.5-236.9,132.3-276.8c42.1-14.8,87-16.4,129.9-4.5
			l-6.7,24.1c-38-10.5-77.7-9.1-115,4c-99.8,35.2-152.3,145.1-117.1,244.9c17.1,48.3,51.9,87.2,98.2,109.3
			c46.3,22.1,98.1,24.5,146.7,7.8c48.5-16.6,87.2-51.9,109.3-98.2c22.1-46.3,24.9-98.4,7.8-146.7"/>
	</g>
	<g>
		<path class="st6" d="M2386.8,2397.4c-70.4,0-136.5-46-161.3-116.1c-31.4-88.9,15.4-186.7,104.2-218c32.4-11.5,67.1-12.9,100.2-4.2
			l-6.4,24.1c-28.3-7.4-57.9-6.2-85.6,3.6c-75.9,26.8-115.8,110.3-89,186.2c21.1,59.9,77.6,97.3,137.7,97.3
			c16.1,0,32.4-2.7,48.4-8.3c36.8-13,66.3-39.5,83.1-74.6c16.8-35.2,18.9-74.8,5.9-111.5c-2.3-6.6-5.2-13.2-8.5-19.5l22.1-11.6
			c3.9,7.4,7.3,15.1,10,22.8c32.3,91.5-7.9,186.1-104.2,220.1C2424.8,2394.3,2405.6,2397.4,2386.8,2397.4z"/>
	</g>
	<g>
		<path class="st6" d="M2510.8,2186.2c20.5,65.2-18.8,138.9-81.6,161c-13.9,4.9-28.3,7.4-42.7,7.4c-18.8,0-37.6-6.3-55.1-14.7
			c-30.8-14.7-54.1-40.6-65.5-72.8c-23.5-66.5,11.5-139.8,78.1-163.3c23.3-8.2,48.4-9.5,72.4-3.8c6.7,1.6,10.8,8.4,9.2,15.1
			c-1.6,6.7-8.4,10.8-15.1,9.2c-19.3-4.7-39.5-3.6-58.3,3c-53.6,18.9-81.7,77.9-62.8,131.4c9.2,25.9,27.9,46.8,52.7,58.6
			c24.8,11.9,53.8,15.5,79.8,6.3c52.6-18.6,79.6-76.8,62.9-130"/>
	</g>
	<g>
		<polygon points="2444.9,2195.1 2106.6,2319.7 2058.4,2017.3 2476.9,1898 		"/>
	</g>
	<g>
		<path class="st7" d="M2498.3,2234.9"/>
	</g>
	<g>
		<polyline points="2525,2228.9 2508.9,2167.7 2471.9,2179.6 2487.7,2232.2 		"/>
	</g>
	<g>
		<path class="st7" d="M2528.6,2105"/>
		<path class="st7" d="M2587.5,2142.2"/>
		<path class="st7" d="M2563.1,2149.1"/>
	</g>
	<g>
		<path class="st6" d="M2293.5,2267.5"/>
	</g>
	<g>
		<path class="st8" d="M2109.3,2002.8"/>
	</g>
	<g>
		<rect x="2514.6" y="2070.9" width="155" height="169.2"/>
	</g>
	<g>
		<path class="st8" d="M2482.6,2506.8"/>
	</g>
	<g>
		<path class="st6" d="M2322.6,2304.9c0,0-79.5-65.3,32.6-145.8c5.9-4.2,19-9.6,61.9-0.5c10.3,2.2,15.2,9.3,34.1,8.3
			s63-23.2,81.5-51.4c26-39.8,6.5-68.3-9.9-87.5c-21.7-25.3-76.3-64.4-109.6-68.1c-33.3-3.7-135.4-5.3-219.1,79.8
			c-25.2,25.6-49.1,62.9-47.3,78.3c1.7,14.2,1.2,39.9,0.3,49.5c-2.9,28.6-17,55.9-20,74.8c-4.9,30.9,2.2,45.3,11.9,73.4
			c25.9,75,95.2,136.4,169,145.5c38.2,4.7,59.5,11.6,72.9,9.7c27.3-3.7,13-17.1-4.1-30.5c-12.8-10,9.8-12.7,9.8-12.7l1.1-9.2l5,0.8
			l2-46l-4.2-25C2309.9,2342.2,2322.6,2304.9,2322.6,2304.9z"/>
	</g>
	<g>
		<path class="st9" d="M2396.2,2459.3c-83.5,0-144.3-46.9-148.2-69.1c0,0,74,76.1,186.4,47.5"/>
	</g>
	<g>
		<path class="st9" d="M2395.1,2416.1c-83.5,0-134.9-53.7-138.8-75.9c0,0,65.7,79.2,178.1,50.6"/>
	</g>
	<g>
		<path class="st9" d="M2394.7,2369.7c-83.5,0-118.9-54.1-122.8-76.3c0,0,49.4,83.8,161.8,55.2"/>
	</g>
	<g>
		<rect x="2621.2" y="2085.9" class="st6" width="27.1" height="154.3"/>
	</g>
	<g>
		<rect x="2578.1" y="2151.9" class="st6" width="26" height="88.3"/>
	</g>
	<g>
		<rect x="2531.8" y="2196" class="st6" width="27" height="44.1"/>
	</g>
	<g>
		<polygon class="st6" points="2489.3,2218.1 2515.8,2218.1 2514.9,2240.2 2489.3,2243 		"/>
	</g>
</g>
<path class="st6" d="M2156.3,2089.9c0,0-53.3,84.8-27.8,192.9l75.4-80.3L2156.3,2089.9z"/>
<g>
	<g>
		<path class="st6" d="M3446.8,2138.8c23.2,65.8,19.4,136.6-10.6,199.6c-30.1,62.9-82.9,110.4-148.6,133.6c-28.4,10-57.8,15-87.1,15
			c-38.4,0-76.4-9.3-112.4-25.7c-66.6-30.2-110.4-82.9-133.6-148.6c-23.2-65.8-19.4-136.6,10.6-199.6
			c30.1-62.9,82.9-110.4,148.6-133.6c51.3-18.1,106.1-19.8,158.4-4.9c6.6,1.9,10.4,8.8,8.5,15.4c-1.9,6.6-8.8,10.4-15.4,8.5
			c-47.3-13.5-96.9-12-143.3,4.4c-122.8,43.4-187.5,178.6-144.1,301.4c21,59.5,63.9,107.3,120.9,134.5
			c53.6,25.6,124.4,27.4,180.6,7.5c59.5-21,106.2-61.8,133.4-118.8c25.6-53.6,28.4-124.4,8.6-180.6"/>
	</g>
	<g>
		<path class="st6" d="M3404.3,2153.8c20.4,57.8,17.7,111.8-8.8,167.2c-24.9,52.1-67.5,90.3-121.9,109.5
			c-23.5,8.3-48.9,14.5-73.1,14.5c-31.8,0-63.5-10.3-93-24.4c-52.1-24.9-91.3-68.6-110.5-123c-39.7-112.3,19.5-236,131.8-275.6
			c41.9-14.8,86.6-16.4,129.4-4.5l-6.6,24c-37.8-10.5-77.4-9.1-114.5,4c-99.4,35.1-151.7,144.5-116.6,243.9
			c17,48.1,51.7,86.8,97.8,108.8c46.1,22,97.7,24.4,146.1,7.8c48.3-16.6,86.8-51.7,108.8-97.8c22-46.1,24.8-98,7.8-146.1"/>
	</g>
	<g>
		<path class="st6" d="M3200.8,2398c-70.1,0-136-45.8-160.6-115.6c-31.2-88.5,15.3-185.9,103.8-217.1c32.3-11.4,66.8-12.8,99.8-4.1
			l-6.3,24c-28.2-7.4-57.7-6.2-85.2,3.5c-75.6,26.7-115.3,109.9-88.7,185.4c21,59.6,77.3,96.9,137.2,96.9c16,0,32.3-2.7,48.2-8.3
			c36.6-12.9,66-39.3,82.7-74.3c16.7-35,18.8-74.5,5.9-111.1c-2.3-6.6-5.2-13.1-8.5-19.4l22-11.6c3.9,7.4,7.2,15,9.9,22.7
			c32.2,91.1-7.9,185.4-103.8,219.2C3238.6,2394.9,3219.5,2398,3200.8,2398z"/>
	</g>
	<g>
		<path class="st6" d="M3324.3,2187.6c20.4,64.9-18.7,138.3-81.2,160.4c-13.9,4.9-28.2,7.3-42.5,7.3c-18.8,0-37.4-6.3-54.9-14.6
			c-30.7-14.7-53.9-40.5-65.2-72.5c-23.4-66.3,11.5-139.2,77.7-162.6c23.2-8.2,48.2-9.5,72.1-3.7c6.7,1.6,10.8,8.3,9.2,15
			c-1.6,6.7-8.3,10.8-15,9.2c-19.3-4.6-39.3-3.6-58,3c-53.3,18.8-81.4,77.5-62.6,130.9c9.1,25.8,27.8,46.6,52.5,58.4
			c24.7,11.8,53.6,15.4,79.4,6.3c52.4-18.5,79.3-76.5,62.7-129.5"/>
	</g>
	<g>
		<polygon points="3258.6,2196.5 2921.7,2320.6 2873.7,2019.5 3290.5,1900.6 		"/>
	</g>
	<g>
		<path class="st7" d="M3311.8,2236.2"/>
	</g>
	<g>
		<polyline points="3338.4,2230.2 3322.4,2169.3 3285.6,2181 3301.2,2233.5 		"/>
	</g>
	<g>
		<path class="st7" d="M3342,2106.7"/>
		<path class="st7" d="M3400.6,2143.8"/>
		<path class="st7" d="M3376.3,2150.7"/>
	</g>
	<g>
		<path class="st6" d="M3107.9,2268.6"/>
	</g>
	<g>
		<path class="st8" d="M2924.4,2005"/>
	</g>
	<g>
		<rect x="3328" y="2072.8" width="154.4" height="168.5"/>
	</g>
	<g>
		<path class="st8" d="M3296.2,2506.9"/>
	</g>
	<g>
		<path class="st6" d="M3136.9,2305.9c0,0-79.1-65,32.5-145.2c5.9-4.2,19-9.5,61.7-0.5c10.2,2.2,15.1,9.3,34,8.3
			c18.9-1,23-24.1,41.3-52.2c25.9-39.6,6.5-68-9.8-87.1c-21.6-25.2-36.2-63.1-69.4-66.8c-33.2-3.7-134.9-5.3-218.2,79.5
			c-25.1,25.5-48.9,62.7-47.2,78c1.7,14.2,1.2,39.7,0.3,49.3c-2.8,28.4-16.9,55.6-19.9,74.5c-4.9,30.8,2.2,45.2,11.9,73.1
			c25.8,74.7,94.8,135.9,168.3,144.9c38,4.7,59.3,11.5,72.6,9.7c27.2-3.7,13-17-4.1-30.4c-12.8-10,9.8-12.7,9.8-12.7l1.1-9.2l5,0.8
			l2-45.8l-4.2-24.9C3124.2,2343,3136.9,2305.9,3136.9,2305.9z"/>
	</g>
	<g>
		<path class="st9" d="M3210.1,2459.6c-83.1,0-143.7-46.7-147.6-68.8c0,0,73.7,75.8,185.7,47.3"/>
	</g>
	<g>
		<path class="st9" d="M3209,2416.6c-83.1,0-134.3-53.5-138.2-75.6c0,0,65.4,78.9,177.3,50.4"/>
	</g>
	<g>
		<path class="st9" d="M3247.5,2349.4c-111.9,28.5-161.2-55-161.2-55c3.9,22.1,38.6,76.5,121.8,76.4L3247.5,2349.4z"/>
	</g>
	<g>
		<rect x="3434.3" y="2100.3" class="st6" width="27" height="141.1"/>
	</g>
	<g>
		<rect x="3391.3" y="2166.1" class="st6" width="25.9" height="75.3"/>
	</g>
	<g>
		<rect x="3345.1" y="2210" class="st6" width="26.9" height="31.4"/>
	</g>
	<g>
		<polygon class="st6" points="3302.9,2232 3329.2,2232 3328.4,2241.4 3302.9,2244.3 		"/>
	</g>
</g>
<path class="st6" d="M2971.2,2091.7c0,0-53.1,84.5-27.6,192.1l75.1-80L2971.2,2091.7z"/>
<path class="st9" d="M3205.5,2355.3"/>
<path class="st6" d="M3221.3,2415.6c0,0-77,2.7-115.2-45.3c-36-45.3-43.7-29.3-43.7-29.3l42.6,57l95.6,23.8L3221.3,2415.6z"/>
<path class="st6" d="M3159.5,2440.6c0,0,55.4,37.9,147.2-5.8c91.8-43.6-5.9,10.5-5.9,10.5l-69.5,23l-89.4-10.5l-75.8-41.3
	l-11.5-25.8l7.9-11.1l84.6,45.5L3159.5,2440.6z"/>
<ellipse class="st6" cx="3216.1" cy="2091.8" rx="131.4" ry="130.7"/>
<ellipse transform="matrix(0.9833 -0.182 0.182 0.9833 -350.3647 603.3596)" class="st6" cx="3111.9" cy="2210.4" rx="29.3" ry="24.6"/>
<path class="st9" d="M3107.3,2211.9c-3.5-0.4-4.3,8.5-1.3,7.9c14.4-2.9,31.6,3.1,34,4c2.4,0.9,4.2-13.6,2.2-13.4
	C3139.1,2210.8,3110.3,2212.3,3107.3,2211.9z"/>
<path class="st9" d="M3122.8,2232.9c0,0-18.7,6.7-37-6.9c0,0,5.9,14.2,30.4,12.9"/>
<rect x="3391.3" y="2238.1" class="st6" width="25.5" height="5.3"/>
<rect x="3345.8" y="2238.1" class="st6" width="25.5" height="5.3"/>
<g>
	<g>
		<path class="st6" d="M4244.9,2136.2c23.3,65.9,19.5,136.9-10.7,199.9c-30.1,63-83,110.5-148.9,133.8
			c-28.5,10.1-57.9,15.1-87.3,15.1c-38.5,0-76.5-9.3-112.6-25.7c-66.7-30.3-110.5-83-133.8-148.9c-23.3-65.9-19.5-136.9,10.7-199.9
			c30.1-63,83-110.5,148.9-133.8c51.4-18.2,106.3-19.8,158.7-4.9c6.6,1.9,10.4,8.8,8.6,15.4c-1.9,6.6-8.8,10.4-15.4,8.6
			c-47.4-13.5-97-12-143.5,4.4c-123,43.4-187.8,178.9-144.3,301.9c21,59.6,64,107.4,121,134.7c53.7,25.7,124.6,27.4,180.8,7.5
			c59.6-21,106.4-61.9,133.6-118.9c25.7-53.7,28.5-124.6,8.6-180.8"/>
	</g>
	<g>
		<path class="st6" d="M4202.4,2151.2c20.4,57.9,17.7,112-8.8,167.5c-24.9,52.1-67.6,90.4-122.1,109.6c-23.6,8.3-49,14.6-73.2,14.6
			c-31.9,0-63.6-10.3-93.2-24.4c-52.1-24.9-91.5-68.7-110.7-123.2c-39.7-112.5,19.5-236.3,132-276.1c42-14.8,86.8-16.4,129.6-4.5
			l-6.6,24c-37.9-10.5-77.5-9.1-114.7,4c-99.6,35.1-151.9,144.7-116.8,244.3c17,48.2,51.8,86.9,98,109
			c46.1,22.1,97.8,24.5,146.3,7.8c48.4-16.6,86.9-51.8,109-98c22.1-46.1,24.8-98.1,7.8-146.3"/>
	</g>
	<g>
		<path class="st6" d="M3998.5,2395.8c-70.3,0-136.2-45.9-160.9-115.8c-31.3-88.6,15.4-186.2,104-217.5c32.4-11.4,66.9-12.9,100-4.2
			l-6.3,24.1c-28.2-7.4-57.7-6.2-85.4,3.6c-75.7,26.7-115.5,110-88.8,185.7c21.1,59.7,77.4,97.1,137.4,97.1c16,0,32.3-2.7,48.3-8.3
			c36.7-12.9,66.1-39.4,82.9-74.5c16.8-35.1,18.9-74.6,5.9-111.2c-2.3-6.6-5.2-13.1-8.5-19.5l22-11.6c3.9,7.4,7.2,15,10,22.8
			c32.2,91.3-7.9,185.7-104,219.6C4036.4,2392.6,4017.3,2395.8,3998.5,2395.8z"/>
	</g>
	<g>
		<path class="st6" d="M4122.2,2185.1c20.4,65-18.8,138.5-81.4,160.6c-13.9,4.9-28.3,7.3-42.6,7.4c-18.8,0-37.5-6.3-55-14.7
			c-30.8-14.7-53.9-40.5-65.3-72.7c-23.4-66.4,11.5-139.4,77.9-162.9c23.3-8.2,48.3-9.5,72.2-3.7c6.7,1.6,10.8,8.3,9.2,15
			c-1.6,6.7-8.3,10.8-15,9.2c-19.3-4.6-39.4-3.6-58.1,3c-53.4,18.9-81.5,77.7-62.7,131.1c9.1,25.9,27.8,46.6,52.6,58.5
			c24.8,11.8,53.7,15.4,79.6,6.3c52.4-18.5,79.4-76.6,62.8-129.7"/>
	</g>
	<g>
		<polygon points="4056.5,2194 3719,2318.3 3670.9,2016.6 4088.4,1897.6 		"/>
	</g>
	<g>
		<path class="st7" d="M4109.7,2233.7"/>
	</g>
	<g>
		<polyline points="4136.4,2227.7 4120.3,2166.7 4083.4,2178.5 4099.1,2231 		"/>
	</g>
	<g>
		<path class="st7" d="M4140,2104.1"/>
		<path class="st7" d="M4198.6,2141.2"/>
		<path class="st7" d="M4174.3,2148.1"/>
	</g>
	<g>
		<path class="st6" d="M3905.4,2266.2"/>
	</g>
	<g>
		<path class="st8" d="M3721.7,2002.1"/>
	</g>
	<g>
		<rect x="4126" y="2070.1" width="154.6" height="168.8"/>
	</g>
	<g>
		<path class="st8" d="M4094.1,2504.8"/>
	</g>
	<g>
		<path class="st6" d="M3934.5,2303.5c0,0-79.3-65.1,32.6-145.4c5.9-4.2,19-9.6,61.8-0.5c10.2,2.2,15.1,9.3,34,8.3
			c18.9-1,23-24.2,41.4-52.3c26-39.7,6.5-68.1-9.8-87.2c-21.6-25.2-36.3-63.2-69.5-66.9c-33.2-3.7-135.1-5.3-218.6,79.6
			c-25.1,25.5-49,62.8-47.2,78.1c1.7,14.2,1.2,39.8,0.3,49.4c-2.9,28.5-16.9,55.7-19.9,74.6c-4.9,30.8,2.2,45.2,11.9,73.3
			c25.9,74.8,95,136.1,168.6,145.1c38.1,4.7,59.4,11.5,72.7,9.7c27.2-3.7,13-17.1-4.1-30.5c-12.8-10,9.8-12.7,9.8-12.7l1.1-9.2
			l5,0.8l2-45.9l-4.2-24.9C3921.8,2340.7,3934.5,2303.5,3934.5,2303.5z"/>
	</g>
	<g>
		<path class="st9" d="M4007.8,2457.5c-83.3,0-144-46.8-147.9-68.9c0,0,73.8,75.9,185.9,47.4"/>
	</g>
	<g>
		<path class="st9" d="M4006.8,2414.4c-83.3,0-134.6-53.6-138.4-75.7c0,0,65.5,79,177.6,50.5"/>
	</g>
	<g>
		<path class="st9" d="M4045.3,2347.1c-112.1,28.5-161.4-55-161.4-55c3.9,22.1,38.7,76.6,122,76.6L4045.3,2347.1z"/>
	</g>
	<g>
		<rect x="4232.3" y="2097.6" class="st6" width="27" height="141.3"/>
	</g>
	<g>
		<rect x="4189.3" y="2163.5" class="st6" width="26" height="75.4"/>
	</g>
	<g>
		<rect x="4143.1" y="2207.5" class="st6" width="26.9" height="31.4"/>
	</g>
	<g>
		<polygon class="st6" points="4100.8,2229.5 4127.1,2229.5 4126.3,2238.9 4100.8,2241.8 		"/>
	</g>
</g>
<path class="st6" d="M3768.6,2089c0,0-53.2,84.6-27.7,192.4l75.2-80.1L3768.6,2089z"/>
<path class="st9" d="M4003.2,2353"/>
<path class="st6" d="M4019.1,2413.4c0,0-77.1,2.7-115.3-45.3c-36.1-45.4-43.8-29.4-43.8-29.4l42.6,57l95.7,23.8L4019.1,2413.4z"/>
<path class="st6" d="M3957.1,2438.5c0,0,55.5,37.9,147.4-5.8c92-43.7-5.9,10.5-5.9,10.5l-69.6,23.1l-89.5-10.5l-75.9-41.4
	l-11.5-25.9l7.9-11.1l84.8,45.6L3957.1,2438.5z"/>
<ellipse class="st6" cx="4013.8" cy="2089.1" rx="131.6" ry="130.9"/>
<ellipse transform="matrix(0.9833 -0.182 0.182 0.9833 -336.5814 748.4966)" class="st6" cx="3909.4" cy="2207.9" rx="29.3" ry="24.7"/>
<path class="st9" d="M3920.4,2230.4c0,0-18.7,6.7-37.1-7c0,0,5.9,14.2,30.4,12.9"/>
<rect x="4189.3" y="2235.6" class="st6" width="25.6" height="5.3"/>
<rect x="4143.8" y="2235.6" class="st6" width="25.6" height="5.3"/>
<g>
	<g>
		<path class="st6" d="M1010.9,2922.9c23.3,66,19.5,137.2-10.7,200.4C970,3186.5,917,3234.1,851,3257.4
			c-28.6,10.1-58.1,15.1-87.5,15.1c-38.6,0-76.7-9.3-112.9-25.8c-66.8-30.4-110.8-83.2-134.1-149.3s-19.5-137.2,10.7-200.4
			c30.2-63.2,83.2-110.8,149.3-134.1c51.5-18.2,106.6-19.9,159.1-4.9c6.6,1.9,10.5,8.8,8.6,15.4c-1.9,6.6-8.8,10.5-15.4,8.6
			c-47.5-13.6-97.3-12-143.9,4.4C561.4,2830,496.4,2965.8,540,3089.1c21.1,59.8,64.2,107.7,121.4,135
			c53.8,25.7,124.9,27.5,181.3,7.6c59.8-21.1,106.7-62.1,134-119.3c25.7-53.8,28.5-124.9,8.6-181.3"/>
	</g>
	<g>
		<path class="st6" d="M968.3,2937.9c20.5,58,17.8,112.3-8.8,167.9c-25,52.3-66.8,90.6-121.4,109.9c-23.6,8.3-50.2,14.6-74.5,14.6
			c-31.9,0-63.7-10.3-93.4-24.5c-52.3-25-91.7-68.9-111-123.5c-39.8-112.8,19.5-237,132.3-276.8c42.1-14.9,87-16.4,129.9-4.5
			l-6.7,24.1c-38-10.5-77.7-9.1-115,4c-99.8,35.2-152.3,145.1-117.1,244.9c17.1,48.4,51.9,87.2,98.2,109.3
			c46.3,22.1,98.1,24.5,146.7,7.8c48.5-16.6,87.2-51.9,109.3-98.2c22.1-46.3,24.9-98.4,7.8-146.7"/>
	</g>
	<g>
		<path class="st6" d="M763.8,3183.2c-70.4,0-136.6-46-161.3-116.1c-31.4-88.9,15.4-186.7,104.3-218c32.4-11.5,67.1-12.9,100.3-4.2
			l-6.4,24.1c-28.3-7.4-57.9-6.2-85.6,3.6c-75.9,26.8-115.8,110.3-89,186.2c21.1,59.9,77.6,97.3,137.7,97.4
			c16.1,0,32.4-2.7,48.4-8.3c36.8-13,66.3-39.5,83.1-74.7c16.8-35.2,18.9-74.8,6-111.5c-2.3-6.6-5.2-13.2-8.5-19.5l22.1-11.6
			c3.9,7.4,7.3,15.1,10,22.8c32.3,91.5-8.6,185.8-103.2,220.1C802.9,3180.2,782.7,3183.2,763.8,3183.2z"/>
	</g>
	<g>
		<path class="st6" d="M887.9,2971.9c20.5,65.2-18.8,138.9-81.6,161c-13.9,4.9-28.3,7.4-42.7,7.4c-18.8,0-37.6-6.3-55.1-14.7
			c-30.8-14.7-54.1-40.6-65.5-72.9c-23.5-66.5,11.5-139.8,78.1-163.3c23.3-8.2,48.4-9.5,72.4-3.8c6.7,1.6,10.8,8.4,9.2,15.1
			c-1.6,6.7-8.4,10.8-15.1,9.2c-19.3-4.7-39.5-3.6-58.3,3c-53.6,18.9-81.7,77.9-62.8,131.4c9.2,25.9,27.9,46.8,52.7,58.6
			c24.8,11.9,53.8,15.5,79.8,6.3c52.6-18.6,79.6-76.8,62.9-130"/>
	</g>
	<g>
		<path class="st7" d="M875.3,3020.7"/>
	</g>
	<g>
		<polyline class="st9" points="902.1,3014.7 885.9,2953.5 849,2965.3 864.7,3018 		"/>
	</g>
	<g>
		<path class="st7" d="M905.7,2890.7"/>
		<path class="st7" d="M964.5,2927.9"/>
		<path class="st7" d="M940.1,2934.8"/>
	</g>
	<g>
		<path class="st6" d="M670.5,3053.2"/>
	</g>
	<g>
		<path class="st8" d="M486.3,2788.5"/>
	</g>
	<g>
		<rect x="891.6" y="2856.7" width="155" height="169.3"/>
	</g>
	<g>
		<path class="st8" d="M859.7,3292.5"/>
	</g>
	<g>
		<path class="st6" d="M699.7,3090.7c0,0-93.1-85.4,32.6-145.8c6.6-3.1,19-9.6,61.9-0.5c10.3,2.2,15.2,9.3,34.1,8.3
			c19-1,23.1-24.2,41.5-52.4c26-39.8,6.5-68.3-9.9-87.5c-21.7-25.3-36.4-63.4-69.7-67.1c-33.3-3.7-135.5-5.3-219.1,79.8
			c-25.2,25.6-49.1,63-47.3,78.3c1.7,14.2,1.2,39.9,0.3,49.6c-2.9,28.6-17,55.9-20,74.8c-4.9,30.9,2.2,45.3,11.9,73.5
			c25.9,75,95.2,136.5,169,145.5c38.2,4.7,59.5,11.6,72.9,9.7c27.3-3.7,13.1-17.1-4.1-30.6c-12.8-10,9.8-12.7,9.8-12.7l1.1-9.3
			l5,0.8l2-46l-4.2-25C686.9,3128,699.7,3090.7,699.7,3090.7z"/>
	</g>
	<g>
		<path class="st9" d="M773.2,3245c-83.5,0-144.4-46.9-148.3-69.1c0,0,74.8,74.2,186.4,47.5"/>
	</g>
	<g>
		<path class="st9" d="M772.1,3201.9c-83.5,0-130.7-52.7-134.6-74.8c0,0,61.5,78.2,173.9,49.6"/>
	</g>
	<g>
		<path class="st9" d="M810.8,3134.4c-112.4,28.6-154.5-55.2-154.5-55.2c3.9,22.2,31.4,76.8,114.9,76.8L810.8,3134.4z"/>
	</g>
	<g>
		<rect x="998.3" y="2884.3" class="st6" width="27.1" height="141.7"/>
	</g>
	<g>
		<rect x="955.1" y="2950.3" class="st6" width="26" height="75.6"/>
	</g>
	<g>
		<rect x="908.8" y="2994.4" class="st6" width="27" height="31.5"/>
	</g>
	<g>
		<polygon class="st6" points="866.4,3016.5 892.8,3016.5 892,3025.9 866.4,3028.8 		"/>
	</g>
</g>
<path class="st6" d="M533.3,2875.6c0,0-53.3,84.8-27.8,192.9l75.4-80.3L533.3,2875.6z"/>
<path class="st9" d="M768.6,3140.3"/>
<path class="st6" d="M784.5,3200.9c0,0-77.3,1.7-115.6-46.5c-36.2-45.5-43.9-28.4-43.9-28.4l42.8,57.2l96,23.9L784.5,3200.9z"/>
<path class="st6" d="M721.3,3224.9c0,0,56.7,39.1,148.9-4.7s-6,10.5-6,10.5l-69.8,23.1l-89.7-10.5l-76.1-41.5l-11.6-25.9l7.9-11.1
	l85,45.7L721.3,3224.9z"/>
<ellipse class="st6" cx="779.2" cy="2875.7" rx="132" ry="131.2"/>
<circle class="st6" cx="713.6" cy="3022.8" r="47.5"/>
<rect x="998.1" y="3022.6" class="st6" width="27.3" height="5.3"/>
<rect x="955.1" y="3022.6" class="st6" width="25.6" height="5.3"/>
<rect x="909.5" y="3022.6" class="st6" width="25.6" height="5.3"/>
<ellipse class="st4" cx="779.2" cy="2875.7" rx="132" ry="131.2"/>
<circle class="st4" cx="765.8" cy="3013.9" r="100.6"/>
<circle class="st4" cx="765.8" cy="3013.9" r="127"/>
<circle class="st4" cx="765.8" cy="3013.9" r="143"/>
<circle class="st4" cx="765.8" cy="3013.9" r="170"/>
<circle class="st4" cx="765.8" cy="3013.9" r="189.4"/>
<circle class="st4" cx="765.8" cy="3013.9" r="215"/>
<circle class="st4" cx="713.6" cy="3022.8" r="47.5"/>
<path class="st9" d="M696.9,2978.3c0,0-32.5,12.6-30.9,47.8c0,0-5.8-34.9,13.6-64.3C679.7,2961.9,690.6,2973.6,696.9,2978.3z"/>
<g>
	<g>
		<path class="st6" d="M1012.6,3737.6c23.7,67.2,19.9,139.6-10.9,203.9c-30.7,64.3-84.7,112.7-151.8,136.5
			c-29.1,10.3-59.1,15.4-89,15.4c-39.3,0-78-9.5-114.9-26.2c-68-30.9-112.7-84.7-136.5-151.8c-23.7-67.2-19.9-139.6,10.9-203.9
			c30.7-64.3,84.7-112.7,151.8-136.5c52.4-18.5,108.4-20.2,161.8-5c6.7,1.9,10.7,9,8.7,15.7c-1.9,6.7-9,10.6-15.7,8.7
			c-48.3-13.8-99-12.3-146.4,4.5c-125.5,44.3-191.5,182.4-147.2,307.9c21.5,60.8,65.3,109.6,123.5,137.4
			c54.7,26.2,127.1,27.9,184.4,7.7c60.8-21.5,108.5-63.2,136.3-121.3c26.2-54.7,29-127.1,8.8-184.4"/>
	</g>
	<g>
		<path class="st6" d="M969.2,3753c20.8,59,18.1,114.2-9,170.8c-25.4,53.2-67.9,92.2-123.5,111.8c-24,8.5-51,14.8-75.8,14.8
			c-32.5,0-64.8-10.5-95-24.9c-53.2-25.4-93.3-70-112.9-125.6c-40.5-114.8,19.9-241.1,134.6-281.6c42.8-15.1,88.5-16.7,132.2-4.6
			l-6.8,24.5c-38.7-10.7-79.1-9.3-117,4.1c-101.5,35.9-155,147.6-119.1,249.2c17.4,49.2,52.8,88.7,99.9,111.2
			c47.1,22.5,99.8,24.9,149.3,8c49.3-16.9,88.7-52.8,111.2-99.9c22.5-47.1,25.3-100.1,8-149.3"/>
	</g>
	<g>
		<path class="st6" d="M761.3,4002.5c-71.7,0-138.9-46.8-164.1-118.1c-31.9-90.4,15.7-189.9,106.1-221.8c33-11.7,68.3-13.1,102-4.2
			l-6.5,24.6c-28.8-7.6-58.9-6.3-87.1,3.6c-77.2,27.3-117.8,112.2-90.6,189.4c21.5,60.9,78.9,99,140.1,99c16.4,0,33-2.7,49.3-8.5
			c37.4-13.2,67.4-40.2,84.5-75.9c17.1-35.8,19.3-76.1,6.1-113.5c-2.4-6.7-5.3-13.4-8.7-19.8l22.5-11.8c4,7.5,7.4,15.3,10.2,23.2
			c32.9,93.1-8.8,189-105,224C801,3999.4,780.4,4002.5,761.3,4002.5z"/>
	</g>
	<g>
		<path class="st6" d="M887.4,3787.5c20.8,66.3-19.1,141.3-83,163.8c-14.2,5-28.8,7.5-43.4,7.5c-19.2,0-38.3-6.4-56.1-14.9
			c-31.4-15-55-41.3-66.6-74.1c-23.9-67.7,11.7-142.2,79.4-166.1c23.8-8.4,49.2-9.7,73.7-3.8c6.8,1.6,11,8.5,9.4,15.3
			c-1.6,6.8-8.5,11-15.3,9.4c-19.7-4.7-40.2-3.7-59.3,3.1c-54.5,19.2-83.2,79.2-63.9,133.7c9.3,26.4,28.4,47.6,53.6,59.7
			c25.3,12.1,54.8,15.7,81.2,6.4c53.5-18.9,81-78.2,64-132.3"/>
	</g>
	<g>
		<polygon points="820.4,3796.6 476.2,3923.4 427.1,3615.7 852.9,3494.3 		"/>
	</g>
	<g>
		<path class="st7" d="M874.6,3837.2"/>
	</g>
	<g>
		<polyline points="901.9,3831 885.5,3768.8 847.9,3780.8 863.9,3834.4 		"/>
	</g>
	<g>
		<path class="st7" d="M905.6,3704.9"/>
		<path class="st7" d="M965.4,3742.8"/>
		<path class="st7" d="M940.6,3749.8"/>
	</g>
	<g>
		<path class="st6" d="M666.3,3870.3"/>
	</g>
	<g>
		<path class="st8" d="M478.9,3601"/>
	</g>
	<g>
		<rect x="891.3" y="3670.3" width="157.7" height="172.2"/>
	</g>
	<g>
		<path class="st8" d="M858.7,4113.7"/>
	</g>
	<g>
		<path class="st6" d="M696,3908.4c0,0-94.8-86.9,33.2-148.3c6.7-3.2,19.4-9.8,63-0.5c10.5,2.2,15.4,9.5,34.7,8.4
			s23.5-24.7,42.2-53.3c26.5-40.5,6.6-69.5-10-89c-22-25.8-37-64.5-70.9-68.3s-137.8-5.4-222.9,81.2c-25.6,26-50,64-48.2,79.7
			c1.7,14.5,1.3,40.5,0.3,50.4c-2.9,29.1-17.3,56.8-20.3,76.1c-5,31.4,2.3,46.1,12.2,74.7c26.4,76.3,96.9,138.8,172,148
			c38.8,4.8,60.6,11.8,74.1,9.9c27.8-3.8,13.3-17.4-4.2-31.1c-13.1-10.2,10-12.9,10-12.9l1.1-9.4l5.1,0.8l2-46.8l-4.3-25.4
			C683,3946.3,696,3908.4,696,3908.4z"/>
	</g>
	<g>
		<path class="st9" d="M770.8,4065.4c-84.9,0-146.8-47.7-150.8-70.3c0,0,76.1,75.5,189.7,48.3"/>
	</g>
	<g>
		<path class="st9" d="M769.7,4021.5c-84.9,0-133-53.6-136.9-76.1c0,0,62.5,79.6,176.9,50.5"/>
	</g>
	<g>
		<path class="st9" d="M809,3952.8c-114.3,29.1-157.1-56.1-157.1-56.1c4,22.5,32,78.1,116.9,78.1L809,3952.8z"/>
	</g>
	<g>
		<rect x="999.8" y="3698.4" class="st6" width="27.5" height="144.1"/>
	</g>
	<g>
		<rect x="955.9" y="3765.5" class="st6" width="26.5" height="77"/>
	</g>
	<g>
		<rect x="908.7" y="3810.4" class="st6" width="27.5" height="32.1"/>
	</g>
	<g>
		<polygon class="st6" points="865.6,3832.9 892.5,3832.9 891.6,3842.5 865.6,3845.4 		"/>
	</g>
</g>
<path class="st6" d="M526.7,3689.6c0,0-54.3,86.3-28.2,196.2l76.7-81.7L526.7,3689.6z"/>
<path class="st9" d="M766.1,3958.9"/>
<path class="st6" d="M782.2,4020.5c0,0-78.7,1.7-117.6-47.3c-36.8-46.3-44.6-28.9-44.6-28.9l43.5,58.2l97.6,24.3L782.2,4020.5z"/>
<path class="st6" d="M718,4044.9c0,0,57.6,39.8,151.5-4.8c93.8-44.6-6.1,10.7-6.1,10.7l-71,23.5l-91.3-10.7l-77.4-42.2l-11.8-26.4
	l8-11.3l86.5,46.5L718,4044.9z"/>
<ellipse class="st6" cx="776.9" cy="3689.7" rx="134.3" ry="133.5"/>
<rect x="999.5" y="3839.1" class="st6" width="27.8" height="5.4"/>
<rect x="955.9" y="3839.1" class="st6" width="26.1" height="5.4"/>
<rect x="909.4" y="3839.1" class="st6" width="26.1" height="5.4"/>
<g>
	<g>
		<path class="st6" d="M1823.4,2929.6c23.6,67,19.8,139.2-10.8,203.2c-30.6,64.1-84.4,112.4-151.4,136c-29,10.2-58.9,15.3-88.7,15.3
			c-39.2,0-77.8-9.5-114.5-26.2c-67.8-30.8-112.4-84.4-136-151.4c-23.6-67-19.8-139.2,10.8-203.2c30.6-64.1,84.4-112.4,151.4-136
			c52.3-18.5,108.1-20.2,161.3-5c6.7,1.9,10.6,8.9,8.7,15.7c-1.9,6.7-8.9,10.6-15.7,8.7c-48.2-13.8-98.7-12.2-145.9,4.5
			c-125.1,44.2-190.9,181.9-146.8,307c21.4,60.6,65.1,108.2,123.1,135.9c54.6,26.1,122.7,30.4,182.9,8.9
			c60.5-21.6,107.7-65,135.4-122.9c26.1-54.6,30.3-124.8,10.1-182"/>
	</g>
	<g>
		<path class="st6" d="M1780.1,2944.9c20.8,58.8,18,113.8-9,170.3c-25.3,53-67.7,91.9-123.1,111.5c-24,8.5-52.6,13.2-77.2,13.2
			c-32.4,0-62.9-8.9-93-23.3c-53-25.3-93-69.8-112.6-125.2c-40.4-114.4,19.8-240.3,134.2-280.7c42.7-15.1,88.2-16.7,131.8-4.6
			l-6.8,24.4c-38.5-10.7-78.8-9.3-116.6,4.1c-101.2,35.7-154.5,141.8-118.8,243.1c17.3,49,52.7,93.7,99.6,116.2
			c46.9,22.4,99.5,24.9,148.8,7.9c49.2-16.9,88.4-52.7,110.8-99.6c20.8-43.5,24-103.2,7.9-148.8"/>
	</g>
	<g>
		<path class="st6" d="M1572.8,3193.6c-71.4,0-138.5-45.6-163.6-116.7c-31.8-90.1,15.6-190.4,105.7-222.2
			c32.9-11.6,68-13.1,101.7-4.2l-6.4,24.5c-28.7-7.6-58.7-6.3-86.8,3.6c-77,27.2-114.7,110.3-87.5,187.2
			c21.4,60.7,75.9,100.3,136.9,100.3c16.3,0,32.9-2.7,49.1-8.5c37.3-13.2,67.2-40,84.2-75.7c17-35.7,19.2-75.8,6-113.1
			c-2.4-6.7-5.3-13.4-8.7-19.8l22.4-11.8c3.9,7.5,7.4,15.3,10.1,23.1c32.8,92.8-9,186.2-100.7,223
			C1616.7,3190.9,1591.9,3193.6,1572.8,3193.6z"/>
	</g>
	<g>
		<path class="st6" d="M1698.6,2979.3c20.8,66.1-15.9,141.1-79.6,163.6c-14.1,5-31.9,7.2-46.4,7.2c-19.1,0-36.9-4.1-54.7-12.6
			c-31.3-15-56.1-43.5-67.6-76.2c-23.8-67.5,11.7-141.8,79.2-165.6c23.7-8.4,49.1-9.7,73.5-3.8c6.8,1.6,11,8.5,9.3,15.3
			c-1.6,6.8-8.5,11-15.3,9.3c-19.6-4.7-40-3.7-59.1,3.1c-54.3,19.2-82.9,79-63.7,133.3c9.3,26.3,28.3,47.4,53.4,59.5
			c25.2,12,54.6,15.7,80.9,6.4c53.3-18.8,80.7-77.9,63.8-131.9"/>
	</g>
	<g>
		<polygon points="1631.8,2988.4 1288.6,3114.8 1239.7,2808.1 1664.2,2687 		"/>
	</g>
	<g>
		<path class="st7" d="M1685.9,3028.8"/>
	</g>
	<g>
		<polyline points="1713,3022.7 1696.7,2960.6 1659.2,2972.6 1675.1,3026.1 		"/>
	</g>
	<g>
		<path class="st7" d="M1716.7,2897"/>
		<path class="st7" d="M1775.3,2934.7"/>
		<path class="st7" d="M1751.6,2941.7"/>
	</g>
	<g>
		<path class="st6" d="M1478.2,3061.8"/>
	</g>
	<g>
		<path class="st8" d="M1291.4,2793.3"/>
	</g>
	<g>
		<rect x="1702.4" y="2862.4" width="157.2" height="171.6"/>
	</g>
	<g>
		<path class="st8" d="M1670,3304.5"/>
	</g>
	<g>
		<path class="st6" d="M1507.8,3099.8c-34.1-30.1-60.3-104,5.1-159c5.6-4.7,47.3,1.4,90.8,10.7c10.4,2.2,15.4,9.5,34.6,8.4
			c19.2-1.1,23.4-24.6,42.1-53.2c26.4-40.3,6.6-69.3-10-88.7c-22-25.7-66.1-68.4-100.1-69.4c0,0-120.1-0.6-192.9,82.3
			c-24,27.4-49.8,63.8-48,79.4c1.7,14.4,1.2,40.4,0.3,50.3c-2.9,29-17.2,56.7-20.2,75.8c-4.9,31.3,2.3,46,12.1,74.5
			c26.3,76.1,96.6,138.4,171.4,147.6c38.7,4.7-21.5-0.3-8-2.2c27.7-3.8-41.5-28.8-58.9-42.4c-13-10.2-16.6-28.9-16.6-28.9l1.1-9.4
			l5.1,0.8l-13.3-39.8l27.4-21.9c-59.9-4.7-21.2-44.2,20-47.4C1464.8,3066.2,1508.8,3100.7,1507.8,3099.8z"/>
	</g>
	<g>
		<polygon class="st6" points="1810.6,2883.9 1838.1,2883.9 1838.1,3034.1 1809.4,3034.1 		"/>
	</g>
	<g>
		<rect x="1765.8" y="2950.9" class="st6" width="27.5" height="83.2"/>
	</g>
	<g>
		<polygon class="st6" points="1719.8,2995.7 1747.2,2995.7 1746.9,3034.1 1719.8,3034.1 		"/>
	</g>
	<g>
		<polygon class="st6" points="1677.3,3017.7 1704.4,3018 1703.4,3034.1 1676.8,3037 		"/>
	</g>
</g>
<path class="st6" d="M1339,2881.7c0,0-54.1,86-28.2,195.6l76.5-81.4L1339,2881.7z"/>
<path class="st9" d="M1577.6,3150.1"/>
<ellipse class="st6" cx="1570.3" cy="2882.9" rx="137.9" ry="134.2"/>
<rect x="1810.4" y="3030.8" class="st6" width="27.7" height="5.4"/>
<rect x="1765.8" y="3030.8" class="st6" width="27.1" height="5.4"/>
<rect x="1720.5" y="3030.8" class="st6" width="26" height="5.4"/>
<g>
	<path class="st6" d="M1432.4,3150.6c0-33.2,12.4-63.6,32.9-87l-13.3-17l-75.3,32.5l22.7,125.9l71.2,38.4v0
		C1446.9,3219.3,1432.4,3186.6,1432.4,3150.6z"/>
</g>
<path class="st6" d="M1439.6,3193.6"/>
<path class="st6" d="M1570.8,3257.4c0,0-97.1-6-131.2-63.8c-34.1-57.7,3.3,36.8,3.3,36.8l109.1,36.6L1570.8,3257.4z"/>
<path class="st6" d="M1570.3,3212.7c0,0-107.6-5.4-135.7-87.9c-28.1-82.5-6.8,35.9-6.8,35.9l57.2,40.5l68.6,17.1L1570.3,3212.7z"/>
<path class="st6" d="M1570,3166.1c0,0-96.6-5.6-113.9-90.8c-17.2-85.2-13.3,20.3-13.3,20.3l55.1,63.7l68.5,13.9L1570,3166.1z"/>
<path class="st9" d="M1765.9,3034.3c0,0,3.2-42.5,0-83.3c-3.1-40.8-3.1,50.8-3.1,50.8v36.3L1765.9,3034.3z"/>
<path class="st9" d="M1719.8,3034.1c0,0,3-24.6,1.4-38.9c-1.8-16.7-6.5,5-6.5,5L1719.8,3034.1z"/>
<path class="st9" d="M1675.9,3036.1c0,0,2.7-17.6,3-25.8c0.4-8.2-7.5,17-7.5,17L1675.9,3036.1z"/>
<path class="st6" d="M1747.2,2995.7c0,0,1.9,19.5-0.3,38.4"/>
<path class="st6" d="M1793.2,2950.9c0,0,2.7,43.7,0,83.2"/>
<path class="st6" d="M1838.1,2883.9c0,0,7.4,64.5,0,152.2"/>
<path class="st9" d="M1810.8,2884c0,0,4.6,107.7-1.1,150.1c-5.7,42.4-6.3-11.7-6.3-11.7V2877L1810.8,2884z"/>
<g>
	<path class="st6" d="M679.1,3888.2c-22.1-41.7,15.1-89.1,39.4-77.8c16.5,7.7,43.4-16.3,54.3-3.4c-6.6-24.5-52.3-23.3-78.9-23.3
		c-31.8,0-41.7,43.9-39.6,79.9"/>
</g>
<path class="st9" d="M722,3811.2c0,0-28-10.4-50.5-39.2v8.1c0,0-4,11.4,2.5,18.5c6.5,7,22.8,17.5,22.8,17.5L722,3811.2z"/>
<circle class="st6" cx="686.9" cy="3827" r="39.1"/>
<path class="st9" d="M686.5,3788.2c0,0-15,12.5-30.1,44.7c0,0-2-33.7,15.2-60.9C671.5,3772,677.3,3780,686.5,3788.2z"/>
<g>
	<g>
		<path class="st6" d="M4261.4,2927.9c24,68,20.1,141.2-11,206.2c-31.1,65-85.7,114.1-153.6,138.1c-29.4,10.4-59.8,15.5-90,15.5
			c-39.7,0-79-9.6-116.2-26.5c-68.8-31.3-114.1-85.6-138.1-153.6s-20.1-141.2,11-206.2c31.1-65,85.6-114.1,153.6-138.1
			c53.1-18.7,109.7-20.5,163.7-5c6.8,2,10.8,9.1,8.8,15.9c-1.9,6.8-9.1,10.8-15.9,8.8c-48.9-14-100.1-12.4-148.1,4.5
			c-126.9,44.8-193.8,184.6-148.9,311.5c21.7,61.5,66.1,110.9,124.9,139c55.4,26.5,128.6,28.3,186.6,7.8
			c61.5-21.7,109.8-63.9,137.9-122.7c26.5-55.4,29.4-128.6,8.9-186.6"/>
	</g>
	<g>
		<path class="st6" d="M4217.5,2943.4c21.1,59.7,18.3,115.5-9.1,172.8c-25.7,53.8-68.7,93.3-124.9,113.1c-24.3,8.6-51.6,15-76.7,15
			c-32.9,0-65.6-10.6-96.1-25.2c-53.8-25.7-94.4-70.9-114.2-127.1c-41-116.1,20.1-243.9,136.2-284.9c43.3-15.3,89.5-16.9,133.7-4.7
			l-6.9,24.8c-39.1-10.8-80-9.4-118.3,4.1c-102.7,36.3-156.8,149.4-120.5,252.1c17.6,49.8,53.5,89.7,101.1,112.5
			c47.6,22.8,100.9,25.2,151,8.1c49.9-17.1,89.7-53.5,112.5-101.1c22.8-47.6,25.6-101.2,8.1-151"/>
	</g>
	<g>
		<path class="st6" d="M4007.1,3195.8c-72.5,0-140.5-47.4-166-119.5c-32.3-91.5,15.8-192.1,107.3-224.4
			c33.4-11.8,69.1-13.3,103.2-4.3l-6.5,24.9c-29.1-7.7-59.6-6.4-88.1,3.7c-78.1,27.6-119.2,113.5-91.6,191.6
			c21.8,61.6,79.9,100.2,141.8,100.2c16.6,0,33.4-2.8,49.9-8.6c37.8-13.4,68.2-40.6,85.5-76.8c17.3-36.2,19.5-77,6.1-114.8
			c-2.4-6.8-5.4-13.6-8.8-20.1l22.7-12c4,7.6,7.5,15.5,10.3,23.5c33.2,94.2-8.9,191.3-106.2,226.6
			C4047.3,3192.7,4026.5,3195.8,4007.1,3195.8z"/>
	</g>
	<g>
		<path class="st6" d="M4134.8,2978.3c21.1,67.1-19.3,142.9-84,165.7c-14.3,5.1-29.2,7.6-43.9,7.6c-19.4,0-38.7-6.5-56.7-15.1
			c-31.7-15.2-55.7-41.8-67.4-75c-24.2-68.5,11.9-143.9,80.3-168.1c24-8.5,49.8-9.8,74.5-3.9c6.9,1.7,11.1,8.6,9.5,15.5
			c-1.7,6.9-8.6,11.2-15.5,9.5c-19.9-4.8-40.6-3.7-60,3.1c-55.1,19.5-84.1,80.1-64.7,135.3c9.4,26.7,28.7,48.1,54.2,60.4
			c25.6,12.2,55.4,15.9,82.1,6.5c54.1-19.1,81.9-79.1,64.8-133.8"/>
	</g>
	<g>
		<polygon points="4066.9,2987.6 3718.7,3115.8 3669.1,2804.5 4099.8,2681.7 		"/>
	</g>
	<g>
		<path class="st7" d="M4121.8,3028.5"/>
	</g>
	<g>
		<polyline points="4149.4,3022.3 4132.8,2959.4 4094.7,2971.5 4110.9,3025.8 		"/>
	</g>
	<g>
		<path class="st7" d="M4153.1,2894.8"/>
		<path class="st7" d="M4213.6,2933.1"/>
		<path class="st7" d="M4188.5,2940.2"/>
	</g>
	<g>
		<path class="st6" d="M3911.1,3062"/>
	</g>
	<g>
		<path class="st8" d="M3721.5,2789.6"/>
	</g>
	<g>
		<rect x="4138.6" y="2859.7" width="159.6" height="174.2"/>
	</g>
	<g>
		<path class="st8" d="M4105.7,3308.3"/>
	</g>
	<g>
		<path class="st6" d="M3941.1,3100.6c0,0-64-53.6-19.8-131.7c3.7-6.5,73-28.2,117.1-18.8c10.6,2.3,15.6,9.6,35.1,8.5
			s23.8-24.9,42.7-53.9c26.8-40.9,6.7-70.3-10.2-90c-22.3-26.1-37.4-65.2-71.7-69.1s-139.4-5.5-225.5,82.2
			c-25.9,26.3-50.6,64.8-48.7,80.6c1.7,14.6,1.3,41,0.3,51c-2.9,29.4-17.5,57.5-20.5,77c-5,31.8,2.3,46.7,12.3,75.6
			c26.7,77.2,98,140.4,174,149.8c39.3,4.8,61.3,11.9,75,10c28.1-3.9,13.4-17.6-4.2-31.4c-13.2-10.3,10.1-13.1,10.1-13.1l1.1-9.5
			l5.2,0.8l2-47.3l-4.3-25.7C3927.9,3139,3941.1,3100.6,3941.1,3100.6z"/>
	</g>
	<g>
		<path class="st9" d="M4016.7,3259.5c-85.9,0-148.6-48.3-152.6-71.1c0,0,77,76.4,191.9,48.9"/>
	</g>
	<g>
		<path class="st9" d="M4015.6,3215c-85.9,0-134.5-54.2-138.5-77c0,0,63.3,80.5,179,51"/>
	</g>
	<g>
		<path class="st9" d="M4055.4,3145.5c-115.7,29.4-159-56.8-159-56.8c4,22.8,32.4,79,118.3,79L4055.4,3145.5z"/>
	</g>
	<g>
		<rect x="4248.4" y="2888.1" class="st6" width="27.9" height="145.8"/>
	</g>
	<g>
		<rect x="4204" y="2956.1" class="st6" width="26.8" height="77.9"/>
	</g>
	<g>
		<rect x="4156.3" y="3001.5" class="st6" width="27.8" height="32.4"/>
	</g>
	<g>
		<polygon class="st6" points="4112.6,3024.2 4139.8,3024.2 4139,3033.9 4112.6,3036.9 		"/>
	</g>
</g>
<path class="st6" d="M3769.8,2879.2c0,0-54.9,87.3-28.6,198.5l77.6-82.6L3769.8,2879.2z"/>
<path class="st9" d="M4012,3151.7"/>
<path class="st6" d="M4028.3,3214c0,0-72,6.3-119-47.9c-39.2-45.2-45.2-29.2-45.2-29.2l44,58.9l98.8,24.6L4028.3,3214z"/>
<path class="st6" d="M3963.3,3238.7c0,0,58.3,40.2,153.2-4.9c94.9-45.1-6.1,10.9-6.1,10.9l-71.8,23.8l-92.4-10.8l-78.3-42.7
	l-11.9-26.7l8.1-11.5l87.5,47L3963.3,3238.7z"/>
<ellipse class="st6" cx="4022.9" cy="2879.3" rx="135.8" ry="135.1"/>
<rect x="4248.2" y="3030.5" class="st6" width="28.1" height="5.4"/>
<rect x="4204" y="3030.5" class="st6" width="26.4" height="5.4"/>
<rect x="4157" y="3030.5" class="st6" width="26.4" height="5.4"/>
<path class="st9" d="M3915,2992.5c0,0,19.7-10,14.4-15.2c-3.7-3.6-6.7-6.7-8.1-8.4c-7.6-9.4-64.3,11.7-51.4,55.5L3915,2992.5"/>
<circle class="st6" cx="3900.8" cy="3021.4" r="35.2"/>
<g>
	<g>
		<polygon points="2445.4,2985.3 2107.6,3109.7 2059.5,2807.8 2477.3,2688.7 		"/>
	</g>
	<g>
		<path class="st7" d="M2498.6,3025.1"/>
	</g>
	<g>
		<path class="st7" d="M2529,2895.3"/>
	</g>
	<g>
		<path class="st6" d="M2294.2,3057.6"/>
	</g>
	<g>
		<path class="st8" d="M2110.3,2793.3"/>
	</g>
	<g>
		<path class="st6" d="M2422.5,3113.7c-25.9,9.1-54.9,5.6-79.6-6.3c-24.8-11.8-43.5-32.6-52.6-58.5c-18.9-53.5,9.3-112.3,62.7-131.2
			c18.8-6.6,38.9-7.7,58.2-3c6.7,1.6,13.4-2.5,15-9.2c1.6-6.7-2.5-13.4-9.2-15c-24-5.8-49-4.5-72.3,3.8
			c-66.4,23.4-101.4,96.6-77.9,163c11.4,32.2,34.6,58,65.4,72.7c17.5,8.4,36.2,14.7,55,14.7c14.3,0,28.7-2.4,42.6-7.4
			c51-18,85.4-70.1,85.8-123.9h-24.3C2490.8,3056.7,2465.4,3098.5,2422.5,3113.7z"/>
	</g>
	<g>
		<path class="st8" d="M2483,3296.5"/>
	</g>
	<g>
		<path class="st6" d="M2323.3,3095c0,0-62.1-52-19.2-127.7c3.6-6.3,70.8-27.4,113.6-18.2c10.3,2.2,15.1,9.3,34.1,8.3
			c18.9-1,23-24.2,41.4-52.3c26-39.7,6.5-68.2-9.8-87.3c-21.6-25.3-36.1-59.9-69.1-65.4c-31.8-5.4-135.7-6.9-219.2,78.1
			c-25.1,25.6-49.1,62.8-47.3,78.2c1.7,14.2,1.2,39.8,0.3,49.5c-2.9,28.5-17,55.8-19.9,74.7c-4.9,30.8,2.2,45.3,11.9,73.3
			c25.9,74.9,95,136.2,168.8,145.3c38.1,4.7,59.4,11.5,72.8,9.7c27.2-3.7,13-17.1-4.1-30.5c-12.8-10,9.8-12.7,9.8-12.7l1.1-9.2
			l5,0.8l2-45.9l-4.2-24.9C2310.6,3132.2,2323.3,3095,2323.3,3095z"/>
	</g>
	<g>
		<path class="st9" d="M2396.7,3249.1c-83.3,0-144.1-46.8-148-69c0,0,74.7,74.1,186.1,47.4"/>
	</g>
	<g>
		<path class="st9" d="M2395.6,3206c-83.3,0-130.5-52.6-134.4-74.7c0,0,61.4,78.1,173.6,49.5"/>
	</g>
	<g>
		<path class="st9" d="M2434.2,3138.6c-112.2,28.6-154.2-55.1-154.2-55.1c3.9,22.1,31.4,76.7,114.7,76.6L2434.2,3138.6z"/>
	</g>
	<g>
		<path class="st6" d="M2380.1,2777.8l72,9C2428.4,2780.1,2404.2,2777.1,2380.1,2777.8z"/>
		<path class="st6" d="M2648.5,2881.7h-27v131.6h-0.1c0.3,36.7-6.9,72.7-21.6,103.5c-27.3,57.1-74.1,98-133.8,119.1
			c-56.3,19.9-127.3,18.1-181-7.6c-57.1-27.3-100.1-75.2-121.2-134.8c-43.5-123.1,21.3-258.7,144.5-302.1
			c23.3-8.2,47.5-12.7,71.7-13.5l-80-10c-65.9,23.3-118.8,70.8-149,133.9c-30.2,63.1-33.9,134.1-10.7,200
			c23.3,65.9,67.2,118.7,133.9,149c36.1,16.4,74.2,25.7,112.7,25.7c29.4,0,58.8-5,87.3-15.1c65.9-23.3,118.8-70.8,149-133.9
			c17.3-36.3,25.9-75.4,25.7-114.2L2648.5,2881.7z"/>
	</g>
	<path class="st6" d="M2603.8,2947.5h-25.8l-0.1,65.8l0,0c0.2,28.7-5,57.3-17.8,84c-22.1,46.2-60.7,81.4-109.1,98
		c-48.6,16.7-100.3,14.3-146.5-7.8c-46.2-22.1-81-60.8-98-109.1c-35.2-99.6,17.3-209.3,116.9-244.5c37.2-13.1,76.8-14.5,114.8-4
		l6.7-24c-42.9-11.9-87.7-10.3-129.7,4.5c-112.6,39.8-171.9,163.7-132.1,276.3c19.3,54.5,58.6,98.3,110.8,123.3
		c29.6,14.2,61.4,24.4,93.3,24.4c24.3,0,50.8-6.2,74.4-14.6c54.5-19.3,96.2-57.6,121.2-109.8c15.5-32.4,21.8-64.5,21.2-96.8l0,0
		L2603.8,2947.5z"/>
	<path class="st6" d="M2531.9,3013.2c0.2,21.9-3.5,43.8-13.2,64.2c-16.8,35.1-46.2,61.6-82.9,74.5c-16,5.6-32.3,8.3-48.4,8.3
		c-60,0-116.4-37.4-137.5-97.2c-26.7-75.7,13.1-159.1,88.9-185.9c27.6-9.8,57.2-11,85.4-3.6l6.3-24.1c-33.1-8.7-67.7-7.3-100.1,4.2
		c-88.7,31.3-135.4,129-104.1,217.7c24.7,70,90.7,115.9,161,115.9c18.8,0,39-3,57.7-9.7c75.2-27.3,115.4-92.7,112.7-164.3l0.1-21.6
		H2532L2531.9,3013.2z"/>
</g>
<path class="st6" d="M2157.2,2880.3c0,0-53.2,84.7-27.7,192.6l75.3-80.2L2157.2,2880.3z"/>
<path class="st9" d="M2392.1,3144.5"/>
<path class="st6" d="M2408,3205c0,0-69.8,6.2-115.4-46.4c-38-43.8-43.8-28.4-43.8-28.4l42.7,57.1l95.8,23.8L2408,3205z"/>
<path class="st6" d="M2344.9,3229c0,0,56.6,39,148.6-4.7s-5.9,10.5-5.9,10.5l-69.6,23.1l-89.6-10.5l-76-41.4l-11.5-25.9l7.9-11.1
	l84.9,45.6L2344.9,3229z"/>
<ellipse class="st6" cx="2386.6" cy="2881.3" rx="132.7" ry="132"/>
<circle class="st6" cx="2310.6" cy="3009.3" r="31.1"/>
<g>
	<g>
		<polygon points="3259.7,2985.9 2918.4,3111.6 2869.7,2806.5 3292,2686 		"/>
	</g>
	<g>
		<path class="st7" d="M3313.6,3026.1"/>
	</g>
	<g>
		<path class="st7" d="M3344.2,2894.9"/>
		<path class="st7" d="M3402.5,2932.5"/>
	</g>
	<g>
		<path class="st6" d="M3107,3058.9"/>
	</g>
	<g>
		<path d="M2921.1,2791.8"/>
	</g>
	<g>
		<path class="st6" d="M3242,3113.4c-26.2,9.2-60.9,7.8-85.9-4.2c-25-12-43.9-33-53.2-59.2c-19.1-54,9.4-113.5,63.4-132.6
			c19-6.7,39.3-7.7,58.8-3.1c6.8,1.6,13.6-2.5,15.2-9.3c1.6-6.8-2.5-13.6-9.3-15.2c-24.3-5.8-49.5-4.5-73.1,3.8
			c-67.1,23.7-102.5,97.6-78.8,164.7c11.5,32.5,34.9,58.6,66.1,73.5c17.7,8.4,36.6,14.8,55.6,14.8c14.5,0,34.5-4.6,48.5-9.6
			c51.6-18.2,79.8-68.7,80.2-123.1H3305C3304.5,3058,3285.4,3098.1,3242,3113.4z"/>
	</g>
	<g>
		<path class="st8" d="M3297.8,3300.3"/>
	</g>
	<g>
		<path class="st6" d="M3136.4,3096.7c0,0-62.7-52.5-19.4-129.1c3.6-6.4,71.6-27.7,114.8-18.4c10.4,2.2,15.3,9.4,34.4,8.4
			c19.1-1,23.3-24.5,41.9-52.9c26.3-40.1,6.6-68.9-10-88.3c-21.9-25.5-36.5-60.5-69.9-66.1c-32.1-5.4-137.1-6.9-221.5,79
			c-25.4,25.8-49.6,63.5-47.8,79c1.7,14.3,1.2,40.2,0.3,50c-2.9,28.8-17.1,56.4-20.1,75.5c-4.9,31.2,2.2,45.8,12.1,74.1
			c26.2,75.7,96.1,137.7,170.6,146.8c38.5,4.7,60.1,11.7,73.5,9.8c27.5-3.8,13.2-17.3-4.2-30.8c-13-10.1,9.9-12.8,9.9-12.8l1.1-9.3
			l5.1,0.8l2-46.4l-4.2-25.2C3123.5,3134.3,3136.4,3096.7,3136.4,3096.7z"/>
	</g>
	<g>
		<path class="st9" d="M3210.6,3252.4c-84.2,0-145.6-47.3-149.6-69.7c0,0,75.5,74.9,188.1,47.9"/>
	</g>
	<g>
		<path class="st9" d="M3209.4,3208.9c-84.2,0-131.9-53.2-135.8-75.5c0,0,62,78.9,175.4,50"/>
	</g>
	<g>
		<path class="st9" d="M3248.4,3140.7c-113.4,28.9-155.9-55.7-155.9-55.7c3.9,22.4,31.7,77.5,116,77.4L3248.4,3140.7z"/>
	</g>
	<g>
		<path class="st6" d="M3193.7,2776.1l72.7,9.1C3242.5,2778.5,3218.1,2775.4,3193.7,2776.1z"/>
		<path class="st6" d="M3465,2881.1h-27.3v133h-0.1c0.3,37.1-7,73.5-21.9,104.6c-27.6,57.7-74.9,99.1-135.2,120.3
			c-56.9,20.1-128.6,18.3-182.9-7.6c-57.7-27.6-101.2-76-122.5-136.3c-43.9-124.5,21.6-261.4,146-305.4c23.6-8.3,48-12.9,72.5-13.6
			l-80.8-10.2c-66.6,23.5-120.1,71.6-150.6,135.3c-30.5,63.8-34.3,135.6-10.8,202.2c23.5,66.6,67.9,120,135.3,150.6
			c36.5,16.6,75,26,113.9,26c29.7,0,59.5-5.1,88.3-15.2c66.6-23.5,120.1-71.6,150.6-135.4c17.5-36.7,26.2-76.2,26-115.5L3465,2881.1
			z"/>
	</g>
	<path class="st6" d="M3419.8,2947.6h-26.1l-0.1,66.5l0,0c0.2,29-5,58-17.9,84.9c-22.3,46.7-61.3,82.3-110.3,99.1
		c-49.1,16.8-101.4,14.4-148-7.9c-46.7-22.3-81.9-61.5-99.1-110.3c-35.6-100.7,17.5-211.6,118.2-247.1c37.6-13.3,77.7-14.6,116-4
		l6.7-24.3c-43.3-12-88.7-10.4-131.1,4.6c-113.8,40.2-173.7,165.5-133.5,279.3c19.5,55.1,59.2,99.4,112,124.6
		c29.9,14.3,62,24.7,94.3,24.7c24.6,0,51.3-6.3,75.2-14.7c55.1-19.5,97.3-58.2,122.5-110.9c15.7-32.8,22-65.2,21.4-97.9l0,0
		L3419.8,2947.6z"/>
	<path class="st6" d="M3347.1,3014.1c0.2,22.2-3.5,44.3-13.4,64.9c-17,35.5-46.7,62.2-83.8,75.3c-16.2,5.7-32.6,8.4-48.9,8.4
		c-60.7,0-117.6-37.8-139-98.2c-27-76.6,13.3-160.8,89.8-187.9c27.9-9.9,57.8-11.1,86.3-3.6l6.4-24.4c-33.5-8.8-68.4-7.4-101.2,4.2
		c-89.7,31.7-136.8,130.3-105.2,220c25,70.7,91.7,117.2,162.8,117.2c19,0,39.5-3,58.3-9.8c76-27.6,116.6-93.7,113.9-166.1l0.1-21.8
		h-26.2L3347.1,3014.1z"/>
</g>
<path class="st6" d="M2968.5,2879.7c0,0-53.8,85.6-28,194.6l76.1-81L2968.5,2879.7z"/>
<path class="st9" d="M3205.9,3146.8"/>
<path class="st6" d="M3221.9,3207.9c0,0-70.6,6.2-116.7-46.9c-38.4-44.3-44.3-28.7-44.3-28.7l43.1,57.7l96.8,24.1L3221.9,3207.9z"/>
<ellipse class="st6" cx="3200.3" cy="2880.7" rx="134.1" ry="133.4"/>
<polygon class="st6" points="2498.6,3047 2632.3,3047 2606.9,3139.6 2529,3225.8 2386.6,3260.1 2291.9,3234.4 2268.4,3072.8 
	2294.2,3089.2 2360.2,3122 2408,3122 2442.9,3121.7 2483,3091.4 "/>
<polygon class="st6" points="3206,3132.9 3206,3261.5 3103.7,3250.3 3031.6,3171.1 3086,3074.3 3125.3,3107.8 3188.7,3138.3 "/>
<g>
	<polygon points="2445.7,3795.8 2106.8,3920.6 2058.5,3617.7 2477.8,3498.1 	"/>
</g>
<g>
	<path class="st7" d="M2499.2,3835.7"/>
</g>
<g>
	<path class="st7" d="M2529.6,3705.5"/>
	<path class="st7" d="M2587.4,3742.7"/>
</g>
<g>
	<path class="st6" d="M2294,3868.3"/>
</g>
<g>
	<path class="st8" d="M2109.5,3603.1"/>
</g>
<g>
	<path class="st6" d="M2428.2,3922.4c-26,9.2-60.5,7.7-85.3-4.2c-24.9-11.9-43.6-32.7-52.8-58.7c-18.9-53.6,9.3-112.7,62.9-131.6
		c18.8-6.6,39-7.7,58.4-3c6.7,1.6,13.5-2.5,15.1-9.2c1.6-6.7-2.5-13.5-9.2-15.1c-24.1-5.8-49.2-4.5-72.6,3.8
		c-66.7,23.5-101.7,96.9-78.2,163.6c11.4,32.3,34.7,58.2,65.6,73c17.5,8.4,36.3,12.6,55.2,12.6c14.4,0,34.2-2.5,48.2-7.4
		c51.2-18.1,79.2-68.2,79.6-122.2h-24.4C2490.1,3867.3,2471.2,3907.2,2428.2,3922.4z"/>
</g>
<g>
	<path class="st8" d="M2533.8,4158.8"/>
</g>
<g>
	<path class="st9" d="M2396.9,4060.4c-83.6,0-144.6-47-148.5-69.2c0,0,74.9,74.4,186.7,47.6"/>
</g>
<g>
	<path class="st9" d="M2395.8,4017.2c-83.6,0-130.9-52.8-134.8-75c0,0,61.6,78.3,174.2,49.7"/>
</g>
<g>
	<path class="st6" d="M2380.2,3587.6l72.2,9.1C2428.6,3589.9,2404.3,3586.8,2380.2,3587.6z"/>
	<path class="st6" d="M2308.2,3601.1c-123.6,43.6-188.6,179.6-145,303.2c21.1,59.9,64.3,107.9,121.6,135.3
		c53.9,25.8,125.1,27.5,181.6,7.6c59.9-21.1,106.8-62.2,134.2-119.5c14.8-30.9,22-67,21.7-103.8h0.1v-132h27.1l0.6,132
		c0.2,39-8.4,78.2-25.8,114.6c-30.3,63.3-83.4,111-149.5,134.4c-28.6,10.1-58.2,15.1-87.6,15.1c-38.7,0-76.8-9.4-113.1-25.8
		c-67-30.4-111-83.4-134.4-149.5c-23.4-66.2-19.6-137.4,10.7-200.7c30.3-63.3,83.4-111,149.5-134.4c0,0,37.1-18.5,86.8-18.5
		s6,22.8,6,22.8L2308.2,3601.1z"/>
</g>
<path class="st6" d="M2604.6,3757.8h-25.9l-0.1,66l0,0c0.2,28.8-5,57.5-17.8,84.3c-22.2,46.3-60.9,81.7-109.5,98.4
	c-48.7,16.7-100.6,14.3-147-7.8c-46.3-22.2-81.3-61-98.4-109.5c-35.3-100,17.3-210,117.3-245.3c37.3-13.2,77.1-14.5,115.2-4
	l6.7-24.1c-43-11.9-88-10.3-130.2,4.5c-113,39.9-172.5,164.3-132.6,277.3c19.3,54.7,58.8,98.7,111.2,123.7
	c29.7,14.2,61.6,23.4,93.6,23.4c24.4,0,50.9-5.2,74.6-13.5c54.7-19.3,96.6-57.8,121.6-110.1c15.6-32.5,21.9-64.7,21.3-97.2l0,0
	L2604.6,3757.8z"/>
<path class="st6" d="M2532.5,3823.8c0.2,22-3.5,44-13.3,64.4c-16.8,35.2-46.4,61.8-83.2,74.8c-16,5.7-32.4,9.4-48.5,9.4
	c-60.2,0-116.8-38.6-138-98.6c-26.8-76,13.2-159.7,89.2-186.5c27.7-9.8,57.4-11,85.7-3.6l6.4-24.2c-33.2-8.7-67.9-7.3-100.4,4.2
	c-89,31.4-135.9,129.4-104.4,218.4c24.8,70.2,91,115.2,161.6,115.2c18.9,0,39.2-1.9,57.9-8.7c75.5-27.4,115.8-93,113.1-164.9
	l0.1-21.6h-26L2532.5,3823.8z"/>
<path class="st9" d="M2392.2,3955.5"/>
<ellipse class="st6" cx="2386.7" cy="3691.4" rx="133.2" ry="132.4"/>
<path class="st6" d="M2327.4,3920.6l-121,85.6c0,0-101.2-114.3-68.7-233.3s156-176.3,156-176.3l15.6,170.3
	C2309.3,3767,2202.6,3817.7,2327.4,3920.6z"/>
<g>
	<path class="st8" d="M2721.2,3820.3"/>
</g>
<g>
	<polygon points="3257.6,3795.3 2917.1,3920.8 2868.5,3616.4 3289.8,3496.2 	"/>
</g>
<g>
	<path class="st7" d="M3311.3,3835.4"/>
</g>
<g>
	<path class="st7" d="M3341.8,3704.6"/>
	<path class="st7" d="M3400,3720.3"/>
</g>
<g>
	<path class="st6" d="M3105.2,3868.2"/>
</g>
<g>
	<path class="st6" d="M3239.9,3922.5c-26.1,9.2-60.7,7.8-85.7-4.2c-25-11.9-43.8-32.9-53-59c-19-53.9,9.3-113.2,63.2-132.3
		c18.9-6.7,39.2-7.7,58.6-3c6.7,1.6,13.5-2.5,15.2-9.3c1.6-6.7-2.5-13.5-9.3-15.2c-24.2-5.8-49.4-4.5-72.9,3.8
		c-67,23.6-102.2,97.4-78.6,164.3c11.5,32.4,34.9,58.5,65.9,73.3c17.6,8.4,36.5,11.5,55.5,11.5c14.4,0,34.4-1.4,48.4-6.3
		c51.4-18.2,79.6-68.5,80-122.8h-24.5C3302.2,3867.2,3283.2,3907.3,3239.9,3922.5z"/>
</g>
<g>
	<path class="st9" d="M3208.5,4061.2c-84,0-145.3-47.2-149.2-69.5c0,0,75.3,74.7,187.6,47.8"/>
</g>
<g>
	<path class="st9" d="M3207.4,4017.8c-84,0-131.5-53-135.5-75.3c0,0,61.9,78.7,175,49.9"/>
</g>
<g>
	<path class="st6" d="M3191.7,3586.1l72.6,9.1C3240.4,3588.4,3216,3585.4,3191.7,3586.1z"/>
	<path class="st6" d="M3119.4,3599.7c-124.1,43.8-189.5,180.5-145.7,304.6c21.2,60.1,64.6,108.4,122.1,135.9
		c54.1,25.9,125.7,28.7,182.5,8.7c60.1-21.2,107.4-63.6,134.9-121.1c14.9-31.1,22.1-67.4,21.8-104.3h0.1v-141.9h27.2l0.6,141.9
		c0.2,39.1-8.4,78.6-25.9,115.2c-30.4,63.6-83.8,111.6-150.2,135c-28.7,10.1-58.4,15.2-88.1,15.2c-38.9,0-77.2-9.4-113.6-26
		c-67.3-30.6-111.5-83.8-135-150.2c-23.5-66.5-19.6-138.1,10.8-201.7c30.4-63.6,83.8-111.5,150.2-135c0,0,37.3-18.6,87.2-18.6
		s6,22.9,6,22.9L3119.4,3599.7z"/>
</g>
<path class="st6" d="M3417.2,3757.1h-26.1l-0.1,66.3l0,0c0.2,29-5,57.8-17.9,84.7c-22.3,46.6-61.2,82.1-110,98.8
	c-49,16.8-101.1,14.4-147.7-7.9c-46.6-22.3-81.7-61.3-98.8-110c-35.5-100.5,17.4-211,117.9-246.5c37.5-13.2,77.5-14.6,115.7-4
	l6.7-24.2c-43.2-12-88.5-10.4-130.8,4.5c-113.5,40.1-173.3,165-133.2,278.6c19.4,55,59.1,99.1,111.7,124.3
	c29.9,14.3,61.9,21.4,94,21.4c24.5,0,51.2-3,75-11.4c55-19.4,97-58,122.2-110.7c15.6-32.7,22-65,21.4-97.6l0,0L3417.2,3757.1z"/>
<path class="st6" d="M3344.8,3823.5c0.2,22.1-3.5,44.2-13.3,64.7c-16.9,35.4-43.4,65.3-80.3,78.4c-16.1,5.7-36.9,7.3-53.1,7.3
	c-60.5,0-116.3-39.9-137.5-100.2c-27-76.4,13.2-160.4,89.6-187.4c27.9-9.8,57.7-11.1,86.1-3.6l6.4-24.3
	c-33.4-8.8-68.3-7.3-100.9,4.2c-89.4,31.6-136.5,130-104.9,219.5c24.9,70.6,91.4,115.8,162.3,115.8c19,0,39.4-1.9,58.2-8.7
	c75.8-27.5,116.3-93.4,113.6-165.7l0.1-21.7h-26.1L3344.8,3823.5z"/>
<path class="st9" d="M3203.9,3955.8"/>
<ellipse class="st6" cx="3198.3" cy="3690.4" rx="133.8" ry="133"/>
<path class="st6" d="M3138.7,3920.8l-79.4-20.8c0,0-143.9-8-111.3-127.6c32.6-119.6,156.8-177.1,156.8-177.1l15.7,171.1
	C3120.5,3766.4,3013.3,3817.3,3138.7,3920.8z"/>
<rect x="3302.6" y="3818.8" class="st6" width="24.7" height="4.7"/>
<rect x="3344.9" y="3773.1" class="st6" width="26.1" height="28.6"/>
<rect x="3391.2" y="3729.8" class="st6" width="26.1" height="27.4"/>
<polygon class="st6" points="3098.1,3942 3169.8,3942 3100.3,3903.4 3061.4,3902.8 "/>
<polygon class="st6" points="3070.9,3969 3129.6,3969 3045.9,3889 3007.8,3889 3057.1,3979.2 "/>
<polygon class="st6" points="3032.8,3996 3069.8,3996 2986.4,3856.5 2959.8,3855.4 2968.4,3937.4 3010.8,3996 "/>
<g>
	<text transform="matrix(1 0 0 1 2216.7441 4181.0063)" class="st6 st10 st11 st12">Spongebob</text>
</g>
<text transform="matrix(1 0 0 1 2343.1704 3372.5547)" class="st6 st10 st11 st12">Oil</text>
<circle class="st6" cx="4221.6" cy="2820.8" r="17.6"/>
<circle class="st6" cx="4252.7" cy="2767.5" r="7"/>
<polygon points="3276.6,3898.4 3473.8,3681 3462.9,3665.7 3391,3696 3289.5,3818.4 "/>
<polygon class="st6" points="3117.9,4068.3 3237.4,3937.4 3257.9,3932.4 3087.8,3939.3 3001.4,3989.2 "/>
<circle class="st6" cx="3404.1" cy="3676.9" r="12.4"/>
<circle class="st6" cx="3427.1" cy="3653" r="8.1"/>
<line class="st13" x1="3059.3" y1="4132.3" x2="3514.5" y2="3639.7"/>
<line class="st13" x1="3389.5" y1="3773" x2="3389.5" y2="3594"/>
<line class="st13" x1="3417.5" y1="3744" x2="3417.5" y2="3593"/>
<line class="st13" x1="3435.5" y1="3725" x2="3435.5" y2="3593"/>
<line class="st13" x1="2763" y1="3690.5" x2="3611" y2="3690.5"/>
<line class="st13" x1="2763" y1="3662.5" x2="3611" y2="3662.5"/>
<circle class="st14" cx="3201.9" cy="3823.5" r="106.1"/>
<ellipse class="st14" cx="3198.3" cy="3690.4" rx="133.8" ry="133"/>
<g>
	<polygon points="4064.6,4601.7 3733.9,4723.5 3686.7,4427.9 4095.9,4311.2 	"/>
</g>
<g>
	<path class="st7" d="M4116.8,4640.6"/>
</g>
<g>
	<path class="st7" d="M4146.5,4513.5"/>
	<path class="st7" d="M4202.9,4528.8"/>
</g>
<g>
	<path class="st6" d="M3916.6,4672.4"/>
</g>
<g>
	<path class="st6" d="M4047.5,4725.2c-25.4,9-59,7.6-83.3-4c-24.3-11.6-42.6-32-51.5-57.3c-18.5-52.4,9.1-110,61.4-128.5
		c18.4-6.5,38.1-7.5,57-3c6.5,1.6,13.1-2.5,14.7-9c1.6-6.6-2.5-13.1-9-14.7c-23.5-5.7-48-4.4-70.8,3.7c-65,23-99.3,94.6-76.3,159.6
		c11.1,31.5,33.9,56.8,64,71.2c17.1,8.2,35.5,11.2,53.9,11.2c14,0,33.4-1.3,47-6.1c49.9-17.6,77.3-66.5,77.7-119.2h-23.8
		C4108,4671.5,4089.5,4710.4,4047.5,4725.2z"/>
</g>
<g>
	<path class="st9" d="M4017,4859.9c-81.6,0-141.1-45.9-144.9-67.5c0,0,73.1,72.6,182.2,46.4"/>
</g>
<g>
	<path class="st9" d="M4015.9,4817.7c-81.6,0-127.8-51.5-131.6-73.2c0,0,60.1,76.4,170,48.5"/>
</g>
<g>
	<path class="st6" d="M4000.6,4398.5l70.5,8.9C4048,4400.7,4024.2,4397.8,4000.6,4398.5z"/>
	<path class="st6" d="M3930.4,4411.7c-120.6,42.6-184,175.3-141.5,295.9c20.6,58.4,62.8,105.3,118.6,132
		c52.6,25.1,122.1,27.9,177.2,8.5c58.4-20.6,104.3-61.8,131-117.6c14.4-30.2,21.5-65.4,21.2-101.3h0.1v-137.8l26.4-31.7l0.6,169.5
		c0.2,38-8.2,76.3-25.2,111.9c-29.5,61.8-81.4,108.4-145.9,131.1c-27.9,9.9-56.8,14.8-85.5,14.8c-37.7,0-75-9.1-110.4-25.2
		c-65.3-29.7-108.3-81.3-131.1-145.9c-22.8-64.6-19.1-134.1,10.4-195.9c29.5-61.8,81.3-108.3,145.9-131.1c0,0,36.2-18.1,84.7-18.1
		c48.4,0,5.8,22.2,5.8,22.2L3930.4,4411.7z"/>
</g>
<path class="st6" d="M4219.7,4543.5l-25.3,21.1l-0.1,64.4l0,0c0.2,28.1-4.9,56.1-17.4,82.3c-21.6,45.2-59.4,79.7-106.8,96
	c-47.6,16.3-98.2,14-143.4-7.7c-45.2-21.6-79.3-59.6-96-106.8c-34.4-97.6,16.9-205,114.5-239.4c36.4-12.8,75.2-14.2,112.4-3.9
	l6.5-23.5c-42-11.6-85.9-10.1-127,4.4c-110.3,38.9-168.3,160.3-129.4,270.6c18.9,53.4,57.4,96.3,108.5,120.7
	c29,13.9,60.1,20.8,91.3,20.8c23.8,0,49.7-2.9,72.8-11.1c53.4-18.9,94.2-56.4,118.7-107.5c15.2-31.7,21.3-63.2,20.7-94.8l0,0
	L4219.7,4543.5z"/>
<path class="st6" d="M4149.3,4629c0.2,21.5-3.4,42.9-13,62.9c-16.4,34.4-42.1,63.5-78,76.1c-15.7,5.5-35.9,7.1-51.6,7.1
	c-58.8,0-112.9-38.8-133.6-97.3c-26.2-74.2,12.9-155.8,87-182c27.1-9.6,56-10.8,83.7-3.5l6.2-23.6c-32.4-8.5-66.3-7.1-98,4.1
	c-86.9,30.7-132.6,126.3-101.9,213.1c24.2,68.5,88.8,112.5,157.7,112.5c18.4,0,38.2-1.9,56.5-8.5c73.7-26.7,113-90.7,110.4-160.9
	l0.1-21.1h-25.3L4149.3,4629z"/>
<path class="st9" d="M4012.4,4757.6"/>
<path class="st6" d="M3949.1,4723.5l-77.1-20.2c0,0-139.8-7.7-108.1-123.9s152.3-172,152.3-172l15.3,166.2
	C3931.5,4573.6,3827.3,4623,3949.1,4723.5z"/>
<rect x="4108.3" y="4624.5" class="st6" width="24" height="4.5"/>
<rect x="4149.4" y="4580.1" class="st6" width="25.4" height="27.8"/>
<polygon class="st6" points="3909.7,4744 3979.4,4744 3911.8,4706.6 3874.1,4705.9 "/>
<polygon class="st6" points="3883.3,4770 3940.3,4770 3859,4693 3822,4693 3869.9,4780.2 "/>
<polygon class="st6" points="3846.3,4797 3882.2,4797 3801.2,4661.3 3775.4,4660.2 3783.8,4739.9 3824.9,4797 "/>
<polygon class="st6" points="3929,4866.9 4045,4739.7 4064.9,4734.9 3899.7,4741.5 3815.7,4790 "/>
<path class="st14" d="M4190,4525.1"/>
<polygon points="4274.8,4457.4 4085,4700 4083.1,4641.6 4259.1,4447.5 "/>
<circle class="st6" cx="4207.5" cy="4487.7" r="12.7"/>
<circle class="st6" cx="4237.1" cy="4461.3" r="8.4"/>
<polygon points="4084.9,4698.6 4265.9,4499.1 4264.1,4467.4 4084,4648.4 "/>
<polygon class="st6" points="3934.3,4864.8 4054.3,4732.5 4007.4,4742.4 3909.7,4840.6 "/>
<circle cx="4007" cy="4629" r="105.9"/>
<ellipse class="st6" cx="4007" cy="4499.8" rx="129.9" ry="129.2"/>
<g>
	<polygon points="3254.8,4599.6 2915.7,4724.5 2867.3,4421.3 3286.9,4301.6 	"/>
</g>
<g>
	<path class="st7" d="M3310.5,4637.3"/>
</g>
<g>
	<path class="st7" d="M3340.9,4507"/>
	<path class="st7" d="M3398.8,4522.6"/>
</g>
<g>
	<path class="st6" d="M3105.2,4669.9"/>
</g>
<g>
	<path class="st6" d="M3239.4,4715.4c-26,9.2-60.5,16.4-85.4,4.5c-24.9-11.9-43.6-32.8-52.8-58.8c-19-53.7,9.3-112.8,63-131.7
		c18.8-6.6,39-7.7,58.4-3c6.7,1.6,13.5-2.5,15.1-9.2c1.6-6.7-2.5-13.5-9.2-15.1c-24.1-5.8-49.2-4.5-72.6,3.8
		c-66.7,23.5-101.8,97-78.3,163.7c11.4,32.3,34.7,58.2,65.6,73c17.5,8.4,36.4,11.5,55.2,11.5c14.4,0,34.2-1.4,48.2-6.3
		c51.2-18.1,79.2-68.2,79.7-122.3H3302C3301.5,4669,3282.5,4700.2,3239.4,4715.4z"/>
</g>
<g>
	<path class="st9" d="M3208.1,4862.2c-83.7,0-144.7-47-148.6-69.3c0,0,75,74.4,186.9,47.6"/>
</g>
<g>
	<path class="st9" d="M3207,4818.9c-83.7,0-131-52.8-134.9-75c0,0,61.6,78.4,174.3,49.7"/>
</g>
<g>
	<path class="st6" d="M3119.4,4402.5c-123.6,43.7-188.7,179.8-145.1,303.4c21.1,59.9,64.4,108,121.7,135.4
		c53.9,25.8,125.2,28.6,181.8,8.7c59.9-21.1,106.9-63.3,134.3-120.6c14.8-30.9,22-67.1,21.7-103.9h0.1v-141.3l27.1-32.5l0.6,173.8
		c0.2,39-8.4,78.3-25.8,114.7c-30.3,63.3-83.4,111.1-149.6,134.5c-28.6,10.1-58.2,15.1-87.7,15.1c-38.7,0-76.9-9.4-113.2-25.8
		c-67-30.4-111.1-83.4-134.5-149.6c-23.4-66.2-19.6-137.5,10.7-200.9c30.3-63.3,83.4-111.1,149.6-134.5"/>
</g>
<path class="st6" d="M3126.2,4421.7c-113.1,39.9-172.6,164.4-132.7,277.5c19.3,54.8,58.8,98.7,111.3,123.8
	c29.7,14.2,61.6,21.3,93.6,21.3c24.4,0,51-3,74.7-11.4c54.8-19.3,96.6-57.8,121.7-110.2c15.6-32.5,21.9-64.8,21.3-97.3l0,0l0-87.7
	l-26,21.7l-0.1,66.1l0,0c0.2,28.8-5,57.6-17.8,84.4c-22.2,46.4-60.9,81.8-109.5,98.4c-48.8,16.7-100.7,14.3-147.1-7.8
	c-46.4-22.2-81.3-61.1-98.4-109.5c-35.3-100.1,17.3-210.2,117.4-245.5c37.3-13.2,77.2-14.6,115.3-4"/>
<path class="st6" d="M3343.8,4625.4c0.2,22-3.5,44-13.3,64.5c-16.9,35.3-43.2,65.1-80,78.1c-16.1,5.7-36.8,7.3-52.9,7.3
	c-60.3,0-115.8-39.8-137-99.8c-26.9-76.1,13.2-159.8,89.2-186.6c27.8-9.8,57.4-11,85.8-3.6l6.4-24.2c-33.2-8.7-68-7.3-100.5,4.2
	c-89.1,31.4-136,129.5-104.5,218.6c24.8,70.3,91.1,115.3,161.7,115.3c18.9,0,39.2-1.9,57.9-8.7c75.5-27.4,115.9-93.1,113.2-165
	l0.1-21.7h-26L3343.8,4625.4z"/>
<path class="st9" d="M3203.5,4757.2"/>
<path class="st6" d="M3138.6,4722.3l-79.1-20.7c0,0-143.3-7.9-110.8-127.1s156.2-176.4,156.2-176.4l15.6,170.5
	C3120.5,4568.5,3013.7,4619.3,3138.6,4722.3z"/>
<rect x="3301.8" y="4620.8" class="st6" width="24.6" height="4.6"/>
<rect x="3344" y="4575.2" class="st6" width="26" height="28.5"/>
<polygon class="st6" points="3098.1,4743 3169.6,4743 3100.3,4704.8 3061.6,4704.1 "/>
<polygon class="st6" points="3071.1,4770 3129.5,4770 3046.1,4690 3008.2,4690 3057.4,4780 "/>
<polygon class="st6" points="3033.1,4798 3070,4798 2986.8,4658.6 2960.4,4657.4 2969,4739.4 3011.2,4798 "/>
<polygon class="st6" points="3117.9,4869.3 3236.9,4738.9 3257.3,4734 3087.8,4740.7 3001.8,4790.5 "/>
<path class="st14" d="M3385.6,4518.9"/>
<polygon points="3472.5,4449.4 3277.9,4698.2 3275.9,4638.3 3456.5,4439.3 "/>
<circle class="st6" cx="3403.5" cy="4491.3" r="13"/>
<circle class="st6" cx="3433.9" cy="4464.2" r="8.7"/>
<polygon points="3277.8,4696.8 3463.4,4492.2 3461.5,4459.7 3276.8,4645.3 "/>
<polygon class="st6" points="3123.3,4867.2 3246.4,4731.6 3198.3,4741.7 3098.1,4842.4 "/>
<circle cx="3193.6" cy="4613.5" r="117.2"/>
<ellipse transform="matrix(0.6705 -0.7419 0.7419 0.6705 -2314.2302 3824.0022)" class="st6" cx="3148.3" cy="4517.6" rx="152.7" ry="140.1"/>
<polygon class="st6" points="3325,4644.8 3232.7,4743.5 3271.4,4722.3 "/>
<line class="st15" x1="3686.2" y1="4243" x2="2935.7" y2="5078.1"/>
<line class="st16" x1="3449" y1="4183.4" x2="2698.5" y2="5018.5"/>
<line class="st15" x1="3647.2" y1="4241.9" x2="2896.7" y2="5077"/>
<g>
	<path class="st7" d="M4131.5,3829.9"/>
</g>
<g>
	<path class="st7" d="M4162.6,3696.5"/>
	<path class="st7" d="M4221.9,3712.5"/>
</g>
<g>
	<path class="st6" d="M3921.4,3863.3"/>
</g>
<g>
	<path class="st9" d="M4026.7,4060c-85.6,0-148.1-48.1-152.1-70.9c0,0,76.7,76.1,191.2,48.7"/>
</g>
<g>
	<path class="st9" d="M4025.6,4015.7c-85.6,0-134.1-54-138.1-76.8c0,0,63.1,80.2,178.4,50.9"/>
</g>
<path class="st9" d="M4022,3952.6"/>
<rect x="4122.6" y="3813" class="st6" width="25.2" height="4.7"/>
<rect x="4165.7" y="3766.3" class="st6" width="26.6" height="29.2"/>
<path class="st14" d="M4208.3,3708.7"/>
<polygon points="4297.3,3637.6 4098.1,3892.2 4096.1,3830.9 4280.9,3627.2 "/>
<circle class="st6" cx="4226.7" cy="3669.4" r="13.3"/>
<circle class="st6" cx="4257.7" cy="3641.7" r="8.9"/>
<path class="st6" d="M4025.3,3622.3l44,7C4054.8,3625.3,4040.1,3622.9,4025.3,3622.3z"/>
<path class="st6" d="M4285.1,3639.8l-28.1,33.2V3818h0.7c0.3,37-7.1,74.5-22.2,106.2c-28,58.6-76.2,101.7-137.5,123.4
	c-44.9,15.9-99,17.6-146.8,5.2l15.3-16.9c16.5,3.9,33.4,5.8,50.3,5.8c25,0,52.2-3.1,76.4-11.7c56-19.8,98.9-59.2,124.5-112.8
	c15.9-33.3,22.4-66.3,21.8-99.5l0-89.8l-26.6,22.2l-0.1,67.6c0.2,29.5-5.1,58.9-18.2,86.3c-22.7,47.5-62.3,83.7-112.1,100.7
	c-31.4,10.8-64.1,13.8-95.8,8.9l17-18.7c4.5,0.4,8.9,0.5,13.4,0.5c19.3,0,40.1-1.9,59.3-8.9c77.3-28.1,118.6-95.5,115.8-169.1
	l0.1-22.4h-26.6l-0.1,22.4c0.2,22.5-3.6,45.2-13.6,66.1c-17.2,36.1-44.2,66.7-81.9,80c-13.4,4.7-30,6.7-44.6,7.3l21.4-23.5
	c6.9-1,13.6-2.4,19.3-4.4c46.1-16.3,73.8-57.9,80.1-105.3l0,0l0,0.2c0.9-6.5,1.3-13.7,1.4-19.7h-25c-0.5,44-20,76.4-64,91.9
	c-26.6,9.4-61.9,16.7-87.4,4.5c-25.5-12.2-44.7-33.6-54.1-60.2c-10.6-30-6.8-61.7,7.8-87.4c6.7-4.9,11.9-7.3,11.9-7.3l-0.8-8.6
	c11.7-13.9,27.2-25,45.5-31.5c19.3-6.8,39.9-7.9,59.8-3.1c6.9,1.7,13.8-2.6,15.4-9.5c1.7-6.9-2.6-13.8-9.5-15.4
	c-24.7-5.9-50.3-4.6-74.3,3.9c-15,5.3-28.4,13.1-40,22.7l-2-21.6c10.8-7.6,22.8-13.8,35.9-18.4c28.4-10,58.8-11.3,87.8-3.7l6.5-24.8
	c-34-9-69.6-7.5-102.8,4.3c-10.6,3.7-20.6,8.4-30,13.9l-2.2-23.5c7.9-4.1,16.3-7.7,24.9-10.8c24-8.5,49-12.2,73.9-11.1l-82.4-13.1
	c-6.5,2.3-12.8,4.9-18.9,7.7l-2-21.9c4.6-1.9,9.2-3.8,14-5.4l-8.5-24.2c-67.7,23.9-122.1,72.8-153.1,137.6
	c-31,64.8-34.9,137.8-11,205.6c23.9,67.7,69,122,137.6,153.1c37.1,16.9,76.2,26.5,115.8,26.5c30.2,0,60.4-5.1,89.7-15.5
	c67.7-23.9,122.1-72.8,153.1-137.6c17.8-37.3,26.5-77.5,26.2-117.4L4285.1,3639.8z"/>
<polygon points="4098.1,3888.5 4288,3679.1 4286.1,3634.8 4097,3835.8 "/>
<ellipse transform="matrix(0.6705 -0.7419 0.7419 0.6705 -1504.9841 4233.2944)" cx="4013.7" cy="3811.1" rx="124.5" ry="114.2"/>
<ellipse transform="matrix(0.6705 -0.7419 0.7419 0.6705 -1443.8905 4163.3418)" class="st6" cx="3965.5" cy="3707.3" rx="156.2" ry="143.4"/>
<line class="st4" x1="2420.6" y1="1874.6" x2="2190.9" y2="2547.3"/>
<line class="st4" x1="1932.1" y1="1924.3" x2="1347.2" y2="2584.4"/>
</svg>
